STARTFONT 2.1
COMMENT
COMMENT Converted from OpenType font "Catrinity-Regular.otf" by "otf2bdf 3.0".
COMMENT
FONT -FreeType-Catrinity-Medium-R-Normal--39-280-100-100-P-191-ISO10646-1
SIZE 28 100 100
FONTBOUNDINGBOX 89 51 -23 -15
STARTPROPERTIES 19
FOUNDRY "FreeType"
FAMILY_NAME "Catrinity"
WEIGHT_NAME "Medium"
SLANT "R"
SETWIDTH_NAME "Normal"
ADD_STYLE_NAME ""
PIXEL_SIZE 39
POINT_SIZE 280
RESOLUTION_X 100
RESOLUTION_Y 100
SPACING "P"
AVERAGE_WIDTH 191
CHARSET_REGISTRY "ISO10646"
CHARSET_ENCODING "1"
FONT_ASCENT 32
FONT_DESCENT 15
COPYRIGHT "Typeface © Alexander Lange. 2023. All Rights Reserved"
_OTF_FONTFILE "Catrinity-Regular.otf"
_OTF_PSNAME "Catrinity"
ENDPROPERTIES
CHARS 9984
STARTCHAR 0000
ENCODING 0
SWIDTH 0 0
DWIDTH 0 0
BBX 0 0 0 0
BITMAP
ENDCHAR
STARTCHAR 0008
ENCODING 8
SWIDTH 0 0
DWIDTH 0 0
BBX 0 0 0 0
BITMAP
ENDCHAR
STARTCHAR 0009
ENCODING 9
SWIDTH 231 0
DWIDTH 9 0
BBX 0 0 0 0
BITMAP
ENDCHAR
STARTCHAR 000D
ENCODING 13
SWIDTH 231 0
DWIDTH 9 0
BBX 0 0 0 0
BITMAP
ENDCHAR
STARTCHAR 001D
ENCODING 29
SWIDTH 0 0
DWIDTH 0 0
BBX 0 0 0 0
BITMAP
ENDCHAR
STARTCHAR 0020
ENCODING 32
SWIDTH 231 0
DWIDTH 9 0
BBX 0 0 0 0
BITMAP
ENDCHAR
STARTCHAR 0021
ENCODING 33
SWIDTH 154 0
DWIDTH 6 0
BBX 4 25 1 0
BITMAP
70
70
70
70
70
70
70
70
70
70
70
70
70
70
70
70
70
00
00
00
00
60
F0
F0
70
ENDCHAR
STARTCHAR 0022
ENCODING 34
SWIDTH 282 0
DWIDTH 11 0
BBX 8 8 2 17
BITMAP
E7
E7
E7
E7
E7
E7
E7
E7
ENDCHAR
STARTCHAR 0023
ENCODING 35
SWIDTH 694 0
DWIDTH 27 0
BBX 24 25 2 0
BITMAP
00E070
00E070
01C070
01C070
01C070
01C0E0
01C0E0
3FFFFF
3FFFFF
7FFFFE
0380C0
0381C0
0381C0
0701C0
0701C0
FFFFFC
FFFFFC
FFFFFC
070380
0E0380
0E0380
0E0380
0E0700
0E0700
0C0700
ENDCHAR
STARTCHAR 0024
ENCODING 36
SWIDTH 462 0
DWIDTH 18 0
BBX 15 33 2 -4
BITMAP
0380
0380
0380
0380
0FE0
1FF0
3FF8
7BBC
739C
739C
7380
7380
7B80
3F80
1F80
0FC0
07F0
03F8
03FC
039C
038E
038E
E38E
E38E
F38E
7B9C
3FFC
3FF8
0FE0
0380
0380
0380
0380
ENDCHAR
STARTCHAR 0025
ENCODING 37
SWIDTH 617 0
DWIDTH 24 0
BBX 21 25 2 0
BITMAP
3F0078
7F80F0
FBC0E0
E1C1C0
E0E3C0
E0C380
E1C700
7FCF00
7F9E00
1F1C00
003C00
007800
007000
00E000
01E000
01C7C0
038FF0
079FF0
0F1C38
0E3838
1E3838
3C3C38
381EF0
700FF0
F007E0
ENDCHAR
STARTCHAR 0026
ENCODING 38
SWIDTH 540 0
DWIDTH 21 0
BBX 18 25 2 0
BITMAP
0FE000
1FF000
3EF800
783C00
701000
700000
700E00
700E00
700E00
380E00
3FFFC0
1FFFC0
3FFFC0
780E00
700E00
E00E00
E00E00
E00E00
E00E00
E00E00
F01E00
783E00
3EFFC0
3FFFC0
0FE7C0
ENDCHAR
STARTCHAR 0027
ENCODING 39
SWIDTH 154 0
DWIDTH 6 0
BBX 3 8 2 17
BITMAP
E0
E0
E0
E0
E0
E0
E0
E0
ENDCHAR
STARTCHAR 0028
ENCODING 40
SWIDTH 282 0
DWIDTH 11 0
BBX 8 33 2 -8
BITMAP
0E
1E
1C
38
38
38
70
70
70
60
E0
E0
E0
E0
E0
E0
E0
E0
E0
E0
E0
E0
E0
70
70
70
70
38
38
1C
1C
0E
0F
ENDCHAR
STARTCHAR 0029
ENCODING 41
SWIDTH 282 0
DWIDTH 11 0
BBX 8 33 2 -8
BITMAP
E0
70
70
38
38
1C
1C
1C
0E
0E
0E
0E
0E
06
06
06
07
06
06
0E
0E
0E
0E
0E
0E
1C
1C
1C
38
38
70
F0
E0
ENDCHAR
STARTCHAR 002A
ENCODING 42
SWIDTH 437 0
DWIDTH 17 0
BBX 13 13 2 12
BITMAP
0700
0700
4310
7278
FAF8
1FC0
0700
1FE0
FAF8
6230
4710
0700
0700
ENDCHAR
STARTCHAR 002B
ENCODING 43
SWIDTH 514 0
DWIDTH 20 0
BBX 17 17 2 4
BITMAP
01C000
01C000
01C000
01C000
01C000
01C000
01C000
FFFF80
FFFF80
FFFF80
01C000
01C000
01C000
01C000
01C000
01C000
01C000
ENDCHAR
STARTCHAR 002C
ENCODING 44
SWIDTH 180 0
DWIDTH 7 0
BBX 5 10 2 -7
BITMAP
60
F0
F8
F8
18
18
10
30
20
C0
ENDCHAR
STARTCHAR 002D
ENCODING 45
SWIDTH 334 0
DWIDTH 13 0
BBX 9 3 2 7
BITMAP
FF80
FF80
FF80
ENDCHAR
STARTCHAR 002E
ENCODING 46
SWIDTH 180 0
DWIDTH 7 0
BBX 4 4 2 0
BITMAP
60
F0
F0
F0
ENDCHAR
STARTCHAR 002F
ENCODING 47
SWIDTH 385 0
DWIDTH 15 0
BBX 12 25 2 0
BITMAP
0070
00F0
00E0
00E0
01C0
01C0
01C0
0380
0380
0380
0700
0700
0F00
0E00
0E00
1C00
1C00
1C00
3800
3800
3800
7000
7000
F000
E000
ENDCHAR
STARTCHAR 0030
ENCODING 48
SWIDTH 462 0
DWIDTH 18 0
BBX 15 25 2 0
BITMAP
07C0
1FF0
1EF0
3838
7838
701C
701C
E00E
E00E
E00E
E00E
E00E
E00E
E00E
E00E
E00E
E00E
E00E
701C
701C
3838
3838
1EF0
1FE0
07C0
ENDCHAR
STARTCHAR 0031
ENCODING 49
SWIDTH 411 0
DWIDTH 16 0
BBX 12 25 2 0
BITMAP
0700
0F00
0F00
3F00
FF00
FF00
0700
0700
0700
0700
0700
0700
0700
0700
0700
0700
0700
0700
0700
0700
0700
0700
FFF0
FFF0
FFF0
ENDCHAR
STARTCHAR 0032
ENCODING 50
SWIDTH 437 0
DWIDTH 17 0
BBX 13 25 2 0
BITMAP
1FC0
3FE0
7DF0
F078
E038
E038
0038
0038
0038
0070
00F0
01E0
03C0
0780
0F00
1E00
3C00
7800
7000
E000
E000
E000
FFF8
FFF8
FFF8
ENDCHAR
STARTCHAR 0033
ENCODING 51
SWIDTH 462 0
DWIDTH 18 0
BBX 14 25 2 0
BITMAP
1FC0
3FE0
7DF0
F078
E038
E038
0038
0038
0038
0070
01F0
01E0
01F0
0078
0038
001C
001C
001C
001C
001C
E03C
F038
7DF8
3FF0
1FC0
ENDCHAR
STARTCHAR 0034
ENCODING 52
SWIDTH 540 0
DWIDTH 21 0
BBX 18 25 2 0
BITMAP
003C00
007C00
007C00
00FC00
01FC00
03DC00
039C00
071C00
0F1C00
0E1C00
1C1C00
3C1C00
781C00
701C00
E01C00
FFFFC0
FFFFC0
001C00
001C00
001C00
001C00
001C00
001C00
001C00
001C00
ENDCHAR
STARTCHAR 0035
ENCODING 53
SWIDTH 462 0
DWIDTH 18 0
BBX 14 25 2 0
BITMAP
3FF0
3FF0
3FF0
7000
7000
7000
7000
6F80
FFE0
FFF0
F8F0
F038
603C
001C
001C
001C
001C
001C
001C
001C
E038
F078
7DF0
3FE0
1FC0
ENDCHAR
STARTCHAR 0036
ENCODING 54
SWIDTH 462 0
DWIDTH 18 0
BBX 15 25 2 0
BITMAP
07F0
0FF8
1F7C
3C1E
3808
7000
7000
7000
E000
E000
E3C0
FFF0
FFF8
F83C
F01C
E00E
E00E
E00E
600E
700E
701E
383C
3EF8
1FF0
0FE0
ENDCHAR
STARTCHAR 0037
ENCODING 55
SWIDTH 488 0
DWIDTH 19 0
BBX 16 25 2 0
BITMAP
FFFF
FFFE
FFFC
001C
0038
0038
0070
0070
00E0
00E0
01C0
01C0
03C0
0380
0380
0780
0700
0700
0700
0700
0E00
0E00
0E00
0E00
0E00
ENDCHAR
STARTCHAR 0038
ENCODING 56
SWIDTH 462 0
DWIDTH 18 0
BBX 15 25 2 0
BITMAP
0FE0
1FF0
3EF8
783C
701C
701C
701C
701C
701C
3838
3FF8
1FF0
3FF8
783C
701C
E00E
E00E
E00E
E00E
E00E
F01E
783C
3EF8
3FF0
0FE0
ENDCHAR
STARTCHAR 0039
ENCODING 57
SWIDTH 462 0
DWIDTH 18 0
BBX 15 25 2 0
BITMAP
0FE0
3FF8
7EFC
701C
F01E
E00E
E00E
E00E
E00E
E00E
701C
7C7C
3FFC
1FF8
03F8
0078
0070
0070
00E0
00E0
00E0
01C0
01C0
01C0
0380
ENDCHAR
STARTCHAR 003A
ENCODING 58
SWIDTH 180 0
DWIDTH 7 0
BBX 4 18 2 0
BITMAP
60
F0
F0
F0
00
00
00
00
00
00
00
00
00
00
60
F0
F0
F0
ENDCHAR
STARTCHAR 003B
ENCODING 59
SWIDTH 180 0
DWIDTH 7 0
BBX 5 24 2 -7
BITMAP
60
F0
F0
F0
00
00
00
00
00
00
00
00
00
00
60
F0
F8
F8
18
18
10
30
20
C0
ENDCHAR
STARTCHAR 003C
ENCODING 60
SWIDTH 514 0
DWIDTH 20 0
BBX 17 15 2 5
BITMAP
000180
000F80
007F80
01FE00
0FF000
7F8000
FE0000
F00000
FE0000
7FC000
0FF000
01FE00
007F80
000F80
000180
ENDCHAR
STARTCHAR 003D
ENCODING 61
SWIDTH 514 0
DWIDTH 20 0
BBX 17 9 2 8
BITMAP
FFFF80
FFFF80
000000
000000
000000
000000
FFFF80
FFFF80
FFFF80
ENDCHAR
STARTCHAR 003E
ENCODING 62
SWIDTH 514 0
DWIDTH 20 0
BBX 17 15 2 5
BITMAP
C00000
F80000
FF0000
3FC000
07F800
01FF00
003F80
000780
003F80
01FF00
0FF800
3FC000
FE0000
F80000
C00000
ENDCHAR
STARTCHAR 003F
ENCODING 63
SWIDTH 437 0
DWIDTH 17 0
BBX 13 25 2 0
BITMAP
1FC0
3FE0
7DF0
F078
E038
E038
0038
0038
0038
0078
0070
00F0
01E0
03C0
0380
0380
0700
0700
0000
0000
0000
0700
0700
0F80
0700
ENDCHAR
STARTCHAR 0040
ENCODING 64
SWIDTH 951 0
DWIDTH 37 0
BBX 31 33 3 -8
BITMAP
0003FF00
000FFFC0
003FFFE0
007C01F0
01F000F8
03C00078
0780003C
0701E01C
0E07FB9E
1C0FFF0E
1C1E1F0E
38380F0E
38700F0E
70700F0E
70E00E0E
60E00E0E
E0E00E0E
E0E00E0E
E0C01E1C
E0E01C1C
E0E03C1C
E0F07C38
E07FFC38
E07FFC70
F03F9DE0
70001FC0
78001F80
3C000600
3E000000
1F800000
0FFFC000
03FFC000
00FF8000
ENDCHAR
STARTCHAR 0041
ENCODING 65
SWIDTH 642 0
DWIDTH 25 0
BBX 21 25 2 0
BITMAP
007000
00F800
00F800
00F800
01DC00
01DC00
01DC00
038E00
038E00
038700
070700
070700
0F0380
0FFF80
0FFF80
1FFFC0
1C01C0
1C01C0
3800E0
3800E0
380070
700070
700070
F00038
E00038
ENDCHAR
STARTCHAR 0042
ENCODING 66
SWIDTH 488 0
DWIDTH 19 0
BBX 16 25 2 0
BITMAP
FFE0
FFF8
FFFC
E03C
E01E
E00E
E00E
E00E
E01E
E03C
FFFC
FFF8
FFFC
E03E
E00E
E00F
E007
E007
E007
E007
E00E
E01E
FFFC
FFF8
FFE0
ENDCHAR
STARTCHAR 0043
ENCODING 67
SWIDTH 591 0
DWIDTH 23 0
BBX 19 25 2 0
BITMAP
03FC00
07FF00
0FDF80
1E03C0
3C01E0
7800E0
700080
700000
E00000
E00000
E00000
E00000
E00000
E00000
E00000
E00000
E00000
700000
7000C0
3800E0
3C01E0
1E03C0
0FDF80
07FF00
03FC00
ENDCHAR
STARTCHAR 0044
ENCODING 68
SWIDTH 617 0
DWIDTH 24 0
BBX 21 25 2 0
BITMAP
FFFC00
FFFE00
FFFF80
1C07C0
1C03C0
1C01E0
1C00F0
1C0070
1C0070
1C0030
1C0038
1C0038
1C0038
1C0038
1C0038
1C0030
1C0070
1C0070
1C00F0
1C01E0
1C03C0
1C07C0
FFFF80
FFFE00
FFF800
ENDCHAR
STARTCHAR 0045
ENCODING 69
SWIDTH 488 0
DWIDTH 19 0
BBX 16 25 2 0
BITMAP
FFFF
FFFF
FFFF
E000
E000
E000
E000
E000
E000
E000
E000
FFFC
FFFC
FFFC
E000
E000
E000
E000
E000
E000
E000
E000
FFFF
FFFF
FFFF
ENDCHAR
STARTCHAR 0046
ENCODING 70
SWIDTH 488 0
DWIDTH 19 0
BBX 16 25 2 0
BITMAP
FFFF
FFFF
FFFF
E000
E000
E000
E000
E000
E000
E000
E000
FFFC
FFFC
FFFC
E000
E000
E000
E000
E000
E000
E000
E000
E000
E000
E000
ENDCHAR
STARTCHAR 0047
ENCODING 71
SWIDTH 591 0
DWIDTH 23 0
BBX 19 25 2 0
BITMAP
03FC00
07FF00
0FDF80
1E03C0
3C01E0
7800E0
700080
700000
E00000
E00000
E00000
E00000
E07FE0
E07FE0
E07FE0
E000E0
E000E0
7000E0
7000E0
3800E0
3C01E0
1E03C0
0FDF80
07FF00
03FC00
ENDCHAR
STARTCHAR 0048
ENCODING 72
SWIDTH 488 0
DWIDTH 19 0
BBX 16 25 2 0
BITMAP
E007
E007
E007
E007
E007
E007
E007
E007
E007
E007
E007
FFFF
FFFF
FFFF
E007
E007
E007
E007
E007
E007
E007
E007
E007
E007
E007
ENDCHAR
STARTCHAR 0049
ENCODING 73
SWIDTH 308 0
DWIDTH 12 0
BBX 8 25 2 0
BITMAP
FF
FF
FF
1C
1C
1C
1C
1C
1C
1C
1C
1C
1C
1C
1C
1C
1C
1C
1C
1C
1C
1C
FF
FF
FF
ENDCHAR
STARTCHAR 004A
ENCODING 74
SWIDTH 360 0
DWIDTH 14 0
BBX 11 25 2 0
BITMAP
00E0
00E0
00E0
00E0
00E0
00E0
00E0
00E0
00E0
00E0
00E0
00E0
00E0
00E0
00E0
00E0
00E0
00E0
00E0
00E0
E0E0
E1C0
FFC0
7F80
3F00
ENDCHAR
STARTCHAR 004B
ENCODING 75
SWIDTH 540 0
DWIDTH 21 0
BBX 17 25 2 0
BITMAP
E01E00
E01C00
E03800
E07800
E07000
E0E000
E1E000
E3C000
E38000
E78000
EF0000
EF0000
FF0000
FF8000
FBC000
F1C000
F0E000
E0F000
E07800
E03800
E01C00
E01E00
E00E00
E00700
E00780
ENDCHAR
STARTCHAR 004C
ENCODING 76
SWIDTH 488 0
DWIDTH 19 0
BBX 16 25 2 0
BITMAP
E000
E000
E000
E000
E000
E000
E000
E000
E000
E000
E000
E000
E000
E000
E000
E000
E000
E000
E000
E000
E000
E000
FFFF
FFFF
FFFF
ENDCHAR
STARTCHAR 004D
ENCODING 77
SWIDTH 642 0
DWIDTH 25 0
BBX 21 25 2 0
BITMAP
E00038
F00038
F00078
F00078
F800F8
F800F8
F800F8
FC01F8
FC01F8
FC01F8
EE03B8
EE03B8
EF03B8
E70738
E70738
E38F38
E38E38
E38E38
E1DC38
E1DC38
E1DC38
E0F838
E0F838
E0F838
E07038
ENDCHAR
STARTCHAR 004E
ENCODING 78
SWIDTH 591 0
DWIDTH 23 0
BBX 20 25 2 0
BITMAP
E00070
F00070
F80070
F80070
FC0070
FE0070
EE0070
E70070
E78070
E38070
E1C070
E1E070
E0F070
E07070
E07870
E03C70
E01C70
E00E70
E00F70
E00770
E003F0
E003F0
E001F0
E000F0
E000F0
ENDCHAR
STARTCHAR 004F
ENCODING 79
SWIDTH 617 0
DWIDTH 24 0
BBX 21 25 2 0
BITMAP
03FC00
07FF00
0FDF80
1E03C0
3C01E0
3800E0
7000F0
700070
E00070
E00038
E00038
E00038
E00038
E00038
E00038
E00038
E00070
700070
7000F0
3800E0
3C01E0
1E03C0
0FDF80
07FF00
03FC00
ENDCHAR
STARTCHAR 0050
ENCODING 80
SWIDTH 462 0
DWIDTH 18 0
BBX 15 25 2 0
BITMAP
FFC0
FFF0
FFF8
E03C
E01C
E00E
E00E
E00E
E00E
E01C
E03C
FFF8
FFF0
FFE0
E000
E000
E000
E000
E000
E000
E000
E000
E000
E000
E000
ENDCHAR
STARTCHAR 0051
ENCODING 81
SWIDTH 617 0
DWIDTH 24 0
BBX 24 28 2 -3
BITMAP
03FC00
07FF00
0FDF80
1E03C0
3C01E0
3800E0
7000F0
700070
E00070
E00038
E00038
E00038
E00038
E00038
E00038
E00038
E07070
71FC70
73FEF0
398FE0
3C07E0
1E07C0
0FDF80
07FFC0
03FDC6
0001FF
0000FE
000038
ENDCHAR
STARTCHAR 0052
ENCODING 82
SWIDTH 514 0
DWIDTH 20 0
BBX 17 25 2 0
BITMAP
FFC000
FFF000
FFF800
E03C00
E01C00
E00E00
E00E00
E00E00
E00E00
E01C00
E03C00
FFF800
FFF000
FFE000
E0E000
E0E000
E07000
E07800
E03800
E01C00
E01C00
E00E00
E00F00
E00700
E00780
ENDCHAR
STARTCHAR 0053
ENCODING 83
SWIDTH 462 0
DWIDTH 18 0
BBX 15 25 2 0
BITMAP
0FE0
1FF0
3EF8
783C
701C
701C
7000
7000
7800
3C00
1F00
0FC0
07F0
00F8
007C
001C
000E
000E
E00E
E00E
F00E
781C
3EFC
3FF8
0FE0
ENDCHAR
STARTCHAR 0054
ENCODING 84
SWIDTH 488 0
DWIDTH 19 0
BBX 16 25 2 0
BITMAP
FFFF
FFFF
FFFF
0380
0380
0380
0380
0380
0380
0380
0380
0380
0380
0380
0380
0380
0380
0380
0380
0380
0380
0380
0380
0380
0380
ENDCHAR
STARTCHAR 0055
ENCODING 85
SWIDTH 565 0
DWIDTH 22 0
BBX 19 25 2 0
BITMAP
E000E0
E000E0
E000E0
E000E0
E000E0
E000E0
E000E0
E000E0
E000E0
E000E0
E000E0
E000E0
E000E0
E000E0
E000E0
E000E0
E000E0
E000E0
E000E0
7001C0
7803C0
3C0780
1FBF00
0FFE00
07F800
ENDCHAR
STARTCHAR 0056
ENCODING 86
SWIDTH 642 0
DWIDTH 25 0
BBX 21 25 2 0
BITMAP
E00038
F00038
700070
700070
3800F0
3800E0
3800E0
1C01C0
1C01C0
1C01C0
0E0380
0E0380
0F0380
070700
070700
038F00
038E00
038E00
01DC00
01DC00
01DC00
00F800
00F800
00F800
007000
ENDCHAR
STARTCHAR 0057
ENCODING 87
SWIDTH 848 0
DWIDTH 33 0
BBX 30 25 2 0
BITMAP
E007001C
E0078038
70078038
700F8038
700FC038
700FC070
380FC070
381DC070
381CE0E0
381CE0E0
1C18E0E0
1C38E0E0
1C3871C0
0C3871C0
0E7071C0
0E7031C0
0E703B80
07703B80
07E03B80
07E01F80
07E01F00
03E01F00
03C01F00
03C00E00
03C00E00
ENDCHAR
STARTCHAR 0058
ENCODING 88
SWIDTH 617 0
DWIDTH 24 0
BBX 21 25 2 0
BITMAP
F00078
7000F0
3800E0
3C01C0
1E03C0
0E0380
0F0700
078F00
039E00
01DC00
01FC00
00F800
007000
00F800
01FC00
01DC00
039E00
078F00
0F0700
0E0380
1E03C0
3C01E0
3800E0
7000F0
F00078
ENDCHAR
STARTCHAR 0059
ENCODING 89
SWIDTH 617 0
DWIDTH 24 0
BBX 21 25 2 0
BITMAP
F00078
7000F0
3800E0
3C01C0
1E03C0
0E0380
070700
078F00
039E00
01DC00
01FC00
00F800
007000
007000
007000
007000
007000
007000
007000
007000
007000
007000
007000
007000
007000
ENDCHAR
STARTCHAR 005A
ENCODING 90
SWIDTH 514 0
DWIDTH 20 0
BBX 17 25 2 0
BITMAP
FFFF80
FFFF80
FFFF80
000700
000F00
000E00
001C00
003C00
007800
007000
00F000
01E000
01C000
038000
078000
070000
0E0000
1E0000
3C0000
380000
780000
F00000
FFFF80
FFFF80
FFFF80
ENDCHAR
STARTCHAR 005B
ENCODING 91
SWIDTH 282 0
DWIDTH 11 0
BBX 8 33 2 -8
BITMAP
FF
FF
FF
E0
E0
E0
E0
E0
E0
E0
E0
E0
E0
E0
E0
E0
E0
E0
E0
E0
E0
E0
E0
E0
E0
E0
E0
E0
E0
E0
FF
FF
FF
ENDCHAR
STARTCHAR 005C
ENCODING 92
SWIDTH 385 0
DWIDTH 15 0
BBX 12 25 2 0
BITMAP
E000
F000
7000
7000
3800
3800
3800
1C00
1C00
1C00
0E00
0E00
0F00
0700
0700
0380
0380
0380
01C0
01C0
01C0
00E0
00E0
00F0
0070
ENDCHAR
STARTCHAR 005D
ENCODING 93
SWIDTH 282 0
DWIDTH 11 0
BBX 8 33 2 -8
BITMAP
FF
FF
FF
07
07
07
07
07
07
07
07
07
07
07
07
07
07
07
07
07
07
07
07
07
07
07
07
07
07
07
FF
FF
FF
ENDCHAR
STARTCHAR 005E
ENCODING 94
SWIDTH 308 0
DWIDTH 12 0
BBX 8 8 2 17
BITMAP
3C
3C
3E
7E
7E
77
E7
E7
ENDCHAR
STARTCHAR 005F
ENCODING 95
SWIDTH 488 0
DWIDTH 19 0
BBX 16 3 2 -3
BITMAP
FFFF
FFFF
FFFF
ENDCHAR
STARTCHAR 0060
ENCODING 96
SWIDTH 257 0
DWIDTH 10 0
BBX 6 5 2 19
BITMAP
F0
70
18
08
04
ENDCHAR
STARTCHAR 0061
ENCODING 97
SWIDTH 385 0
DWIDTH 15 0
BBX 12 18 2 0
BITMAP
0600
3FC0
7FE0
38F0
0070
0070
0070
0670
3FF0
7FF0
F0F0
E070
E070
E070
E0F0
7FF0
7FF0
1FF0
ENDCHAR
STARTCHAR 0062
ENCODING 98
SWIDTH 462 0
DWIDTH 18 0
BBX 15 25 2 0
BITMAP
E000
E000
E000
E000
E000
E000
E000
E7C0
FFF0
FFF8
FC78
F01C
F01C
E00E
E00E
E00E
E00E
E00E
E00E
E00E
F01C
F83C
FEF8
FFF0
EFE0
ENDCHAR
STARTCHAR 0063
ENCODING 99
SWIDTH 462 0
DWIDTH 18 0
BBX 14 18 2 0
BITMAP
07C0
0FF0
3FF8
3C78
701C
7018
E000
E000
E000
E000
E000
E000
E000
701C
783C
3EF8
1FF0
0FE0
ENDCHAR
STARTCHAR 0064
ENCODING 100
SWIDTH 462 0
DWIDTH 18 0
BBX 15 25 2 0
BITMAP
000E
000E
000E
000E
000E
000E
000E
078E
0FEE
3FFE
3C7E
701E
701E
E00E
E00E
E00E
E00E
E00E
E00E
E00E
701E
783E
3EFE
1FFE
0FEE
ENDCHAR
STARTCHAR 0065
ENCODING 101
SWIDTH 462 0
DWIDTH 18 0
BBX 15 18 2 0
BITMAP
07C0
0FF0
3FF8
3C78
701C
701C
E00E
FFFE
FFFE
FFFE
E000
E000
E000
701C
783C
3EF8
1FF0
0FE0
ENDCHAR
STARTCHAR 0066
ENCODING 102
SWIDTH 308 0
DWIDTH 12 0
BBX 12 25 2 0
BITMAP
03F0
0FF0
0F60
1E00
1C00
1C00
1C00
1C00
1C00
FF80
FF80
FF80
1C00
1C00
1C00
1C00
1C00
1C00
1C00
1C00
1C00
1C00
1C00
1C00
1C00
ENDCHAR
STARTCHAR 0067
ENCODING 103
SWIDTH 488 0
DWIDTH 19 0
BBX 18 26 2 -8
BITMAP
07C100
1FF3C0
3FFF80
783F00
F01E00
E00E00
E00E00
E00E00
E00E00
701C00
7EFC00
7FF800
7FE000
E00000
F00000
7E0000
3FF000
07FC00
003E00
000E00
E00E00
E00E00
F01E00
7FFC00
3FF800
0FE000
ENDCHAR
STARTCHAR 0068
ENCODING 104
SWIDTH 462 0
DWIDTH 18 0
BBX 15 25 2 0
BITMAP
E000
E000
E000
E000
E000
E000
E000
E3C0
EFF0
FFF8
FC3C
F81C
F00E
E00E
E00E
E00E
E00E
E00E
E00E
E00E
E00E
E00E
E00E
E00E
E00E
ENDCHAR
STARTCHAR 0069
ENCODING 105
SWIDTH 154 0
DWIDTH 6 0
BBX 4 24 1 0
BITMAP
70
F0
F0
60
00
00
00
70
70
70
70
70
70
70
70
70
70
70
70
70
70
70
70
70
ENDCHAR
STARTCHAR 006A
ENCODING 106
SWIDTH 154 0
DWIDTH 6 0
BBX 9 32 -4 -8
BITMAP
0380
0780
0780
0300
0000
0000
0000
0380
0380
0380
0380
0380
0380
0380
0380
0380
0380
0380
0380
0380
0380
0380
0380
0380
0380
0380
0380
0380
0700
7F00
FE00
7C00
ENDCHAR
STARTCHAR 006B
ENCODING 107
SWIDTH 437 0
DWIDTH 17 0
BBX 13 25 2 0
BITMAP
E000
E000
E000
E000
E000
E000
E000
E000
E1E0
E3C0
E380
E780
EF00
EE00
FC00
FE00
FE00
FF00
F780
E380
E1C0
E1E0
E0E0
E070
E078
ENDCHAR
STARTCHAR 006C
ENCODING 108
SWIDTH 231 0
DWIDTH 9 0
BBX 6 25 2 0
BITMAP
E0
E0
E0
E0
E0
E0
E0
E0
E0
E0
E0
E0
E0
E0
E0
E0
E0
E0
E0
E0
E0
E0
FC
FC
7C
ENDCHAR
STARTCHAR 006D
ENCODING 109
SWIDTH 591 0
DWIDTH 23 0
BBX 20 18 2 0
BITMAP
070780
FF8FC0
FFDFE0
F9FCE0
F0F860
E0F070
E0F070
E0E070
E0E070
E0E070
E0E070
E0E070
E0E070
E0E070
E0E070
E0E070
E0E070
E0E070
ENDCHAR
STARTCHAR 006E
ENCODING 110
SWIDTH 462 0
DWIDTH 18 0
BBX 15 18 2 0
BITMAP
03C0
EFF0
FFF8
FC3C
F81C
F00E
E00E
E00E
E00E
E00E
E00E
E00E
E00E
E00E
E00E
E00E
E00E
E00E
ENDCHAR
STARTCHAR 006F
ENCODING 111
SWIDTH 462 0
DWIDTH 18 0
BBX 15 18 2 0
BITMAP
07C0
0FF0
3FF8
3C78
701C
701C
E00E
E00E
E00E
E00E
E00E
E00E
E00E
701C
783C
3EF8
1FF0
0FE0
ENDCHAR
STARTCHAR 0070
ENCODING 112
SWIDTH 462 0
DWIDTH 18 0
BBX 15 26 2 -9
BITMAP
07C0
FFF0
FFF8
FC78
F01C
F01C
E00E
E00E
E00E
E00E
E00E
E00E
E00E
F01C
F83C
FEF8
FFF0
EFE0
E000
E000
E000
E000
E000
E000
E000
6000
ENDCHAR
STARTCHAR 0071
ENCODING 113
SWIDTH 462 0
DWIDTH 18 0
BBX 15 26 2 -9
BITMAP
0780
0FEE
3FFE
3C7E
701E
701E
E00E
E00E
E00E
E00E
E00E
E00E
E00E
701E
783E
3EFE
1FFE
0FEE
000E
000E
000E
000E
000E
000E
000E
0006
ENDCHAR
STARTCHAR 0072
ENCODING 114
SWIDTH 334 0
DWIDTH 13 0
BBX 9 18 2 0
BITMAP
0380
EF80
FF80
FC00
F800
F000
E000
E000
E000
E000
E000
E000
E000
E000
E000
E000
E000
E000
ENDCHAR
STARTCHAR 0073
ENCODING 115
SWIDTH 385 0
DWIDTH 15 0
BBX 11 18 2 0
BITMAP
0F00
3F80
7FC0
71E0
E0E0
E000
7800
7C00
1F80
07C0
01E0
00E0
00E0
E0E0
E0E0
7BE0
7FC0
1F80
ENDCHAR
STARTCHAR 0074
ENCODING 116
SWIDTH 334 0
DWIDTH 13 0
BBX 9 22 2 0
BITMAP
0400
0C00
1C00
1C00
1C00
FF80
FF80
1C00
1C00
1C00
1C00
1C00
1C00
1C00
1C00
1C00
1C00
1C00
1C00
1F80
0F80
0F80
ENDCHAR
STARTCHAR 0075
ENCODING 117
SWIDTH 462 0
DWIDTH 18 0
BBX 15 17 2 0
BITMAP
E00E
E00E
E00E
E00E
E00E
E00E
E00E
E00E
E00E
E00E
E00E
E01E
701E
703E
3FFE
3FFE
1FCE
ENDCHAR
STARTCHAR 0076
ENCODING 118
SWIDTH 488 0
DWIDTH 19 0
BBX 15 17 2 0
BITMAP
E00E
700E
700E
701C
381C
3838
3838
1C38
1C70
0E70
0E70
0EE0
07E0
07E0
07C0
03C0
0380
ENDCHAR
STARTCHAR 0077
ENCODING 119
SWIDTH 642 0
DWIDTH 25 0
BBX 21 17 2 0
BITMAP
E07838
E07838
70F838
70F838
70FC70
30FC70
39DC70
39DC60
39CEE0
1DCEE0
1F8EE0
1F8FC0
1F87C0
0F07C0
0F07C0
0F0380
0F0380
ENDCHAR
STARTCHAR 0078
ENCODING 120
SWIDTH 488 0
DWIDTH 19 0
BBX 15 17 2 0
BITMAP
F01E
781C
383C
1C78
1E70
0FE0
07E0
07C0
03C0
07C0
0FE0
0EF0
1E70
3C38
383C
701E
F00E
ENDCHAR
STARTCHAR 0079
ENCODING 121
SWIDTH 488 0
DWIDTH 19 0
BBX 15 25 2 -8
BITMAP
E00E
700E
700E
701C
381C
3838
3838
1C38
1C70
0E70
0E70
0EE0
07E0
07E0
07C0
03C0
0380
0380
0380
0700
0700
0F00
3E00
7C00
7800
ENDCHAR
STARTCHAR 007A
ENCODING 122
SWIDTH 385 0
DWIDTH 15 0
BBX 12 17 2 0
BITMAP
FFF0
FFF0
00F0
01E0
01C0
0380
0780
0700
0E00
1E00
3C00
3800
7800
F000
FFF0
FFF0
FFF0
ENDCHAR
STARTCHAR 007B
ENCODING 123
SWIDTH 282 0
DWIDTH 11 0
BBX 8 33 2 -8
BITMAP
07
0F
1E
1C
38
38
38
38
38
38
38
38
38
38
78
F0
F0
F0
38
38
38
38
38
38
38
38
38
38
38
1C
1F
0F
07
ENDCHAR
STARTCHAR 007C
ENCODING 124
SWIDTH 154 0
DWIDTH 6 0
BBX 3 33 2 -8
BITMAP
E0
E0
E0
E0
E0
E0
E0
E0
E0
E0
E0
E0
E0
E0
E0
E0
E0
E0
E0
E0
E0
E0
E0
E0
E0
E0
E0
E0
E0
E0
E0
E0
E0
ENDCHAR
STARTCHAR 007D
ENCODING 125
SWIDTH 282 0
DWIDTH 11 0
BBX 8 33 2 -8
BITMAP
E0
F0
F8
38
38
38
38
38
38
38
38
38
38
38
1C
1F
0F
1F
1C
38
38
38
38
38
38
38
38
38
38
38
F0
F0
C0
ENDCHAR
STARTCHAR 007E
ENCODING 126
SWIDTH 565 0
DWIDTH 22 0
BBX 19 7 2 9
BITMAP
1E0000
3F8000
7FE0E0
F1F1E0
E0FFC0
003F80
000F00
ENDCHAR
STARTCHAR 00A0
ENCODING 160
SWIDTH 231 0
DWIDTH 9 0
BBX 0 0 0 0
BITMAP
ENDCHAR
STARTCHAR 00A1
ENCODING 161
SWIDTH 154 0
DWIDTH 6 0
BBX 4 26 1 -8
BITMAP
60
F0
F0
70
00
00
00
00
70
70
70
70
70
70
70
70
70
70
70
70
70
70
70
70
70
70
ENDCHAR
STARTCHAR 00A2
ENCODING 162
SWIDTH 462 0
DWIDTH 18 0
BBX 14 25 2 -4
BITMAP
0038
0070
0070
07F0
0FF0
3FF8
3CF8
71DC
71D8
E1C0
E380
E380
E700
E700
E700
EE00
7E1C
7E3C
3EF8
1FF0
3FE0
3800
3800
7000
7000
ENDCHAR
STARTCHAR 00A3
ENCODING 163
SWIDTH 488 0
DWIDTH 19 0
BBX 16 25 2 0
BITMAP
03F8
07FC
0FBE
1E0F
1C07
3804
3800
3800
3800
3800
3800
FFE0
FFE0
FFE0
0C00
0E00
0E00
0C00
1C00
1C00
1C00
3800
FFFF
FFFF
FFFF
ENDCHAR
STARTCHAR 00A4
ENCODING 164
SWIDTH 514 0
DWIDTH 20 0
BBX 17 17 2 4
BITMAP
600300
F00780
FFEF00
7FFE00
3FFC00
3C1C00
380E00
380E00
380E00
380E00
380E00
1C1C00
3FFC00
7FFF00
F3EF80
E00780
400300
ENDCHAR
STARTCHAR 00A5
ENCODING 165
SWIDTH 617 0
DWIDTH 24 0
BBX 21 25 2 0
BITMAP
F00078
7000F0
3800E0
3C01C0
1E03C0
0E0380
0F0700
078F00
039E00
01DC00
01FC00
3FFFE0
3FFFE0
3FFFE0
007000
007000
3FFFE0
3FFFE0
3FFFE0
007000
007000
007000
007000
007000
007000
ENDCHAR
STARTCHAR 00A6
ENCODING 166
SWIDTH 154 0
DWIDTH 6 0
BBX 3 33 2 -8
BITMAP
E0
E0
E0
E0
E0
E0
E0
E0
E0
E0
E0
E0
00
00
00
00
00
00
00
00
E0
E0
E0
E0
E0
E0
E0
E0
E0
E0
E0
E0
E0
ENDCHAR
STARTCHAR 00A7
ENCODING 167
SWIDTH 462 0
DWIDTH 18 0
BBX 15 33 2 -8
BITMAP
0FE0
1FF0
3EF8
783C
701C
701C
7000
7000
7800
3C00
7F00
FFC0
E7F0
E0F8
E07C
E01C
F00E
780E
7C0E
1F0E
0FCE
03FC
00FC
003C
001C
001C
701C
701C
701C
3838
3FF8
1FF0
07C0
ENDCHAR
STARTCHAR 00A8
ENCODING 168
SWIDTH 360 0
DWIDTH 14 0
BBX 11 4 2 20
BITMAP
F1C0
F3E0
F3C0
61C0
ENDCHAR
STARTCHAR 00A9
ENCODING 169
SWIDTH 745 0
DWIDTH 29 0
BBX 26 25 2 0
BITMAP
00FFC000
03FFF000
07F3F800
0F007C00
1E001E00
3C000F00
780C0700
703F0380
F07F8380
E0F38380
E0E001C0
E0E001C0
E0E001C0
E0E001C0
E0E101C0
E0F38380
F07F8380
703F0380
781C0700
3C000F00
1E001E00
0F007C00
07F7F800
03FFF000
00FFC000
ENDCHAR
STARTCHAR 00AA
ENCODING 170
SWIDTH 282 0
DWIDTH 11 0
BBX 8 13 2 14
BITMAP
7C
3E
06
3E
7E
E6
66
7E
3E
00
00
FF
FF
ENDCHAR
STARTCHAR 00AB
ENCODING 171
SWIDTH 411 0
DWIDTH 16 0
BBX 12 13 2 2
BITMAP
0230
0460
08C0
19C0
3380
6700
E700
7300
3180
18C0
0C60
0620
0210
ENDCHAR
STARTCHAR 00AC
ENCODING 172
SWIDTH 514 0
DWIDTH 20 0
BBX 17 9 2 5
BITMAP
FFFF80
FFFF80
FFFF80
000380
000380
000380
000380
000380
000380
ENDCHAR
STARTCHAR 00AD
ENCODING 173
SWIDTH 334 0
DWIDTH 13 0
BBX 9 3 2 7
BITMAP
FF80
FF80
FF80
ENDCHAR
STARTCHAR 00AE
ENCODING 174
SWIDTH 745 0
DWIDTH 29 0
BBX 26 25 2 0
BITMAP
00FFC000
03FFF000
07F3F800
0F007C00
1E001E00
3C000F00
78000700
707F0380
F07F8380
E0738380
E07181C0
E07381C0
E07F81C0
E07F01C0
E07F01C0
E0738380
F0738380
7071C380
78000700
3C000F00
1E001E00
0F007C00
07F7F800
03FFF000
00FFC000
ENDCHAR
STARTCHAR 00AF
ENCODING 175
SWIDTH 334 0
DWIDTH 13 0
BBX 9 3 2 20
BITMAP
FF80
FF80
FF80
ENDCHAR
STARTCHAR 00B0
ENCODING 176
SWIDTH 360 0
DWIDTH 14 0
BBX 11 10 2 15
BITMAP
3F00
7F80
FBC0
E1C0
E0E0
E0C0
E1C0
7FC0
7F80
1F00
ENDCHAR
STARTCHAR 00B1
ENCODING 177
SWIDTH 514 0
DWIDTH 20 0
BBX 17 21 2 2
BITMAP
01C000
01C000
01C000
01C000
01C000
01C000
01C000
FFFF80
FFFF80
FFFF80
01C000
01C000
01C000
01C000
01C000
01C000
01C000
000000
000000
FFFF80
FFFF80
ENDCHAR
STARTCHAR 00B2
ENCODING 178
SWIDTH 282 0
DWIDTH 11 0
BBX 7 13 2 17
BITMAP
7C
FE
C6
06
06
0C
1C
70
60
C0
C0
FE
FE
ENDCHAR
STARTCHAR 00B3
ENCODING 179
SWIDTH 282 0
DWIDTH 11 0
BBX 8 13 2 17
BITMAP
7C
FE
C6
06
0E
1C
1E
06
03
43
C6
7E
3C
ENDCHAR
STARTCHAR 00B4
ENCODING 180
SWIDTH 257 0
DWIDTH 10 0
BBX 6 6 2 19
BITMAP
1C
38
30
60
C0
80
ENDCHAR
STARTCHAR 00B5
ENCODING 181
SWIDTH 462 0
DWIDTH 18 0
BBX 15 25 2 -9
BITMAP
E00E
E00E
E00E
E00E
E00E
E00E
E00E
E00E
E00E
E00E
E00E
E01E
F01E
F83E
FFFE
FFFE
EFCE
E000
E000
E000
E000
E000
E000
E000
6000
ENDCHAR
STARTCHAR 00B6
ENCODING 182
SWIDTH 488 0
DWIDTH 19 0
BBX 15 33 2 -8
BITMAP
0FFE
3FFE
7FFE
7FCE
FFCE
FFCE
FFCE
FFCE
FFCE
7FCE
7FCE
3FCE
0FCE
01CE
01CE
01CE
01CE
01CE
01CE
01CE
01CE
01CE
01CE
01CE
01CE
01CE
01CE
01CE
01CE
01CE
01CE
01CE
01CE
ENDCHAR
STARTCHAR 00B7
ENCODING 183
SWIDTH 180 0
DWIDTH 7 0
BBX 4 5 2 10
BITMAP
60
F0
F0
F0
20
ENDCHAR
STARTCHAR 00B8
ENCODING 184
SWIDTH 282 0
DWIDTH 11 0
BBX 8 8 2 -8
BITMAP
30
38
3E
06
03
06
FE
F8
ENDCHAR
STARTCHAR 00B9
ENCODING 185
SWIDTH 257 0
DWIDTH 10 0
BBX 7 13 2 17
BITMAP
30
F0
F0
30
30
30
30
30
30
30
30
FE
FE
ENDCHAR
STARTCHAR 00BA
ENCODING 186
SWIDTH 308 0
DWIDTH 12 0
BBX 9 14 2 13
BITMAP
0800
3E00
7700
6300
E180
C180
6300
6300
3F00
1C00
0000
0000
FF80
FF80
ENDCHAR
STARTCHAR 00BB
ENCODING 187
SWIDTH 411 0
DWIDTH 16 0
BBX 12 13 2 2
BITMAP
C600
6300
3180
19C0
1CE0
0E70
0E70
0C60
18C0
3180
2300
4200
8400
ENDCHAR
STARTCHAR 00BC
ENCODING 188
SWIDTH 462 0
DWIDTH 18 0
BBX 15 31 2 -3
BITMAP
0380
0F80
0F80
0380
0380
0380
0380
0380
0380
0380
0380
0FE0
0FE0
0000
0000
FFFE
0000
0000
00C0
01C0
03C0
03C0
06C0
0EC0
0CC0
18C0
1FF0
1FF0
00C0
00C0
00C0
ENDCHAR
STARTCHAR 00BD
ENCODING 189
SWIDTH 462 0
DWIDTH 18 0
BBX 15 32 2 -4
BITMAP
0300
0F00
0F00
0300
0300
0300
0300
0300
0300
0300
0300
0FE0
0FE0
0000
0000
FFFE
0000
0000
0180
07C0
0EE0
0C60
0060
00E0
00C0
0380
0700
0600
0C00
0C00
0FE0
0FE0
ENDCHAR
STARTCHAR 00BE
ENCODING 190
SWIDTH 462 0
DWIDTH 18 0
BBX 15 32 2 -3
BITMAP
0300
07C0
0EE0
0C60
0060
01E0
01C0
01E0
0060
0060
0C60
0EE0
07C0
0380
0000
0000
FFFE
0000
0000
00C0
01C0
03C0
03C0
06C0
0EC0
0CC0
18C0
1FF0
1FF0
00C0
00C0
00C0
ENDCHAR
STARTCHAR 00BF
ENCODING 191
SWIDTH 437 0
DWIDTH 17 0
BBX 13 26 2 -8
BITMAP
0700
0780
0F80
0700
0000
0000
0000
0700
0700
0700
0E00
0E00
1C00
3C00
7800
7000
F000
E000
E000
E038
E038
E038
7070
7FF0
3FE0
0F80
ENDCHAR
STARTCHAR 00C0
ENCODING 192
SWIDTH 642 0
DWIDTH 25 0
BBX 21 33 2 0
BITMAP
03C000
01C000
00E000
006000
003000
001800
000000
000000
007000
00F800
00F800
00F800
01DC00
01DC00
01DC00
038E00
038E00
038700
070700
070700
0F0380
0FFF80
0FFF80
1FFFC0
1C01C0
1C01C0
3800E0
3800E0
380070
700070
700070
F00038
E00038
ENDCHAR
STARTCHAR 00C1
ENCODING 193
SWIDTH 642 0
DWIDTH 25 0
BBX 21 33 2 0
BITMAP
001E00
001C00
003800
003000
006000
004000
000000
000000
007000
00F800
00F800
00F800
01DC00
01DC00
01DC00
038E00
038E00
038700
070700
070700
0F0380
0FFF80
0FFF80
1FFFC0
1C01C0
1C01C0
3800E0
3800E0
380070
700070
700070
F00038
E00038
ENDCHAR
STARTCHAR 00C2
ENCODING 194
SWIDTH 642 0
DWIDTH 25 0
BBX 21 33 2 0
BITMAP
007000
00F800
00DC00
018C00
010600
020200
000000
000000
007000
00F800
00F800
00F800
01DC00
01DC00
01DC00
038E00
038E00
038700
070700
070700
0F0380
0FFF80
0FFF80
1FFFC0
1C01C0
1C01C0
3800E0
3800E0
380070
700070
700070
F00038
E00038
ENDCHAR
STARTCHAR 00C3
ENCODING 195
SWIDTH 642 0
DWIDTH 25 0
BBX 21 32 2 0
BITMAP
078180
07E180
0C7F80
0C1F00
000400
000000
000000
007000
00F800
00F800
00F800
01DC00
01DC00
01DC00
038E00
038E00
038700
070700
070700
0F0380
0FFF80
0FFF80
1FFFC0
1C01C0
1C01C0
3800E0
3800E0
380070
700070
700070
F00038
E00038
ENDCHAR
STARTCHAR 00C4
ENCODING 196
SWIDTH 642 0
DWIDTH 25 0
BBX 21 32 2 0
BITMAP
038600
078F00
078F00
038E00
000000
000000
000000
007000
00F800
00F800
00F800
01DC00
01DC00
01DC00
038E00
038E00
038700
070700
070700
0F0380
0FFF80
0FFF80
1FFFC0
1C01C0
1C01C0
3800E0
3800E0
380070
700070
700070
F00038
E00038
ENDCHAR
STARTCHAR 00C5
ENCODING 197
SWIDTH 642 0
DWIDTH 25 0
BBX 21 33 2 0
BITMAP
007800
00F800
018C00
018C00
01DC00
00F800
002000
000000
007000
00F800
00F800
00F800
01DC00
01DC00
01DC00
038E00
038E00
038700
070700
070700
0F0380
0FFF80
0FFF80
1FFFC0
1C01C0
1C01C0
3800E0
3800E0
380070
700070
700070
F00038
E00038
ENDCHAR
STARTCHAR 00C6
ENCODING 198
SWIDTH 720 0
DWIDTH 28 0
BBX 25 25 2 0
BITMAP
007FFF80
00FFFF80
00FFFF80
00EE0000
01CE0000
01CE0000
01CE0000
038E0000
038E0000
038E0000
070E0000
07FFFC00
0FFFFC00
0FFFFC00
0E0E0000
1C0E0000
1C0E0000
1C0E0000
380E0000
380E0000
380E0000
700E0000
700FFF80
F00FFF80
E00FFF80
ENDCHAR
STARTCHAR 00C7
ENCODING 199
SWIDTH 591 0
DWIDTH 23 0
BBX 19 33 2 -8
BITMAP
03FC00
07FF00
0FDF80
1E03C0
3C01E0
7800E0
700080
700000
E00000
E00000
E00000
E00000
E00000
E00000
E00000
E00000
E00000
700000
7000C0
3800E0
3C01E0
1E03C0
0FDF80
07FF00
03FC00
006000
007000
00F800
000C00
000C00
000C00
01F800
01F000
ENDCHAR
STARTCHAR 00C8
ENCODING 200
SWIDTH 488 0
DWIDTH 19 0
BBX 16 33 2 0
BITMAP
0E00
0700
0300
0180
0080
0040
0000
0000
FFFF
FFFF
FFFF
E000
E000
E000
E000
E000
E000
E000
E000
FFFC
FFFC
FFFC
E000
E000
E000
E000
E000
E000
E000
E000
FFFF
FFFF
FFFF
ENDCHAR
STARTCHAR 00C9
ENCODING 201
SWIDTH 488 0
DWIDTH 19 0
BBX 16 33 2 0
BITMAP
0070
00E0
01C0
0180
0300
0200
0000
0000
FFFF
FFFF
FFFF
E000
E000
E000
E000
E000
E000
E000
E000
FFFC
FFFC
FFFC
E000
E000
E000
E000
E000
E000
E000
E000
FFFF
FFFF
FFFF
ENDCHAR
STARTCHAR 00CA
ENCODING 202
SWIDTH 488 0
DWIDTH 19 0
BBX 16 33 2 0
BITMAP
03C0
07C0
07E0
0E60
0830
1010
0000
0000
FFFF
FFFF
FFFF
E000
E000
E000
E000
E000
E000
E000
E000
FFFC
FFFC
FFFC
E000
E000
E000
E000
E000
E000
E000
E000
FFFF
FFFF
FFFF
ENDCHAR
STARTCHAR 00CB
ENCODING 203
SWIDTH 488 0
DWIDTH 19 0
BBX 16 32 2 0
BITMAP
1C30
1E78
1E78
1C78
0000
0000
0000
FFFF
FFFF
FFFF
E000
E000
E000
E000
E000
E000
E000
E000
FFFC
FFFC
FFFC
E000
E000
E000
E000
E000
E000
E000
E000
FFFF
FFFF
FFFF
ENDCHAR
STARTCHAR 00CC
ENCODING 204
SWIDTH 308 0
DWIDTH 12 0
BBX 8 33 2 0
BITMAP
E0
70
30
18
08
04
00
00
FF
FF
FF
38
38
38
38
38
38
38
38
38
38
38
38
38
38
38
38
38
38
38
FF
FF
FF
ENDCHAR
STARTCHAR 00CD
ENCODING 205
SWIDTH 308 0
DWIDTH 12 0
BBX 8 33 2 0
BITMAP
07
0E
1C
18
30
20
00
00
FF
FF
FF
38
38
38
38
38
38
38
38
38
38
38
38
38
38
38
38
38
38
38
FF
FF
FF
ENDCHAR
STARTCHAR 00CE
ENCODING 206
SWIDTH 308 0
DWIDTH 12 0
BBX 9 33 1 0
BITMAP
1E00
3E00
3F00
7300
6180
8080
0000
0000
7F80
7F80
7F80
1C00
1C00
1C00
1C00
1C00
1C00
1C00
1C00
1C00
1C00
1C00
1C00
1C00
1C00
1C00
1C00
1C00
1C00
1C00
7F80
7F80
7F80
ENDCHAR
STARTCHAR 00CF
ENCODING 207
SWIDTH 308 0
DWIDTH 12 0
BBX 10 32 1 0
BITMAP
E180
F3C0
F3C0
E3C0
0000
0000
0000
7F80
7F80
7F80
1C00
1C00
1C00
1C00
1C00
1C00
1C00
1C00
1C00
1C00
1C00
1C00
1C00
1C00
1C00
1C00
1C00
1C00
1C00
7F80
7F80
7F80
ENDCHAR
STARTCHAR 00D0
ENCODING 208
SWIDTH 617 0
DWIDTH 24 0
BBX 21 25 2 0
BITMAP
FFFC00
FFFE00
FFFF80
1C07C0
1C01C0
1C00E0
1C0070
1C0070
1C0030
1C0030
1C0038
FFE038
FFE038
FFE038
1C0038
1C0030
1C0030
1C0070
1C0070
1C00E0
1C01C0
1C07C0
FFFF80
FFFE00
FFF800
ENDCHAR
STARTCHAR 00D1
ENCODING 209
SWIDTH 591 0
DWIDTH 23 0
BBX 20 32 2 0
BITMAP
078100
0FE300
18FF00
183E00
000000
000000
000000
E00070
F00070
F80070
F80070
FC0070
FE0070
EE0070
E70070
E78070
E38070
E1C070
E1E070
E0F070
E07070
E07870
E03C70
E01C70
E00E70
E00F70
E00770
E003F0
E003F0
E001F0
E000F0
E000F0
ENDCHAR
STARTCHAR 00D2
ENCODING 210
SWIDTH 617 0
DWIDTH 24 0
BBX 21 33 2 0
BITMAP
03C000
01C000
00E000
006000
003000
001000
000000
000000
03FC00
07FF00
0FDF80
1E03C0
3C01E0
3800E0
7000F0
700070
E00070
E00038
E00038
E00038
E00038
E00038
E00038
E00038
E00070
700070
7000F0
3800E0
3C01E0
1E03C0
0FDF80
07FF00
03FC00
ENDCHAR
STARTCHAR 00D3
ENCODING 211
SWIDTH 617 0
DWIDTH 24 0
BBX 21 33 2 0
BITMAP
001E00
003C00
003800
007000
006000
00C000
000000
000000
03FC00
07FF00
0FDF80
1E03C0
3C01E0
3800E0
7000F0
700070
E00070
E00038
E00038
E00038
E00038
E00038
E00038
E00038
E00070
700070
7000F0
3800E0
3C01E0
1E03C0
0FDF80
07FF00
03FC00
ENDCHAR
STARTCHAR 00D4
ENCODING 212
SWIDTH 617 0
DWIDTH 24 0
BBX 21 33 2 0
BITMAP
00F000
00F800
01D800
018C00
030400
020200
000000
000000
03FC00
07FF00
0FDF80
1E03C0
3C01E0
3800E0
7000F0
700070
E00070
E00038
E00038
E00038
E00038
E00038
E00038
E00038
E00070
700070
7000F0
3800E0
3C01E0
1E03C0
0FDF80
07FF00
03FC00
ENDCHAR
STARTCHAR 00D5
ENCODING 213
SWIDTH 617 0
DWIDTH 24 0
BBX 21 32 2 0
BITMAP
078180
0FE180
0C7F80
0C3F00
000400
000000
000000
03FC00
07FF00
0FDF80
1E03C0
3C01E0
3800E0
7000F0
700070
E00070
E00038
E00038
E00038
E00038
E00038
E00038
E00038
E00070
700070
7000F0
3800E0
3C01E0
1E03C0
0FDF80
07FF00
03FC00
ENDCHAR
STARTCHAR 00D6
ENCODING 214
SWIDTH 617 0
DWIDTH 24 0
BBX 21 32 2 0
BITMAP
030E00
078F00
078F00
078E00
000000
000000
000000
03FC00
07FF00
0FDF80
1E03C0
3C01E0
3800E0
7000F0
700070
E00070
E00038
E00038
E00038
E00038
E00038
E00038
E00038
E00070
700070
7000F0
3800E0
3C01E0
1E03C0
0FDF80
07FF00
03FC00
ENDCHAR
STARTCHAR 00D7
ENCODING 215
SWIDTH 514 0
DWIDTH 20 0
BBX 14 14 3 5
BITMAP
0008
601C
F03C
7878
3CF0
1FE0
0FC0
0780
0FC0
1FE0
3CF0
7878
F03C
6018
ENDCHAR
STARTCHAR 00D8
ENCODING 216
SWIDTH 617 0
DWIDTH 24 0
BBX 21 28 2 -2
BITMAP
000020
000030
03FC70
07FFF0
0FDFE0
1E03C0
3C03E0
3807E0
7007F0
700F70
E01E70
E01C38
E03838
E07838
E07038
E0E038
E1E038
E3C038
E38070
778070
7F00F0
3E00E0
3C01E0
3E03C0
3FDF80
77FF00
F3FC00
E00000
ENDCHAR
STARTCHAR 00D9
ENCODING 217
SWIDTH 565 0
DWIDTH 22 0
BBX 19 33 2 0
BITMAP
078000
038000
01C000
00C000
006000
002000
000000
000000
E000E0
E000E0
E000E0
E000E0
E000E0
E000E0
E000E0
E000E0
E000E0
E000E0
E000E0
E000E0
E000E0
E000E0
E000E0
E000E0
E000E0
E000E0
E000E0
7001C0
7803C0
3C0780
1FBF00
0FFE00
07F800
ENDCHAR
STARTCHAR 00DA
ENCODING 218
SWIDTH 565 0
DWIDTH 22 0
BBX 19 33 2 0
BITMAP
003C00
003800
007000
00E000
00C000
018000
000000
000000
E000E0
E000E0
E000E0
E000E0
E000E0
E000E0
E000E0
E000E0
E000E0
E000E0
E000E0
E000E0
E000E0
E000E0
E000E0
E000E0
E000E0
E000E0
E000E0
7001C0
7803C0
3C0780
1FBF00
0FFE00
07F800
ENDCHAR
STARTCHAR 00DB
ENCODING 219
SWIDTH 565 0
DWIDTH 22 0
BBX 19 33 2 0
BITMAP
01E000
01F000
03B000
031800
060800
040400
000000
000000
E000E0
E000E0
E000E0
E000E0
E000E0
E000E0
E000E0
E000E0
E000E0
E000E0
E000E0
E000E0
E000E0
E000E0
E000E0
E000E0
E000E0
E000E0
E000E0
7001C0
7803C0
3C0780
1FBF00
0FFE00
07F800
ENDCHAR
STARTCHAR 00DC
ENCODING 220
SWIDTH 565 0
DWIDTH 22 0
BBX 19 32 2 0
BITMAP
061C00
0F1E00
0F1E00
071C00
000000
000000
000000
E000E0
E000E0
E000E0
E000E0
E000E0
E000E0
E000E0
E000E0
E000E0
E000E0
E000E0
E000E0
E000E0
E000E0
E000E0
E000E0
E000E0
E000E0
E000E0
7001C0
7803C0
3C0780
1FBF00
0FFE00
07F800
ENDCHAR
STARTCHAR 00DD
ENCODING 221
SWIDTH 617 0
DWIDTH 24 0
BBX 21 33 2 0
BITMAP
001E00
001C00
003800
003000
006000
00C000
000000
000000
F00078
7000F0
3800E0
3C01C0
1E03C0
0E0380
070700
078F00
039E00
01DC00
01FC00
00F800
007000
007000
007000
007000
007000
007000
007000
007000
007000
007000
007000
007000
007000
ENDCHAR
STARTCHAR 00DE
ENCODING 222
SWIDTH 462 0
DWIDTH 18 0
BBX 15 25 2 0
BITMAP
E000
E000
E000
E000
E000
E000
FFE0
FFF8
FFFC
E03C
E01E
E00E
E00E
E00E
E01E
E03C
FFF8
FFF8
FFE0
E000
E000
E000
E000
E000
E000
ENDCHAR
STARTCHAR 00DF
ENCODING 223
SWIDTH 462 0
DWIDTH 18 0
BBX 15 33 2 -9
BITMAP
1FC0
3FE0
7DF0
F078
E038
E038
E018
E038
E038
E078
E1F0
E1F0
E1F8
E03C
E01C
E00E
E00E
E00E
E00E
E00E
E01E
E03C
E6F8
E7F0
EFE0
E000
E000
E000
E000
E000
E000
E000
6000
ENDCHAR
STARTCHAR 00E0
ENCODING 224
SWIDTH 385 0
DWIDTH 15 0
BBX 12 25 2 0
BITMAP
3800
1C00
0C00
0600
0300
0100
0000
0600
3FC0
7FE0
38F0
0070
0070
0070
0670
3FF0
7FF0
F0F0
E070
E070
E070
E0F0
7FF0
7FF0
1FF0
ENDCHAR
STARTCHAR 00E1
ENCODING 225
SWIDTH 385 0
DWIDTH 15 0
BBX 12 25 2 0
BITMAP
03C0
0380
0700
0600
0C00
0800
0000
0600
3FC0
7FE0
38F0
0070
0070
0070
0670
3FF0
7FF0
F0F0
E070
E070
E070
E0F0
7FF0
7FF0
1FF0
ENDCHAR
STARTCHAR 00E2
ENCODING 226
SWIDTH 385 0
DWIDTH 15 0
BBX 12 25 2 0
BITMAP
0F00
1F80
1980
30C0
2040
4020
0000
0600
3FC0
7FE0
38F0
0070
0070
0070
0670
3FF0
7FF0
F0F0
E070
E070
E070
E0F0
7FF0
7FF0
1FF0
ENDCHAR
STARTCHAR 00E3
ENCODING 227
SWIDTH 385 0
DWIDTH 15 0
BBX 13 25 2 0
BITMAP
1000
7C18
FF18
C3F0
C1F0
0000
0000
0600
3FC0
7FE0
38F0
0070
0070
0070
0670
3FF0
7FF0
F0F0
E070
E070
E070
E0F0
7FF0
7FF0
1FF0
ENDCHAR
STARTCHAR 00E4
ENCODING 228
SWIDTH 385 0
DWIDTH 15 0
BBX 12 24 2 0
BITMAP
71E0
79E0
79E0
30C0
0000
0000
0600
3FC0
7FE0
38F0
0070
0070
0070
0670
3FF0
7FF0
F0F0
E070
E070
E070
E0F0
7FF0
7FF0
1FF0
ENDCHAR
STARTCHAR 00E5
ENCODING 229
SWIDTH 385 0
DWIDTH 15 0
BBX 12 26 2 0
BITMAP
0200
0F80
1D80
18C0
18C0
1F80
0F00
0000
0600
3FC0
7FE0
38F0
0070
0070
0070
0670
3FF0
7FF0
F0F0
E070
E070
E070
E0F0
7FF0
7FF0
1FF0
ENDCHAR
STARTCHAR 00E6
ENCODING 230
SWIDTH 720 0
DWIDTH 28 0
BBX 24 18 2 0
BITMAP
0603E0
3FC7F8
7FFFFC
38FE3E
007C0E
00780F
007007
067FFF
3FFFFF
7FFFFF
F0F000
E07000
E07804
E0780E
E0FC1E
7FFF7C
7FCFF8
1F87F0
ENDCHAR
STARTCHAR 00E7
ENCODING 231
SWIDTH 462 0
DWIDTH 18 0
BBX 14 26 2 -8
BITMAP
07C0
0FF0
3FF8
3C78
701C
7018
E000
E000
E000
E000
E000
E000
E000
701C
783C
3EF8
1FF0
0FE0
0300
0380
03E0
0060
0030
0060
0FE0
0F80
ENDCHAR
STARTCHAR 00E8
ENCODING 232
SWIDTH 462 0
DWIDTH 18 0
BBX 15 25 2 0
BITMAP
0E00
0700
0300
0180
0080
0040
0000
07C0
0FF0
3FF8
3C78
701C
701C
E00E
FFFE
FFFE
FFFE
E000
E000
E000
701C
783C
3EF8
1FF0
0FE0
ENDCHAR
STARTCHAR 00E9
ENCODING 233
SWIDTH 462 0
DWIDTH 18 0
BBX 15 25 2 0
BITMAP
00E0
01C0
0180
0300
0200
0400
0000
07C0
0FF0
3FF8
3C78
701C
701C
E00E
FFFE
FFFE
FFFE
E000
E000
E000
701C
783C
3EF8
1FF0
0FE0
ENDCHAR
STARTCHAR 00EA
ENCODING 234
SWIDTH 462 0
DWIDTH 18 0
BBX 15 25 2 0
BITMAP
07C0
07C0
0EE0
0C60
1830
1010
0000
07C0
0FF0
3FF8
3C78
701C
701C
E00E
FFFE
FFFE
FFFE
E000
E000
E000
701C
783C
3EF8
1FF0
0FE0
ENDCHAR
STARTCHAR 00EB
ENCODING 235
SWIDTH 462 0
DWIDTH 18 0
BBX 15 24 2 0
BITMAP
1C70
3C78
3C78
1830
0000
0000
07C0
0FF0
3FF8
3C78
701C
701C
E00E
FFFE
FFFE
FFFE
E000
E000
E000
701C
783C
3EF8
1FF0
0FE0
ENDCHAR
STARTCHAR 00EC
ENCODING 236
SWIDTH 154 0
DWIDTH 6 0
BBX 6 25 -1 0
BITMAP
F0
70
18
08
04
00
00
00
1C
1C
1C
1C
1C
1C
1C
1C
1C
1C
1C
1C
1C
1C
1C
1C
1C
ENDCHAR
STARTCHAR 00ED
ENCODING 237
SWIDTH 154 0
DWIDTH 6 0
BBX 6 25 1 0
BITMAP
1C
38
30
60
40
80
00
00
70
70
70
70
70
70
70
70
70
70
70
70
70
70
70
70
70
ENDCHAR
STARTCHAR 00EE
ENCODING 238
SWIDTH 154 0
DWIDTH 6 0
BBX 9 25 -1 0
BITMAP
3C00
3E00
7700
6300
C180
8080
0000
0000
1C00
1C00
1C00
1C00
1C00
1C00
1C00
1C00
1C00
1C00
1C00
1C00
1C00
1C00
1C00
1C00
1C00
ENDCHAR
STARTCHAR 00EF
ENCODING 239
SWIDTH 154 0
DWIDTH 6 0
BBX 11 24 -2 0
BITMAP
F1C0
F3E0
F1E0
61C0
0000
0000
0000
0E00
0E00
0E00
0E00
0E00
0E00
0E00
0E00
0E00
0E00
0E00
0E00
0E00
0E00
0E00
0E00
0E00
ENDCHAR
STARTCHAR 00F0
ENCODING 240
SWIDTH 488 0
DWIDTH 19 0
BBX 16 25 2 0
BITMAP
0FE3
0FFF
06FF
00FC
01FC
00EE
008E
07CE
0FF7
3FFF
3C7F
701F
701F
E00F
E00F
E00F
E00F
E00E
E00E
E00E
701C
783C
3EF8
1FF0
0FE0
ENDCHAR
STARTCHAR 00F1
ENCODING 241
SWIDTH 462 0
DWIDTH 18 0
BBX 15 25 2 0
BITMAP
0800
3E0C
7F8C
61F8
60F8
0000
0000
03C0
EFF0
FFF8
FC3C
F81C
F00E
E00E
E00E
E00E
E00E
E00E
E00E
E00E
E00E
E00E
E00E
E00E
E00E
ENDCHAR
STARTCHAR 00F2
ENCODING 242
SWIDTH 462 0
DWIDTH 18 0
BBX 15 25 2 0
BITMAP
0E00
0700
0300
0180
0080
0040
0000
07C0
0FF0
3FF8
3C78
701C
701C
E00E
E00E
E00E
E00E
E00E
E00E
E00E
701C
783C
3EF8
1FF0
0FE0
ENDCHAR
STARTCHAR 00F3
ENCODING 243
SWIDTH 462 0
DWIDTH 18 0
BBX 15 25 2 0
BITMAP
00E0
01C0
0180
0300
0200
0400
0000
07C0
0FF0
3FF8
3C78
701C
701C
E00E
E00E
E00E
E00E
E00E
E00E
E00E
701C
783C
3EF8
1FF0
0FE0
ENDCHAR
STARTCHAR 00F4
ENCODING 244
SWIDTH 462 0
DWIDTH 18 0
BBX 15 25 2 0
BITMAP
07C0
07C0
0EE0
0C60
1830
1010
0000
07C0
0FF0
3FF8
3C78
701C
701C
E00E
E00E
E00E
E00E
E00E
E00E
E00E
701C
783C
3EF8
1FF0
0FE0
ENDCHAR
STARTCHAR 00F5
ENCODING 245
SWIDTH 462 0
DWIDTH 18 0
BBX 15 25 2 0
BITMAP
0800
3E0C
7F8C
61F8
60F8
0000
0000
07C0
0FF0
3FF8
3C78
701C
701C
E00E
E00E
E00E
E00E
E00E
E00E
E00E
701C
783C
3EF8
1FF0
0FE0
ENDCHAR
STARTCHAR 00F6
ENCODING 246
SWIDTH 462 0
DWIDTH 18 0
BBX 15 24 2 0
BITMAP
1C70
3C78
3C78
1830
0000
0000
07C0
0FF0
3FF8
3C78
701C
701C
E00E
E00E
E00E
E00E
E00E
E00E
E00E
701C
783C
3EF8
1FF0
0FE0
ENDCHAR
STARTCHAR 00F7
ENCODING 247
SWIDTH 514 0
DWIDTH 20 0
BBX 17 15 2 5
BITMAP
01C000
01E000
01E000
00C000
000000
000000
FFFF80
FFFF80
FFFF80
000000
000000
01C000
01E000
01E000
01C000
ENDCHAR
STARTCHAR 00F8
ENCODING 248
SWIDTH 462 0
DWIDTH 18 0
BBX 16 22 1 -2
BITMAP
0002
0003
03E7
07FF
1FFE
1E3C
383E
387E
7077
70E7
71E7
71C7
7387
7787
7F07
3E0E
3E1E
3F7C
3FF8
77F0
F000
6000
ENDCHAR
STARTCHAR 00F9
ENCODING 249
SWIDTH 462 0
DWIDTH 18 0
BBX 15 25 2 0
BITMAP
0E00
0700
0300
0180
0080
0040
0000
0000
E00E
E00E
E00E
E00E
E00E
E00E
E00E
E00E
E00E
E00E
E00E
E01E
701E
703E
3FFE
3FFE
1FCE
ENDCHAR
STARTCHAR 00FA
ENCODING 250
SWIDTH 462 0
DWIDTH 18 0
BBX 15 25 2 0
BITMAP
00E0
01C0
0180
0300
0200
0400
0000
0000
E00E
E00E
E00E
E00E
E00E
E00E
E00E
E00E
E00E
E00E
E00E
E01E
701E
703E
3FFE
3FFE
1FCE
ENDCHAR
STARTCHAR 00FB
ENCODING 251
SWIDTH 462 0
DWIDTH 18 0
BBX 15 25 2 0
BITMAP
07C0
07C0
0EE0
0C60
1830
1010
0000
0000
E00E
E00E
E00E
E00E
E00E
E00E
E00E
E00E
E00E
E00E
E00E
E01E
701E
703E
3FFE
3FFE
1FCE
ENDCHAR
STARTCHAR 00FC
ENCODING 252
SWIDTH 462 0
DWIDTH 18 0
BBX 15 24 2 0
BITMAP
1C70
3C78
3C78
1830
0000
0000
0000
E00E
E00E
E00E
E00E
E00E
E00E
E00E
E00E
E00E
E00E
E00E
E01E
701E
703E
3FFE
3FFE
1FCE
ENDCHAR
STARTCHAR 00FD
ENCODING 253
SWIDTH 488 0
DWIDTH 19 0
BBX 15 33 2 -8
BITMAP
00F0
00E0
01C0
0180
0300
0200
0000
0000
E00E
700E
700E
701C
381C
3838
3838
1C38
1C70
0E70
0E70
0EE0
07E0
07E0
07C0
03C0
0380
0380
0380
0700
0700
0F00
3E00
7C00
7800
ENDCHAR
STARTCHAR 00FE
ENCODING 254
SWIDTH 462 0
DWIDTH 18 0
BBX 15 33 2 -9
BITMAP
E000
E000
E000
E000
E000
E000
E000
E7C0
FFF0
FFF8
FC78
F01C
F01C
E00E
E00E
E00E
E00E
E00E
E00E
E00E
F01C
F83C
FEF8
FFF0
EFE0
E000
E000
E000
E000
E000
E000
E000
6000
ENDCHAR
STARTCHAR 00FF
ENCODING 255
SWIDTH 488 0
DWIDTH 19 0
BBX 15 32 2 -8
BITMAP
1C38
1E78
1E78
0C30
0000
0000
0000
E00E
700E
700E
701C
381C
3838
3838
1C38
1C70
0E70
0E70
0EE0
07E0
07E0
07C0
03C0
0380
0380
0380
0700
0700
0F00
3E00
7C00
7800
ENDCHAR
STARTCHAR 0100
ENCODING 256
SWIDTH 642 0
DWIDTH 25 0
BBX 21 31 2 0
BITMAP
03FE00
03FE00
03FE00
000000
000000
000000
007000
00F800
00F800
00F800
01DC00
01DC00
01DC00
038E00
038E00
038700
070700
070700
0F0380
0FFF80
0FFF80
1FFFC0
1C01C0
1C01C0
3800E0
3800E0
380070
700070
700070
F00038
E00038
ENDCHAR
STARTCHAR 0101
ENCODING 257
SWIDTH 385 0
DWIDTH 15 0
BBX 12 23 2 0
BITMAP
3FE0
3FE0
3FE0
0000
0000
0600
3FC0
7FE0
38F0
0070
0070
0070
0670
3FF0
7FF0
F0F0
E070
E070
E070
E0F0
7FF0
7FF0
1FF0
ENDCHAR
STARTCHAR 0102
ENCODING 258
SWIDTH 642 0
DWIDTH 25 0
BBX 21 33 2 0
BITMAP
070300
070700
030600
03FE00
01FC00
002000
000000
000000
007000
00F800
00F800
00F800
01DC00
01DC00
01DC00
038E00
038E00
038700
070700
070700
0F0380
0FFF80
0FFF80
1FFFC0
1C01C0
1C01C0
3800E0
3800E0
380070
700070
700070
F00038
E00038
ENDCHAR
STARTCHAR 0103
ENCODING 259
SWIDTH 385 0
DWIDTH 15 0
BBX 12 25 2 0
BITMAP
6060
6060
70E0
3FC0
1F80
0000
0000
0600
3FC0
7FE0
38F0
0070
0070
0070
0670
3FF0
7FF0
F0F0
E070
E070
E070
E0F0
7FF0
7FF0
1FF0
ENDCHAR
STARTCHAR 0104
ENCODING 260
SWIDTH 642 0
DWIDTH 25 0
BBX 25 32 2 -7
BITMAP
00700000
00F80000
00F80000
00F80000
01DC0000
01DC0000
01DC0000
038E0000
038E0000
03870000
07070000
07070000
0F038000
0FFF8000
0FFF8000
1FFFC000
1C01C000
1C01C000
3800E000
3800E000
38007000
70007000
70007000
F0003800
E0003800
00006000
00006000
00006000
00007000
00007800
00003F80
00001E00
ENDCHAR
STARTCHAR 0105
ENCODING 261
SWIDTH 385 0
DWIDTH 15 0
BBX 16 25 2 -7
BITMAP
0600
3FC0
7FE0
38F0
0070
0070
0070
0670
3FF0
7FF0
F0F0
E070
E070
E070
E0F0
7FF0
7FF0
1FF0
0040
00C0
00C0
00E0
0070
007F
003E
ENDCHAR
STARTCHAR 0106
ENCODING 262
SWIDTH 591 0
DWIDTH 23 0
BBX 19 33 2 0
BITMAP
003C00
003800
007000
006000
00C000
008000
000000
000000
03FC00
07FF00
0FDF80
1E03C0
3C01E0
7800E0
700080
700000
E00000
E00000
E00000
E00000
E00000
E00000
E00000
E00000
E00000
700000
7000C0
3800E0
3C01E0
1E03C0
0FDF80
07FF00
03FC00
ENDCHAR
STARTCHAR 0107
ENCODING 263
SWIDTH 462 0
DWIDTH 18 0
BBX 14 25 2 0
BITMAP
01E0
01C0
0380
0300
0600
0400
0000
07C0
0FF0
3FF8
3C78
701C
7018
E000
E000
E000
E000
E000
E000
E000
701C
783C
3EF8
1FF0
0FE0
ENDCHAR
STARTCHAR 0108
ENCODING 264
SWIDTH 591 0
DWIDTH 23 0
BBX 19 33 2 0
BITMAP
00E000
01F000
01B000
031800
060800
040400
000000
000000
03FC00
07FF00
0FDF80
1E03C0
3C01E0
7800E0
700080
700000
E00000
E00000
E00000
E00000
E00000
E00000
E00000
E00000
E00000
700000
7000C0
3800E0
3C01E0
1E03C0
0FDF80
07FF00
03FC00
ENDCHAR
STARTCHAR 0109
ENCODING 265
SWIDTH 462 0
DWIDTH 18 0
BBX 14 25 2 0
BITMAP
0780
0FC0
0CC0
1860
1020
2010
0000
07C0
0FF0
3FF8
3C78
701C
7018
E000
E000
E000
E000
E000
E000
E000
701C
783C
3EF8
1FF0
0FE0
ENDCHAR
STARTCHAR 010A
ENCODING 266
SWIDTH 591 0
DWIDTH 23 0
BBX 19 32 2 0
BITMAP
00E000
00E000
01F000
00E000
000000
000000
000000
03FC00
07FF00
0FDF80
1E03C0
3C01E0
7800E0
700080
700000
E00000
E00000
E00000
E00000
E00000
E00000
E00000
E00000
E00000
700000
7000C0
3800E0
3C01E0
1E03C0
0FDF80
07FF00
03FC00
ENDCHAR
STARTCHAR 010B
ENCODING 267
SWIDTH 462 0
DWIDTH 18 0
BBX 14 24 2 0
BITMAP
0780
0780
0780
0300
0000
0000
07C0
0FF0
3FF8
3C78
701C
7018
E000
E000
E000
E000
E000
E000
E000
701C
783C
3EF8
1FF0
0FE0
ENDCHAR
STARTCHAR 010C
ENCODING 268
SWIDTH 591 0
DWIDTH 23 0
BBX 19 33 2 0
BITMAP
040400
060C00
031800
03B800
01F000
01F000
000000
000000
03FC00
07FF00
0FDF80
1E03C0
3C01E0
7800E0
700080
700000
E00000
E00000
E00000
E00000
E00000
E00000
E00000
E00000
E00000
700000
7000C0
3800E0
3C01E0
1E03C0
0FDF80
07FF00
03FC00
ENDCHAR
STARTCHAR 010D
ENCODING 269
SWIDTH 462 0
DWIDTH 18 0
BBX 14 25 2 0
BITMAP
1030
1860
0CE0
0FC0
0780
0780
0000
07C0
0FF0
3FF8
3C78
701C
7018
E000
E000
E000
E000
E000
E000
E000
701C
783C
3EF8
1FF0
0FE0
ENDCHAR
STARTCHAR 010E
ENCODING 270
SWIDTH 617 0
DWIDTH 24 0
BBX 21 33 2 0
BITMAP
020200
030600
018C00
01DC00
00F800
00F000
000000
000000
FFFC00
FFFE00
FFFF80
1C07C0
1C03C0
1C01E0
1C00F0
1C0070
1C0070
1C0030
1C0038
1C0038
1C0038
1C0038
1C0038
1C0030
1C0070
1C0070
1C00F0
1C01E0
1C03C0
1C07C0
FFFF80
FFFE00
FFF800
ENDCHAR
STARTCHAR 010F
ENCODING 271
SWIDTH 642 0
DWIDTH 25 0
BBX 22 25 2 0
BITMAP
000E78
000EF8
000E7C
000E7C
000E0C
000E08
000E18
078E10
0FEE60
3FFE80
3C7E00
701E00
701E00
E00E00
E00E00
E00E00
E00E00
E00E00
E00E00
E00E00
701E00
783E00
3EFE00
1FFE00
0FEE00
ENDCHAR
STARTCHAR 0110
ENCODING 272
SWIDTH 617 0
DWIDTH 24 0
BBX 21 25 2 0
BITMAP
FFFC00
FFFE00
FFFF80
1C07C0
1C01C0
1C00E0
1C0070
1C0070
1C0030
1C0030
1C0038
FFE038
FFE038
FFE038
1C0038
1C0030
1C0030
1C0070
1C0070
1C00E0
1C01C0
1C07C0
FFFF80
FFFE00
FFF800
ENDCHAR
STARTCHAR 0111
ENCODING 273
SWIDTH 462 0
DWIDTH 18 0
BBX 18 25 2 0
BITMAP
000E00
000E00
000E00
00FFC0
00FFC0
00FFC0
000E00
078E00
0FEE00
3FFE00
3C7E00
701E00
701E00
E00E00
E00E00
E00E00
E00E00
E00E00
E00E00
E00E00
701E00
783E00
3EFE00
1FFE00
0FEE00
ENDCHAR
STARTCHAR 0112
ENCODING 274
SWIDTH 488 0
DWIDTH 19 0
BBX 16 31 2 0
BITMAP
1FF8
1FF8
1FF8
0000
0000
0000
FFFF
FFFF
FFFF
E000
E000
E000
E000
E000
E000
E000
E000
FFFC
FFFC
FFFC
E000
E000
E000
E000
E000
E000
E000
E000
FFFF
FFFF
FFFF
ENDCHAR
STARTCHAR 0113
ENCODING 275
SWIDTH 462 0
DWIDTH 18 0
BBX 15 23 2 0
BITMAP
1FF0
1FF0
1FF0
0000
0000
07C0
0FF0
3FF8
3C78
701C
701C
E00E
FFFE
FFFE
FFFE
E000
E000
E000
701C
783C
3EF8
1FF0
0FE0
ENDCHAR
STARTCHAR 0114
ENCODING 276
SWIDTH 488 0
DWIDTH 19 0
BBX 16 33 2 0
BITMAP
1818
1818
1C38
0FF0
07E0
0380
0000
0000
FFFF
FFFF
FFFF
E000
E000
E000
E000
E000
E000
E000
E000
FFFC
FFFC
FFFC
E000
E000
E000
E000
E000
E000
E000
E000
FFFF
FFFF
FFFF
ENDCHAR
STARTCHAR 0115
ENCODING 277
SWIDTH 462 0
DWIDTH 18 0
BBX 15 25 2 0
BITMAP
3038
3838
1C70
0FE0
07C0
0000
0000
07C0
0FF0
3FF8
3C78
701C
701C
E00E
FFFE
FFFE
FFFE
E000
E000
E000
701C
783C
3EF8
1FF0
0FE0
ENDCHAR
STARTCHAR 0116
ENCODING 278
SWIDTH 488 0
DWIDTH 19 0
BBX 16 32 2 0
BITMAP
0180
03C0
03C0
03C0
0000
0000
0000
FFFF
FFFF
FFFF
E000
E000
E000
E000
E000
E000
E000
E000
FFFC
FFFC
FFFC
E000
E000
E000
E000
E000
E000
E000
E000
FFFF
FFFF
FFFF
ENDCHAR
STARTCHAR 0117
ENCODING 279
SWIDTH 462 0
DWIDTH 18 0
BBX 15 24 2 0
BITMAP
0380
07C0
0380
0380
0000
0000
07C0
0FF0
3FF8
3C78
701C
701C
E00E
FFFE
FFFE
FFFE
E000
E000
E000
701C
783C
3EF8
1FF0
0FE0
ENDCHAR
STARTCHAR 0118
ENCODING 280
SWIDTH 488 0
DWIDTH 19 0
BBX 17 32 2 -7
BITMAP
FFFF00
FFFF00
FFFF00
E00000
E00000
E00000
E00000
E00000
E00000
E00000
E00000
FFFC00
FFFC00
FFFC00
E00000
E00000
E00000
E00000
E00000
E00000
E00000
E00000
FFFF00
FFFF00
FFFF00
002000
002000
007000
003000
003C00
001F80
000F00
ENDCHAR
STARTCHAR 0119
ENCODING 281
SWIDTH 462 0
DWIDTH 18 0
BBX 15 25 2 -7
BITMAP
07C0
0FF0
3FF8
3C78
701C
701C
E00E
FFFE
FFFE
FFFE
E000
E000
E000
701C
783C
3EF8
1FF0
0FE0
0100
0300
0380
0380
01C0
01FC
00F8
ENDCHAR
STARTCHAR 011A
ENCODING 282
SWIDTH 488 0
DWIDTH 19 0
BBX 16 33 2 0
BITMAP
1008
0810
0C30
0660
07E0
03C0
0000
0000
FFFF
FFFF
FFFF
E000
E000
E000
E000
E000
E000
E000
E000
FFFC
FFFC
FFFC
E000
E000
E000
E000
E000
E000
E000
E000
FFFF
FFFF
FFFF
ENDCHAR
STARTCHAR 011B
ENCODING 283
SWIDTH 462 0
DWIDTH 18 0
BBX 15 25 2 0
BITMAP
1010
0820
0C60
06C0
07C0
0380
0000
07C0
0FF0
3FF8
3C78
701C
701C
E00E
FFFE
FFFE
FFFE
E000
E000
E000
701C
783C
3EF8
1FF0
0FE0
ENDCHAR
STARTCHAR 011C
ENCODING 284
SWIDTH 591 0
DWIDTH 23 0
BBX 19 33 2 0
BITMAP
00E000
01F000
01B000
031800
060800
040400
000000
000000
03FC00
07FF00
0FDF80
1E03C0
3C01E0
7800E0
700080
700000
E00000
E00000
E00000
E00000
E07FE0
E07FE0
E07FE0
E000E0
E000E0
7000E0
7000E0
3800E0
3C01E0
1E03C0
0FDF80
07FF00
03FC00
ENDCHAR
STARTCHAR 011D
ENCODING 285
SWIDTH 488 0
DWIDTH 19 0
BBX 18 33 2 -8
BITMAP
07C000
07C000
0EE000
0C6000
183000
101000
000000
07C100
1FF3C0
3FFF80
783F00
F01E00
E00E00
E00E00
E00E00
E00E00
701C00
7EFC00
7FF800
7FE000
E00000
F00000
7E0000
3FF000
07FC00
003E00
000E00
E00E00
E00E00
F01E00
7FFC00
3FF800
0FE000
ENDCHAR
STARTCHAR 011E
ENCODING 286
SWIDTH 591 0
DWIDTH 23 0
BBX 19 33 2 0
BITMAP
0C0600
0E0E00
060C00
07FC00
03F800
004000
000000
000000
03FC00
07FF00
0FDF80
1E03C0
3C01E0
7800E0
700080
700000
E00000
E00000
E00000
E00000
E07FE0
E07FE0
E07FE0
E000E0
E000E0
7000E0
7000E0
3800E0
3C01E0
1E03C0
0FDF80
07FF00
03FC00
ENDCHAR
STARTCHAR 011F
ENCODING 287
SWIDTH 488 0
DWIDTH 19 0
BBX 18 33 2 -8
BITMAP
303800
383000
1C7000
1FE000
07C000
000000
000000
07C100
1FF3C0
3FFF80
783F00
F01E00
E00E00
E00E00
E00E00
E00E00
701C00
7EFC00
7FF800
7FE000
E00000
F00000
7E0000
3FF000
07FC00
003E00
000E00
E00E00
E00E00
F01E00
7FFC00
3FF800
0FE000
ENDCHAR
STARTCHAR 0120
ENCODING 288
SWIDTH 591 0
DWIDTH 23 0
BBX 19 32 2 0
BITMAP
00E000
00E000
01F000
00E000
000000
000000
000000
03FC00
07FF00
0FDF80
1E03C0
3C01E0
7800E0
700080
700000
E00000
E00000
E00000
E00000
E07FE0
E07FE0
E07FE0
E000E0
E000E0
7000E0
7000E0
3800E0
3C01E0
1E03C0
0FDF80
07FF00
03FC00
ENDCHAR
STARTCHAR 0121
ENCODING 289
SWIDTH 488 0
DWIDTH 19 0
BBX 18 32 2 -8
BITMAP
038000
078000
078000
038000
000000
000000
07C100
1FF3C0
3FFF80
783F00
F01E00
E00E00
E00E00
E00E00
E00E00
701C00
7EFC00
7FF800
7FE000
E00000
F00000
7E0000
3FF000
07FC00
003E00
000E00
E00E00
E00E00
F01E00
7FFC00
3FF800
0FE000
ENDCHAR
STARTCHAR 0122
ENCODING 290
SWIDTH 591 0
DWIDTH 23 0
BBX 19 33 2 -8
BITMAP
03FC00
07FF00
0FDF80
1E03C0
3C01E0
7800E0
700080
700000
E00000
E00000
E00000
E00000
E07FE0
E07FE0
E07FE0
E000E0
E000E0
7000E0
7000E0
3800E0
3C01E0
1E03C0
0FDF80
07FF00
03FC00
006000
007000
00F800
000C00
000C00
000C00
01F800
01F000
ENDCHAR
STARTCHAR 0123
ENCODING 291
SWIDTH 488 0
DWIDTH 19 0
BBX 18 35 2 -8
BITMAP
07E000
0FE000
0C0000
0C0000
0E0000
078000
018000
018000
000000
07C100
1FF3C0
3FFF80
783F00
F01E00
E00E00
E00E00
E00E00
E00E00
701C00
7EFC00
7FF800
7FE000
E00000
F00000
7E0000
3FF000
07FC00
003E00
000E00
E00E00
E00E00
F01E00
7FFC00
3FF800
0FE000
ENDCHAR
STARTCHAR 0124
ENCODING 292
SWIDTH 488 0
DWIDTH 19 0
BBX 16 33 2 0
BITMAP
03C0
07C0
07E0
0E60
0830
1010
0000
0000
E007
E007
E007
E007
E007
E007
E007
E007
E007
E007
E007
FFFF
FFFF
FFFF
E007
E007
E007
E007
E007
E007
E007
E007
E007
E007
E007
ENDCHAR
STARTCHAR 0125
ENCODING 293
SWIDTH 462 0
DWIDTH 18 0
BBX 15 32 2 0
BITMAP
07C0
06C0
0C60
0820
1010
0000
0000
E000
E000
E000
E000
E000
E000
E000
E3C0
EFF0
FFF8
FC3C
F81C
F00E
E00E
E00E
E00E
E00E
E00E
E00E
E00E
E00E
E00E
E00E
E00E
E00E
ENDCHAR
STARTCHAR 0126
ENCODING 294
SWIDTH 642 0
DWIDTH 25 0
BBX 22 25 2 0
BITMAP
1C00E0
1C00E0
1C00E0
1C00E0
FFFFFC
FFFFFC
FFFFFC
1C00E0
1C00E0
1C00E0
1C00E0
1FFFE0
1FFFE0
1FFFE0
1C00E0
1C00E0
1C00E0
1C00E0
1C00E0
1C00E0
1C00E0
1C00E0
1C00E0
1C00E0
1C00E0
ENDCHAR
STARTCHAR 0127
ENCODING 295
SWIDTH 540 0
DWIDTH 21 0
BBX 18 25 2 0
BITMAP
1C0000
1C0000
1C0000
FFFF00
FFFF00
FFFF00
1C0000
1C7800
1DFE00
1FFF00
1F8F00
1E0380
1E0380
1C01C0
1C01C0
1C01C0
1C01C0
1C01C0
1C01C0
1C01C0
1C01C0
1C01C0
1C01C0
1C01C0
1C01C0
ENDCHAR
STARTCHAR 0128
ENCODING 296
SWIDTH 308 0
DWIDTH 12 0
BBX 13 32 0 0
BITMAP
7818
FE18
CFF0
83F0
0040
0000
0000
3FC0
3FC0
3FC0
0700
0700
0700
0700
0700
0700
0700
0700
0700
0700
0700
0700
0700
0700
0700
0700
0700
0700
0700
3FC0
3FC0
3FC0
ENDCHAR
STARTCHAR 0129
ENCODING 297
SWIDTH 154 0
DWIDTH 6 0
BBX 13 24 -3 1
BITMAP
7C18
FF18
C7F0
81E0
0000
0000
0000
0700
0700
0700
0700
0700
0700
0700
0700
0700
0700
0700
0700
0700
0700
0700
0700
0700
ENDCHAR
STARTCHAR 012A
ENCODING 298
SWIDTH 308 0
DWIDTH 12 0
BBX 10 31 1 0
BITMAP
FFC0
FFC0
FFC0
0000
0000
0000
7F80
7F80
7F80
0E00
0E00
0E00
0E00
0E00
0E00
0E00
0E00
0E00
0E00
0E00
0E00
0E00
0E00
0E00
0E00
0E00
0E00
0E00
7F80
7F80
7F80
ENDCHAR
STARTCHAR 012B
ENCODING 299
SWIDTH 154 0
DWIDTH 6 0
BBX 9 23 -1 0
BITMAP
FF80
FF80
FF80
0000
0000
0000
1C00
1C00
1C00
1C00
1C00
1C00
1C00
1C00
1C00
1C00
1C00
1C00
1C00
1C00
1C00
1C00
1C00
ENDCHAR
STARTCHAR 012C
ENCODING 300
SWIDTH 308 0
DWIDTH 12 0
BBX 10 33 1 0
BITMAP
C0C0
C0C0
E1C0
7F80
3F00
0C00
0000
0000
7F80
7F80
7F80
0E00
0E00
0E00
0E00
0E00
0E00
0E00
0E00
0E00
0E00
0E00
0E00
0E00
0E00
0E00
0E00
0E00
0E00
0E00
7F80
7F80
7F80
ENDCHAR
STARTCHAR 012D
ENCODING 301
SWIDTH 154 0
DWIDTH 6 0
BBX 11 25 -2 0
BITMAP
C0E0
E0C0
71C0
7F80
1F00
0000
0000
0000
0E00
0E00
0E00
0E00
0E00
0E00
0E00
0E00
0E00
0E00
0E00
0E00
0E00
0E00
0E00
0E00
0E00
ENDCHAR
STARTCHAR 012E
ENCODING 302
SWIDTH 308 0
DWIDTH 12 0
BBX 11 32 2 -7
BITMAP
FF00
FF00
FF00
1C00
1C00
1C00
1C00
1C00
1C00
1C00
1C00
1C00
1C00
1C00
1C00
1C00
1C00
1C00
1C00
1C00
1C00
1C00
FF00
FF00
FF00
0800
1800
1800
1C00
1E00
0FE0
0780
ENDCHAR
STARTCHAR 012F
ENCODING 303
SWIDTH 154 0
DWIDTH 6 0
BBX 9 31 1 -7
BITMAP
7000
F000
F000
6000
0000
0000
0000
7000
7000
7000
7000
7000
7000
7000
7000
7000
7000
7000
7000
7000
7000
7000
7000
7000
6000
6000
6000
7000
7800
3F80
1E00
ENDCHAR
STARTCHAR 0130
ENCODING 304
SWIDTH 308 0
DWIDTH 12 0
BBX 8 32 2 0
BITMAP
18
3C
3C
1C
00
00
00
FF
FF
FF
1C
1C
1C
1C
1C
1C
1C
1C
1C
1C
1C
1C
1C
1C
1C
1C
1C
1C
1C
FF
FF
FF
ENDCHAR
STARTCHAR 0131
ENCODING 305
SWIDTH 154 0
DWIDTH 6 0
BBX 3 17 2 0
BITMAP
E0
E0
E0
E0
E0
E0
E0
E0
E0
E0
E0
E0
E0
E0
E0
E0
E0
ENDCHAR
STARTCHAR 0132
ENCODING 306
SWIDTH 617 0
DWIDTH 24 0
BBX 21 25 2 0
BITMAP
FF0038
FF0038
FF0038
1C0038
1C0038
1C0038
1C0038
1C0038
1C0038
1C0038
1C0038
1C0038
1C0038
1C0038
1C0038
1C0038
1C0038
1C0038
1C0038
1C0038
1C3838
1C3878
FF1EF0
FF1FF0
FF0FC0
ENDCHAR
STARTCHAR 0133
ENCODING 307
SWIDTH 334 0
DWIDTH 13 0
BBX 11 32 1 -8
BITMAP
71E0
F1E0
F1E0
60C0
0000
0000
0000
70C0
70C0
70C0
70C0
70C0
70C0
70C0
70C0
70C0
70C0
70C0
70C0
70C0
70C0
70C0
70C0
70C0
00C0
00C0
00C0
01C0
01C0
1FC0
3F80
1E00
ENDCHAR
STARTCHAR 0134
ENCODING 308
SWIDTH 360 0
DWIDTH 14 0
BBX 14 33 2 0
BITMAP
01E0
01E0
03F0
0338
0618
0C0C
0000
0000
00E0
00E0
00E0
00E0
00E0
00E0
00E0
00E0
00E0
00E0
00E0
00E0
00E0
00E0
00E0
00E0
00E0
00E0
00E0
00E0
E0E0
E1C0
FFC0
7F80
3F00
ENDCHAR
STARTCHAR 0135
ENCODING 309
SWIDTH 154 0
DWIDTH 6 0
BBX 12 33 -4 -8
BITMAP
0780
07C0
0CC0
0860
1020
0010
0000
0000
0380
0380
0380
0380
0380
0380
0380
0380
0380
0380
0380
0380
0380
0380
0380
0380
0380
0380
0380
0380
0380
0700
7F00
FE00
7C00
ENDCHAR
STARTCHAR 0136
ENCODING 310
SWIDTH 540 0
DWIDTH 21 0
BBX 17 33 2 -8
BITMAP
E01E00
E01C00
E03800
E07800
E07000
E0E000
E1E000
E3C000
E38000
E78000
EF0000
EF0000
FF0000
FF8000
FBC000
F1C000
F0E000
E0F000
E07800
E03800
E01C00
E01E00
E00E00
E00700
E00780
030000
038000
07E000
006000
006000
006000
0FC000
0F8000
ENDCHAR
STARTCHAR 0137
ENCODING 311
SWIDTH 437 0
DWIDTH 17 0
BBX 13 33 2 -8
BITMAP
E000
E000
E000
E000
E000
E000
E000
E000
E1E0
E3C0
E380
E780
EF00
EE00
FC00
FE00
FE00
FF00
F780
E380
E1C0
E1E0
E0E0
E070
E078
0600
0F00
0F80
01C0
00C0
01C0
3F80
1E00
ENDCHAR
STARTCHAR 0138
ENCODING 312
SWIDTH 437 0
DWIDTH 17 0
BBX 13 17 2 0
BITMAP
E1E0
E3C0
E380
E780
EF00
EE00
FC00
FE00
FE00
FF00
F780
E380
E1C0
E1E0
E0E0
E070
E078
ENDCHAR
STARTCHAR 0139
ENCODING 313
SWIDTH 488 0
DWIDTH 19 0
BBX 16 33 2 0
BITMAP
0070
00E0
01C0
0180
0300
0200
0000
0000
E000
E000
E000
E000
E000
E000
E000
E000
E000
E000
E000
E000
E000
E000
E000
E000
E000
E000
E000
E000
E000
E000
FFFF
FFFF
FFFF
ENDCHAR
STARTCHAR 013A
ENCODING 314
SWIDTH 231 0
DWIDTH 9 0
BBX 6 32 2 0
BITMAP
3C
70
60
C0
80
00
00
E0
E0
E0
E0
E0
E0
E0
E0
E0
E0
E0
E0
E0
E0
E0
E0
E0
E0
E0
E0
E0
E0
FC
FC
7C
ENDCHAR
STARTCHAR 013B
ENCODING 315
SWIDTH 488 0
DWIDTH 19 0
BBX 16 33 2 -8
BITMAP
E000
E000
E000
E000
E000
E000
E000
E000
E000
E000
E000
E000
E000
E000
E000
E000
E000
E000
E000
E000
E000
E000
FFFF
FFFF
FFFF
0180
01C0
03E0
0030
0030
0070
07E0
07C0
ENDCHAR
STARTCHAR 013C
ENCODING 316
SWIDTH 231 0
DWIDTH 9 0
BBX 8 33 1 -8
BITMAP
70
70
70
70
70
70
70
70
70
70
70
70
70
70
70
70
70
70
70
70
70
70
7E
7E
3E
18
3C
3E
07
03
07
FE
78
ENDCHAR
STARTCHAR 013D
ENCODING 317
SWIDTH 488 0
DWIDTH 19 0
BBX 16 25 2 0
BITMAP
E3C0
E7C0
E3E0
E360
E060
E040
E0C0
E080
E300
E400
E000
E000
E000
E000
E000
E000
E000
E000
E000
E000
E000
E000
FFFF
FFFF
FFFF
ENDCHAR
STARTCHAR 013E
ENCODING 318
SWIDTH 231 0
DWIDTH 9 0
BBX 10 25 2 0
BITMAP
E780
EF80
E7C0
E7C0
E0C0
E080
E180
E100
E600
E800
E000
E000
E000
E000
E000
E000
E000
E000
E000
E000
E000
E000
FC00
FC00
7C00
ENDCHAR
STARTCHAR 013F
ENCODING 319
SWIDTH 488 0
DWIDTH 19 0
BBX 16 25 2 0
BITMAP
E000
E000
E000
E000
E000
E000
E000
E000
E000
E000
E080
E1E0
E1E0
E1E0
E080
E000
E000
E000
E000
E000
E000
E000
FFFF
FFFF
FFFF
ENDCHAR
STARTCHAR 0140
ENCODING 320
SWIDTH 334 0
DWIDTH 13 0
BBX 10 25 2 0
BITMAP
E000
E000
E000
E000
E000
E000
E000
E000
E000
E000
E100
E3C0
E3C0
E3C0
E100
E000
E000
E000
E000
E000
E000
E000
FC00
FC00
7C00
ENDCHAR
STARTCHAR 0141
ENCODING 321
SWIDTH 591 0
DWIDTH 23 0
BBX 20 25 2 0
BITMAP
0E0000
0E0000
0E0000
0E0000
0E0000
0E0000
0E0000
0E0000
0E0000
0E4000
0FC000
0FC000
7F8000
FE0000
FE0000
8E0000
0E0000
0E0000
0E0000
0E0000
0E0000
0E0000
0FFFF0
0FFFF0
0FFFF0
ENDCHAR
STARTCHAR 0142
ENCODING 322
SWIDTH 360 0
DWIDTH 14 0
BBX 10 25 2 0
BITMAP
0E00
0E00
0E00
0E00
0E00
0E00
0E00
0E00
0E00
0E40
0FC0
0FC0
7F80
FE00
FE00
8E00
0E00
0E00
0E00
0E00
0E00
0E00
0F80
0F80
0780
ENDCHAR
STARTCHAR 0143
ENCODING 323
SWIDTH 591 0
DWIDTH 23 0
BBX 20 33 2 0
BITMAP
003C00
003800
007000
006000
00C000
008000
000000
000000
E00070
F00070
F80070
F80070
FC0070
FE0070
EE0070
E70070
E78070
E38070
E1C070
E1E070
E0F070
E07070
E07870
E03C70
E01C70
E00E70
E00F70
E00770
E003F0
E003F0
E001F0
E000F0
E000F0
ENDCHAR
STARTCHAR 0144
ENCODING 324
SWIDTH 462 0
DWIDTH 18 0
BBX 15 25 2 0
BITMAP
00E0
01C0
0180
0300
0200
0400
0000
03C0
EFF0
FFF8
FC3C
F81C
F00E
E00E
E00E
E00E
E00E
E00E
E00E
E00E
E00E
E00E
E00E
E00E
E00E
ENDCHAR
STARTCHAR 0145
ENCODING 325
SWIDTH 591 0
DWIDTH 23 0
BBX 20 33 2 -8
BITMAP
E00070
F00070
F80070
F80070
FC0070
FE0070
EE0070
E70070
E78070
E38070
E1C070
E1E070
E0F070
E07070
E07870
E03C70
E01C70
E00E70
E00F70
E00770
E003F0
E003F0
E001F0
E000F0
E000F0
00C000
00F000
00F800
001800
000C00
001800
03F800
03E000
ENDCHAR
STARTCHAR 0146
ENCODING 326
SWIDTH 462 0
DWIDTH 18 0
BBX 15 26 2 -8
BITMAP
03C0
EFF0
FFF8
FC3C
F81C
F00E
E00E
E00E
E00E
E00E
E00E
E00E
E00E
E00E
E00E
E00E
E00E
E00E
0300
0380
03E0
0060
0030
0060
0FE0
0F80
ENDCHAR
STARTCHAR 0147
ENCODING 327
SWIDTH 591 0
DWIDTH 23 0
BBX 20 33 2 0
BITMAP
040200
020400
030800
019800
01F000
00F000
000000
000000
E00070
F00070
F80070
F80070
FC0070
FE0070
EE0070
E70070
E78070
E38070
E1C070
E1E070
E0F070
E07070
E07870
E03C70
E01C70
E00E70
E00F70
E00770
E003F0
E003F0
E001F0
E000F0
E000F0
ENDCHAR
STARTCHAR 0148
ENCODING 328
SWIDTH 462 0
DWIDTH 18 0
BBX 15 25 2 0
BITMAP
1010
0820
0C60
06C0
07C0
0380
0000
03C0
EFF0
FFF8
FC3C
F81C
F00E
E00E
E00E
E00E
E00E
E00E
E00E
E00E
E00E
E00E
E00E
E00E
E00E
ENDCHAR
STARTCHAR 0149
ENCODING 329
SWIDTH 565 0
DWIDTH 22 0
BBX 20 25 1 0
BITMAP
780000
7C0000
7C0000
3C0000
0C0000
0C0000
080000
101E00
277F80
C7FFC0
07E1E0
07C0E0
0780E0
070070
070070
070070
070070
070070
070070
070070
070070
070070
070070
070070
070070
ENDCHAR
STARTCHAR 014A
ENCODING 330
SWIDTH 540 0
DWIDTH 21 0
BBX 18 25 2 0
BITMAP
E3FC00
EFFE00
FFBF00
FE0700
F80380
F80380
F00380
F001C0
E001C0
E001C0
E001C0
E001C0
E001C0
E001C0
E001C0
E001C0
E001C0
E001C0
E001C0
E001C0
E001C0
E001C0
E01780
E03F80
E03F00
ENDCHAR
STARTCHAR 014B
ENCODING 331
SWIDTH 462 0
DWIDTH 18 0
BBX 15 26 2 -8
BITMAP
03C0
EFF0
FFF8
FC3C
F81C
F00E
E00E
E00E
E00E
E00E
E00E
E00E
E00E
E00E
E00E
E00E
E00E
E00E
000E
000E
000E
000E
001E
01FC
03F8
01F0
ENDCHAR
STARTCHAR 014C
ENCODING 332
SWIDTH 617 0
DWIDTH 24 0
BBX 21 31 2 0
BITMAP
03FE00
03FE00
03FE00
000000
000000
000000
03FC00
07FF00
0FDF80
1E03C0
3C01E0
3800E0
7000F0
700070
E00070
E00038
E00038
E00038
E00038
E00038
E00038
E00038
E00070
700070
7000F0
3800E0
3C01E0
1E03C0
0FDF80
07FF00
03FC00
ENDCHAR
STARTCHAR 014D
ENCODING 333
SWIDTH 462 0
DWIDTH 18 0
BBX 15 23 2 0
BITMAP
1FF0
1FF0
1FF0
0000
0000
07C0
0FF0
3FF8
3C78
701C
701C
E00E
E00E
E00E
E00E
E00E
E00E
E00E
701C
783C
3EF8
1FF0
0FE0
ENDCHAR
STARTCHAR 014E
ENCODING 334
SWIDTH 617 0
DWIDTH 24 0
BBX 21 33 2 0
BITMAP
060700
060700
070600
03FE00
01FC00
006000
000000
000000
03FC00
07FF00
0FDF80
1E03C0
3C01E0
3800E0
7000F0
700070
E00070
E00038
E00038
E00038
E00038
E00038
E00038
E00038
E00070
700070
7000F0
3800E0
3C01E0
1E03C0
0FDF80
07FF00
03FC00
ENDCHAR
STARTCHAR 014F
ENCODING 335
SWIDTH 462 0
DWIDTH 18 0
BBX 15 25 2 0
BITMAP
3038
3838
1C70
0FE0
07C0
0000
0000
07C0
0FF0
3FF8
3C78
701C
701C
E00E
E00E
E00E
E00E
E00E
E00E
E00E
701C
783C
3EF8
1FF0
0FE0
ENDCHAR
STARTCHAR 0150
ENCODING 336
SWIDTH 617 0
DWIDTH 24 0
BBX 21 33 2 0
BITMAP
0079C0
00F380
00E300
01C600
010400
020800
000000
000000
03FC00
07FF00
0FDF80
1E03C0
3C01E0
3800E0
7000F0
700070
E00070
E00038
E00038
E00038
E00038
E00038
E00038
E00038
E00070
700070
7000F0
3800E0
3C01E0
1E03C0
0FDF80
07FF00
03FC00
ENDCHAR
STARTCHAR 0151
ENCODING 337
SWIDTH 462 0
DWIDTH 18 0
BBX 15 25 2 0
BITMAP
038E
071C
0618
0C30
0860
1040
0000
07C0
0FF0
3FF8
3C78
701C
701C
E00E
E00E
E00E
E00E
E00E
E00E
E00E
701C
783C
3EF8
1FF0
0FE0
ENDCHAR
STARTCHAR 0152
ENCODING 338
SWIDTH 951 0
DWIDTH 37 0
BBX 34 25 2 0
BITMAP
03FC3FFFC0
07FF3FFFC0
0FDFBFFFC0
1E03F80000
3C01F80000
3800F80000
7000F80000
7000780000
E000780000
E000380000
E000380000
E0003FFF00
E0003FFF00
E0003FFF00
E000380000
E000380000
E000780000
7000780000
7000F80000
3800F80000
3C01F80000
1E03F80000
0FDFBFFFC0
07FF3FFFC0
03FC3FFFC0
ENDCHAR
STARTCHAR 0153
ENCODING 339
SWIDTH 797 0
DWIDTH 31 0
BBX 27 18 2 0
BITMAP
07C03C00
0FF0FF00
3FF9FF80
3C7BC3C0
701F81C0
701F00E0
E00F00E0
E00FFFE0
E00FFFE0
E00FFFE0
E00E0000
E00E0000
E00F0080
701F01C0
783F83C0
3EFBFF80
1FF1FF80
0FE07E00
ENDCHAR
STARTCHAR 0154
ENCODING 340
SWIDTH 514 0
DWIDTH 20 0
BBX 17 33 2 0
BITMAP
00F000
00E000
01C000
018000
030000
020000
000000
000000
FFC000
FFF000
FFF800
E03C00
E01C00
E00E00
E00E00
E00E00
E00E00
E01C00
E03C00
FFF800
FFF000
FFE000
E0E000
E0E000
E07000
E07800
E03800
E01C00
E01C00
E00E00
E00F00
E00700
E00780
ENDCHAR
STARTCHAR 0155
ENCODING 341
SWIDTH 334 0
DWIDTH 13 0
BBX 9 25 2 0
BITMAP
0780
0600
0C00
0800
1000
2000
0000
0380
EF80
FF80
FC00
F800
F000
E000
E000
E000
E000
E000
E000
E000
E000
E000
E000
E000
E000
ENDCHAR
STARTCHAR 0156
ENCODING 342
SWIDTH 462 0
DWIDTH 18 0
BBX 17 33 2 -8
BITMAP
FFC000
FFF000
FFF800
E03C00
E01C00
E00E00
E00E00
E00E00
E00E00
E01C00
E03C00
FFF800
FFF000
FFE000
E0E000
E0E000
E07000
E07800
E03800
E01C00
E01C00
E00E00
E00F00
E00700
E00780
030000
038000
03E000
006000
003000
006000
0FE000
0F8000
ENDCHAR
STARTCHAR 0157
ENCODING 343
SWIDTH 334 0
DWIDTH 13 0
BBX 11 26 0 -8
BITMAP
00E0
3BE0
3FE0
3F00
3E00
3C00
3800
3800
3800
3800
3800
3800
3800
3800
3800
3800
3800
3800
3000
3800
7E00
0600
0600
0600
FC00
F800
ENDCHAR
STARTCHAR 0158
ENCODING 344
SWIDTH 514 0
DWIDTH 20 0
BBX 17 33 2 0
BITMAP
101000
183000
0C6000
0EE000
07C000
07C000
000000
000000
FFC000
FFF000
FFF800
E03C00
E01C00
E00E00
E00E00
E00E00
E00E00
E01C00
E03C00
FFF800
FFF000
FFE000
E0E000
E0E000
E07000
E07800
E03800
E01C00
E01C00
E00E00
E00F00
E00700
E00780
ENDCHAR
STARTCHAR 0159
ENCODING 345
SWIDTH 334 0
DWIDTH 13 0
BBX 9 25 2 0
BITMAP
8080
4180
6300
3700
3E00
1E00
0000
0380
EF80
FF80
FC00
F800
F000
E000
E000
E000
E000
E000
E000
E000
E000
E000
E000
E000
E000
ENDCHAR
STARTCHAR 015A
ENCODING 346
SWIDTH 462 0
DWIDTH 18 0
BBX 15 33 2 0
BITMAP
00F0
00E0
01C0
0180
0300
0200
0000
0000
0FE0
1FF0
3EF8
783C
701C
701C
7000
7000
7800
3C00
1F00
0FC0
07F0
00F8
007C
001C
000E
000E
E00E
E00E
F00E
781C
3EFC
3FF8
0FE0
ENDCHAR
STARTCHAR 015B
ENCODING 347
SWIDTH 385 0
DWIDTH 15 0
BBX 11 25 2 0
BITMAP
03C0
0700
0600
0C00
0800
1000
0000
0F00
3F80
7FC0
71E0
E0E0
E000
7800
7C00
1F80
07C0
01E0
00E0
00E0
E0E0
E0E0
7BE0
7FC0
1F80
ENDCHAR
STARTCHAR 015C
ENCODING 348
SWIDTH 462 0
DWIDTH 18 0
BBX 15 33 2 0
BITMAP
0380
07C0
06C0
0C60
1820
1010
0000
0000
0FE0
1FF0
3EF8
783C
701C
701C
7000
7000
7800
3C00
1F00
0FC0
07F0
00F8
007C
001C
000E
000E
E00E
E00E
F00E
781C
3EFC
3FF8
0FE0
ENDCHAR
STARTCHAR 015D
ENCODING 349
SWIDTH 385 0
DWIDTH 15 0
BBX 11 25 2 0
BITMAP
1F00
1F00
3B80
3180
60C0
4040
0000
0F00
3F80
7FC0
71E0
E0E0
E000
7800
7C00
1F80
07C0
01E0
00E0
00E0
E0E0
E0E0
7BE0
7FC0
1F80
ENDCHAR
STARTCHAR 015E
ENCODING 350
SWIDTH 462 0
DWIDTH 18 0
BBX 15 33 2 -8
BITMAP
0FE0
1FF0
3EF8
783C
701C
701C
7000
7000
7800
3C00
1F00
0FC0
07F0
00F8
007C
001C
000E
000E
E00E
E00E
F00E
781C
3EFC
3FF8
0FE0
0300
0380
07E0
0060
0060
0060
0FC0
0F80
ENDCHAR
STARTCHAR 015F
ENCODING 351
SWIDTH 385 0
DWIDTH 15 0
BBX 11 26 2 -8
BITMAP
0600
3F80
7FC0
71E0
E0E0
E000
7000
7C00
3F80
0FC0
01E0
00E0
00E0
E0E0
E0E0
7BE0
7FC0
1F80
0C00
0E00
1F80
0180
0180
2180
3F00
3E00
ENDCHAR
STARTCHAR 0160
ENCODING 352
SWIDTH 462 0
DWIDTH 18 0
BBX 15 33 2 0
BITMAP
1010
1830
0C60
0EE0
07C0
07C0
0000
0000
0FE0
1FF0
3EF8
783C
701C
701C
7000
7000
7800
3C00
1F00
0FC0
07F0
00F8
007C
001C
000E
000E
E00E
E00E
F00E
781C
3EFC
3FF8
0FE0
ENDCHAR
STARTCHAR 0161
ENCODING 353
SWIDTH 385 0
DWIDTH 15 0
BBX 11 25 2 0
BITMAP
4040
20C0
3180
1B80
1F00
0F00
0000
0F00
3F80
7FC0
71E0
E0E0
E000
7800
7C00
1F80
07C0
01E0
00E0
00E0
E0E0
E0E0
7BE0
7FC0
1F80
ENDCHAR
STARTCHAR 0162
ENCODING 354
SWIDTH 488 0
DWIDTH 19 0
BBX 16 33 2 -8
BITMAP
FFFF
FFFF
FFFF
0380
0380
0380
0380
0380
0380
0380
0380
0380
0380
0380
0380
0380
0380
0380
0380
0380
0380
0380
0380
0380
0380
0180
03C0
03E0
0070
0030
0070
07E0
0780
ENDCHAR
STARTCHAR 0163
ENCODING 355
SWIDTH 334 0
DWIDTH 13 0
BBX 9 29 2 -8
BITMAP
1C00
1C00
1C00
1C00
FF80
FF80
1C00
1C00
1C00
1C00
1C00
1C00
1C00
1C00
1C00
1C00
1C00
1C00
1F80
0F80
0F80
0C00
0E00
1F80
0180
0180
2180
3F00
3E00
ENDCHAR
STARTCHAR 0164
ENCODING 356
SWIDTH 488 0
DWIDTH 19 0
BBX 16 33 2 0
BITMAP
1008
0810
0C30
0660
07E0
03C0
0000
0000
FFFF
FFFF
FFFF
0380
0380
0380
0380
0380
0380
0380
0380
0380
0380
0380
0380
0380
0380
0380
0380
0380
0380
0380
0380
0380
0380
ENDCHAR
STARTCHAR 0165
ENCODING 357
SWIDTH 488 0
DWIDTH 19 0
BBX 15 25 2 0
BITMAP
001C
003E
003E
041A
0C02
1C02
1C06
1C0C
FF98
FFA0
1C00
1C00
1C00
1C00
1C00
1C00
1C00
1C00
1C00
1C00
1C00
1C00
1F80
0F80
0F80
ENDCHAR
STARTCHAR 0166
ENCODING 358
SWIDTH 488 0
DWIDTH 19 0
BBX 16 25 2 0
BITMAP
FFFF
FFFF
FFFF
0380
0380
0380
0380
0380
0380
0380
0380
7FFE
7FFE
7FFE
0380
0380
0380
0380
0380
0380
0380
0380
0380
0380
0380
ENDCHAR
STARTCHAR 0167
ENCODING 359
SWIDTH 334 0
DWIDTH 13 0
BBX 9 21 2 0
BITMAP
1C00
1C00
1C00
1C00
FF80
FF80
1C00
1C00
1C00
1C00
1C00
FF80
FF80
FF80
1C00
1C00
1C00
1C00
1F80
1F80
0F80
ENDCHAR
STARTCHAR 0168
ENCODING 360
SWIDTH 565 0
DWIDTH 22 0
BBX 19 32 2 0
BITMAP
0F0300
1FC300
18FF00
187E00
000800
000000
000000
E000E0
E000E0
E000E0
E000E0
E000E0
E000E0
E000E0
E000E0
E000E0
E000E0
E000E0
E000E0
E000E0
E000E0
E000E0
E000E0
E000E0
E000E0
E000E0
7001C0
7803C0
3C0780
1FBF00
0FFE00
07F800
ENDCHAR
STARTCHAR 0169
ENCODING 361
SWIDTH 462 0
DWIDTH 18 0
BBX 15 25 2 0
BITMAP
0800
3E0C
7F8C
61F8
60F8
0000
0000
0000
E00E
E00E
E00E
E00E
E00E
E00E
E00E
E00E
E00E
E00E
E00E
E01E
701E
703E
3FFE
3FFE
1FCE
ENDCHAR
STARTCHAR 016A
ENCODING 362
SWIDTH 565 0
DWIDTH 22 0
BBX 19 31 2 0
BITMAP
07FC00
07FC00
07FC00
000000
000000
000000
E000E0
E000E0
E000E0
E000E0
E000E0
E000E0
E000E0
E000E0
E000E0
E000E0
E000E0
E000E0
E000E0
E000E0
E000E0
E000E0
E000E0
E000E0
E000E0
7001C0
7803C0
3C0780
1FBF00
0FFE00
07F800
ENDCHAR
STARTCHAR 016B
ENCODING 363
SWIDTH 462 0
DWIDTH 18 0
BBX 15 23 2 0
BITMAP
1FF0
1FF0
1FF0
0000
0000
0000
E00E
E00E
E00E
E00E
E00E
E00E
E00E
E00E
E00E
E00E
E00E
E01E
701E
703E
3FFE
3FFE
1FCE
ENDCHAR
STARTCHAR 016C
ENCODING 364
SWIDTH 565 0
DWIDTH 22 0
BBX 19 33 2 0
BITMAP
0C0E00
0E0E00
060C00
07FC00
03F800
004000
000000
000000
E000E0
E000E0
E000E0
E000E0
E000E0
E000E0
E000E0
E000E0
E000E0
E000E0
E000E0
E000E0
E000E0
E000E0
E000E0
E000E0
E000E0
E000E0
E000E0
7001C0
7803C0
3C0780
1FBF00
0FFE00
07F800
ENDCHAR
STARTCHAR 016D
ENCODING 365
SWIDTH 462 0
DWIDTH 18 0
BBX 15 25 2 0
BITMAP
3038
3838
1C70
0FE0
07C0
0000
0000
0000
E00E
E00E
E00E
E00E
E00E
E00E
E00E
E00E
E00E
E00E
E00E
E01E
701E
703E
3FFE
3FFE
1FCE
ENDCHAR
STARTCHAR 016E
ENCODING 366
SWIDTH 565 0
DWIDTH 22 0
BBX 19 33 2 0
BITMAP
01E000
03F000
031800
031800
03B000
01F000
000000
000000
E000E0
E000E0
E000E0
E000E0
E000E0
E000E0
E000E0
E000E0
E000E0
E000E0
E000E0
E000E0
E000E0
E000E0
E000E0
E000E0
E000E0
E000E0
E000E0
7001C0
7803C0
3C0780
1FBF00
0FFE00
07F800
ENDCHAR
STARTCHAR 016F
ENCODING 367
SWIDTH 462 0
DWIDTH 18 0
BBX 15 26 2 0
BITMAP
0100
07C0
0EE0
0C60
0C60
07C0
0380
0000
0000
E00E
E00E
E00E
E00E
E00E
E00E
E00E
E00E
E00E
E00E
E00E
E01E
701E
703E
3FFE
3FFE
1FCE
ENDCHAR
STARTCHAR 0170
ENCODING 368
SWIDTH 565 0
DWIDTH 22 0
BBX 19 33 2 0
BITMAP
00F380
01E700
01C600
038C00
030800
061000
000000
000000
E000E0
E000E0
E000E0
E000E0
E000E0
E000E0
E000E0
E000E0
E000E0
E000E0
E000E0
E000E0
E000E0
E000E0
E000E0
E000E0
E000E0
E000E0
E000E0
7001C0
7803C0
3C0780
1FBF00
0FFE00
07F800
ENDCHAR
STARTCHAR 0171
ENCODING 369
SWIDTH 462 0
DWIDTH 18 0
BBX 15 25 2 0
BITMAP
038E
071C
0618
0C30
0860
1040
0000
0000
E00E
E00E
E00E
E00E
E00E
E00E
E00E
E00E
E00E
E00E
E00E
E01E
701E
703E
3FFE
3FFE
1FCE
ENDCHAR
STARTCHAR 0172
ENCODING 370
SWIDTH 565 0
DWIDTH 22 0
BBX 19 32 2 -7
BITMAP
E000E0
E000E0
E000E0
E000E0
E000E0
E000E0
E000E0
E000E0
E000E0
E000E0
E000E0
E000E0
E000E0
E000E0
E000E0
E000E0
E000E0
E000E0
E000E0
7001C0
7803C0
3C0780
1FBF00
0FFE00
07F800
004000
00C000
00C000
00E000
007000
007F00
001E00
ENDCHAR
STARTCHAR 0173
ENCODING 371
SWIDTH 462 0
DWIDTH 18 0
BBX 18 24 2 -7
BITMAP
E00E00
E00E00
E00E00
E00E00
E00E00
E00E00
E00E00
E00E00
E00E00
E00E00
E00E00
E01E00
701E00
703E00
3FFE00
3FFE00
1FCE00
001800
001800
001800
001800
001E00
000FC0
000780
ENDCHAR
STARTCHAR 0174
ENCODING 372
SWIDTH 848 0
DWIDTH 33 0
BBX 30 33 2 0
BITMAP
00078000
000F8000
000DC000
0018C000
00106000
00202000
00000000
00000000
E007001C
E0078038
70078038
700F8038
700FC038
700FC070
380FC070
381DC070
381CE0E0
381CE0E0
1C18E0E0
1C38E0E0
1C3871C0
0C3871C0
0E7071C0
0E7031C0
0E703B80
07703B80
07E03B80
07E01F80
07E01F00
03E01F00
03C01F00
03C00E00
03C00E00
ENDCHAR
STARTCHAR 0175
ENCODING 373
SWIDTH 642 0
DWIDTH 25 0
BBX 21 25 2 0
BITMAP
007800
00F800
00CC00
018400
010200
020100
000000
000000
E07838
E07838
70F838
70F838
70FC70
30FC70
39DC70
39DC60
39CEE0
1DCEE0
1F8EE0
1F8FC0
1F87C0
0F07C0
0F07C0
0F0380
0F0380
ENDCHAR
STARTCHAR 0176
ENCODING 374
SWIDTH 617 0
DWIDTH 24 0
BBX 21 33 2 0
BITMAP
00F000
00F800
01D800
018C00
030400
020200
000000
000000
F00078
7000F0
3800E0
3C01C0
1E03C0
0E0380
070700
078F00
039E00
01DC00
01FC00
00F800
007000
007000
007000
007000
007000
007000
007000
007000
007000
007000
007000
007000
007000
ENDCHAR
STARTCHAR 0177
ENCODING 375
SWIDTH 488 0
DWIDTH 19 0
BBX 15 33 2 -8
BITMAP
03C0
07C0
0660
0C20
0810
1008
0000
0000
E00E
700E
700E
701C
381C
3838
3838
1C38
1C70
0E70
0E70
0EE0
07E0
07E0
07C0
03C0
0380
0380
0380
0700
0700
0F00
3E00
7C00
7800
ENDCHAR
STARTCHAR 0178
ENCODING 376
SWIDTH 617 0
DWIDTH 24 0
BBX 21 32 2 0
BITMAP
030E00
078F00
078F00
038E00
000000
000000
000000
F00078
7000F0
3800E0
3C01C0
1E03C0
0E0380
070700
078F00
039E00
01DC00
01FC00
00F800
007000
007000
007000
007000
007000
007000
007000
007000
007000
007000
007000
007000
007000
ENDCHAR
STARTCHAR 0179
ENCODING 377
SWIDTH 514 0
DWIDTH 20 0
BBX 17 33 2 0
BITMAP
007800
007000
00E000
00C000
018000
010000
000000
000000
FFFF80
FFFF80
FFFF80
000700
000F00
000E00
001C00
003C00
007800
007000
00F000
01E000
01C000
038000
078000
070000
0E0000
1E0000
3C0000
380000
780000
F00000
FFFF80
FFFF80
FFFF80
ENDCHAR
STARTCHAR 017A
ENCODING 378
SWIDTH 385 0
DWIDTH 15 0
BBX 12 25 2 0
BITMAP
03C0
0380
0700
0600
0C00
0800
0000
0000
FFF0
FFF0
00F0
01E0
01C0
0380
0780
0700
0E00
1E00
3C00
3800
7800
F000
FFF0
FFF0
FFF0
ENDCHAR
STARTCHAR 017B
ENCODING 379
SWIDTH 514 0
DWIDTH 20 0
BBX 17 32 2 0
BITMAP
01C000
03C000
03E000
01C000
000000
000000
000000
FFFF80
FFFF80
FFFF80
000700
000F00
000E00
001C00
003C00
007800
007000
00F000
01E000
01C000
038000
078000
070000
0E0000
1E0000
3C0000
380000
780000
F00000
FFFF80
FFFF80
FFFF80
ENDCHAR
STARTCHAR 017C
ENCODING 380
SWIDTH 385 0
DWIDTH 15 0
BBX 12 24 2 0
BITMAP
0E00
0F00
0F00
0600
0000
0000
0000
FFF0
FFF0
00F0
01E0
01C0
0380
0780
0700
0E00
1E00
3C00
3800
7800
F000
FFF0
FFF0
FFF0
ENDCHAR
STARTCHAR 017D
ENCODING 381
SWIDTH 514 0
DWIDTH 20 0
BBX 17 33 2 0
BITMAP
080800
0C1800
063000
077000
03E000
03E000
000000
000000
FFFF80
FFFF80
FFFF80
000700
000F00
000E00
001C00
003C00
007800
007000
00F000
01E000
01C000
038000
078000
070000
0E0000
1E0000
3C0000
380000
780000
F00000
FFFF80
FFFF80
FFFF80
ENDCHAR
STARTCHAR 017E
ENCODING 382
SWIDTH 385 0
DWIDTH 15 0
BBX 12 25 2 0
BITMAP
4040
20C0
3180
1B80
1F00
0F00
0000
0000
FFF0
FFF0
00F0
01E0
01C0
0380
0780
0700
0E00
1E00
3C00
3800
7800
F000
FFF0
FFF0
FFF0
ENDCHAR
STARTCHAR 017F
ENCODING 383
SWIDTH 154 0
DWIDTH 6 0
BBX 8 33 2 -9
BITMAP
3F
7F
FA
E0
E0
E0
E0
E0
E0
E0
E0
E0
E0
E0
E0
E0
E0
E0
E0
E0
E0
E0
E0
E0
E0
E0
E0
E0
E0
E0
E0
E0
60
ENDCHAR
STARTCHAR 0180
ENCODING 384
SWIDTH 462 0
DWIDTH 18 0
BBX 18 25 -1 0
BITMAP
1C0000
1C0000
1C0000
FFC000
FFC000
FFC000
1C0000
1CF800
1FFE00
1FFF00
1F8F00
1E0380
1E0380
1C01C0
1C01C0
1C01C0
1C01C0
1C01C0
1C01C0
1C01C0
1E0380
1F0780
1FDF00
1FFE00
1DFC00
ENDCHAR
STARTCHAR 0181
ENCODING 385
SWIDTH 694 0
DWIDTH 27 0
BBX 23 25 2 0
BITMAP
1FFFE0
7FFFF0
7FFFF8
E1C03C
E1C01C
E1C01C
E1C00E
E1C01C
41C01C
01C03C
01FFF8
01FFF0
01FFF8
01C03C
01C01E
01C00E
01C00E
01C006
01C00E
01C00E
01C00E
01C03C
01FFFC
01FFF0
01FFE0
ENDCHAR
STARTCHAR 0182
ENCODING 386
SWIDTH 488 0
DWIDTH 19 0
BBX 16 25 2 0
BITMAP
FFF8
FFF8
FFF8
E000
E000
E000
E000
E000
E000
E000
FFE0
FFF8
FFFC
E03E
E00E
E00F
E007
E007
E007
E007
E00E
E01E
FFFC
FFF8
FFE0
ENDCHAR
STARTCHAR 0183
ENCODING 387
SWIDTH 462 0
DWIDTH 18 0
BBX 15 25 2 0
BITMAP
FFF8
FFF8
FFF8
E000
E000
E000
E000
E7C0
FFF0
FFF8
FC78
F01C
F01C
E00E
E00E
E00E
E00E
E00E
E00E
E00E
F01C
F83C
FEF8
FFF0
EFE0
ENDCHAR
STARTCHAR 0184
ENCODING 388
SWIDTH 668 0
DWIDTH 26 0
BBX 23 25 2 0
BITMAP
038000
078000
0F8000
1F8000
3D8000
798000
F18000
618000
018000
018000
01FF80
01FFE0
01FFF0
018078
01803C
01801C
01800C
01800E
01800E
01801C
01801C
018078
01FFF8
01FFF0
01FFC0
ENDCHAR
STARTCHAR 0185
ENCODING 389
SWIDTH 514 0
DWIDTH 20 0
BBX 16 17 2 0
BITMAP
0F00
1F00
3F00
7F00
F700
6700
07F8
07FC
07FE
070F
0707
0707
0707
070F
07FE
07FC
07F8
ENDCHAR
STARTCHAR 0186
ENCODING 390
SWIDTH 591 0
DWIDTH 23 0
BBX 19 25 2 0
BITMAP
07F800
1FFC00
3F7E00
780F00
F00780
E00380
2001C0
0001C0
0000E0
0000E0
0000E0
0000E0
0000E0
0000E0
0000E0
0000E0
0000E0
0001C0
2001C0
E00380
F00780
780F00
3F7E00
1FFC00
07F800
ENDCHAR
STARTCHAR 0187
ENCODING 391
SWIDTH 591 0
DWIDTH 23 0
BBX 25 32 2 0
BITMAP
00000400
00003F80
00007F00
00007900
0000E000
0000E000
0000E000
03FCE000
07FFE000
0FDFE000
1E03E000
3C01E000
7800E000
70008000
70000000
E0000000
E0000000
E0000000
E0000000
E0000000
E0000000
E0000000
E0000000
E0000000
70000000
7000C000
3800E000
3C01E000
1E03C000
0FDF8000
07FF0000
03FC0000
ENDCHAR
STARTCHAR 0188
ENCODING 392
SWIDTH 462 0
DWIDTH 18 0
BBX 20 25 2 0
BITMAP
0003E0
0007F0
000FE0
000E00
001C00
001C00
001C00
07DC00
0FFC00
3FFC00
3C7C00
701C00
701800
E00000
E00000
E00000
E00000
E00000
E00000
E00000
701C00
783C00
3EF800
1FF000
0FE000
ENDCHAR
STARTCHAR 0189
ENCODING 393
SWIDTH 617 0
DWIDTH 24 0
BBX 21 25 2 0
BITMAP
FFFC00
FFFE00
FFFF80
1C07C0
1C01C0
1C00E0
1C0070
1C0070
1C0030
1C0030
1C0038
FFE038
FFE038
FFE038
1C0038
1C0030
1C0030
1C0070
1C0070
1C00E0
1C01C0
1C07C0
FFFF80
FFFE00
FFF800
ENDCHAR
STARTCHAR 018A
ENCODING 394
SWIDTH 745 0
DWIDTH 29 0
BBX 26 25 2 0
BITMAP
1FFFC000
7FFFF000
7FFFF800
E1C03C00
E1C01E00
E1C00F00
E1C00700
E1C00380
41C00380
01C00380
01C00180
01C00180
01C001C0
01C00180
01C00380
01C00380
01C00380
01C00780
01C00700
01C00F00
01C01E00
01C03C00
07FFF800
07FFF000
07FFC000
ENDCHAR
STARTCHAR 018B
ENCODING 395
SWIDTH 488 0
DWIDTH 19 0
BBX 16 25 2 0
BITMAP
1FFF
1FFF
1FFF
0007
0007
0007
0007
0007
0007
0007
07FF
1FFF
3FFF
7807
7007
E007
E007
E007
E007
E007
F007
7807
3FFF
1FFF
07FF
ENDCHAR
STARTCHAR 018C
ENCODING 396
SWIDTH 462 0
DWIDTH 18 0
BBX 15 25 2 0
BITMAP
3FFE
3FFE
3FFE
000E
000E
000E
000E
078E
0FEE
3FFE
3C7E
701E
701E
E00E
E00E
E00E
E00E
E00E
E00E
E00E
701E
783E
3EFE
1FFE
0FEE
ENDCHAR
STARTCHAR 018D
ENCODING 397
SWIDTH 462 0
DWIDTH 18 0
BBX 15 26 2 -8
BITMAP
07C0
0FF0
3FF8
3C78
701C
701C
E00E
E00E
E00E
E00E
E00E
E00E
700E
781C
3C3C
1EF8
0FF0
07E0
03C0
01E0
00E0
E0E0
71E0
7FC0
3F80
0E00
ENDCHAR
STARTCHAR 018E
ENCODING 398
SWIDTH 488 0
DWIDTH 19 0
BBX 16 25 2 0
BITMAP
FFFF
FFFF
FFFF
0007
0007
0007
0007
0007
0007
0007
0007
3FFF
3FFF
3FFF
0007
0007
0007
0007
0007
0007
0007
0007
FFFF
FFFF
FFFF
ENDCHAR
STARTCHAR 018F
ENCODING 399
SWIDTH 617 0
DWIDTH 24 0
BBX 21 25 2 0
BITMAP
03FC00
07FF00
0FDF80
1E03C0
0C01E0
0000E0
0000F0
000070
000070
000038
000038
FFFFF8
FFFFF8
FFFFF8
E00038
E00038
E00070
700070
7000F0
3800E0
3C01E0
1E03C0
0FDF80
07FF00
03FC00
ENDCHAR
STARTCHAR 0190
ENCODING 400
SWIDTH 462 0
DWIDTH 18 0
BBX 17 25 1 0
BITMAP
07F000
1FFC00
3F7E00
380E00
700700
700700
700000
700000
780000
3C0000
1FC000
0FC000
3FC000
7C0000
700000
E00000
E00000
E00000
E00380
E00380
F00780
780F00
3F7E00
1FFC00
0FF800
ENDCHAR
STARTCHAR 0191
ENCODING 401
SWIDTH 488 0
DWIDTH 19 0
BBX 22 33 -4 -8
BITMAP
03FFFC
03FFFC
03FFFC
038000
038000
038000
038000
038000
038000
038000
038000
03FFF0
03FFF0
03FFF0
038000
038000
038000
038000
038000
038000
038000
038000
038000
038000
038000
038000
038000
038000
038000
070000
7F0000
FE0000
7C0000
ENDCHAR
STARTCHAR 0192
ENCODING 402
SWIDTH 308 0
DWIDTH 12 0
BBX 14 33 0 -8
BITMAP
00FC
03FC
03D8
0780
0700
0700
0700
0700
0700
3FE0
3FE0
3FE0
0700
0700
0700
0700
0700
0700
0700
0700
0700
0700
0700
0700
0700
0700
0700
0700
0700
0F00
FE00
FE00
7800
ENDCHAR
STARTCHAR 0193
ENCODING 403
SWIDTH 591 0
DWIDTH 23 0
BBX 25 32 2 0
BITMAP
00000400
00003F80
00007F00
00007900
0000E000
0000E000
0000E000
03FCE000
07FFE000
0FDFE000
1E03E000
3C01E000
7800E000
70008000
70000000
E0000000
E0000000
E0000000
E0000000
E07FE000
E07FE000
E07FE000
E000E000
E000E000
7000E000
7000E000
3800E000
3C01E000
1E03C000
0FDF8000
07FF0000
03FC0000
ENDCHAR
STARTCHAR 0194
ENCODING 404
SWIDTH 642 0
DWIDTH 25 0
BBX 21 33 2 -8
BITMAP
E00038
F00038
700070
700070
3800F0
3800E0
3800E0
1C01C0
1C01C0
1C01C0
0E0380
0E0380
0F0380
070700
070700
038F00
038E00
038E00
01DC00
01DC00
01DC00
00F800
00F800
00F800
007000
00F800
00F800
00FC00
01DC00
01DC00
01FC00
00F800
007000
ENDCHAR
STARTCHAR 0195
ENCODING 405
SWIDTH 694 0
DWIDTH 27 0
BBX 24 25 2 0
BITMAP
E00000
E00000
E00000
E00000
E00000
E00000
E00000
E3C000
EFF007
FFF807
FC3C07
F81C07
F00E07
E00E07
E00E07
E00E07
E00E07
E00E07
E00E07
E00E07
E00E07
E00F0E
E007FE
E003FC
E001F8
ENDCHAR
STARTCHAR 0196
ENCODING 406
SWIDTH 360 0
DWIDTH 14 0
BBX 11 25 2 0
BITMAP
E000
E000
E000
E000
E000
E000
E000
E000
E000
E000
E000
E000
E000
E000
E000
E000
E000
E000
E000
E000
E0E0
E1C0
FFC0
7F80
3F00
ENDCHAR
STARTCHAR 0197
ENCODING 407
SWIDTH 308 0
DWIDTH 12 0
BBX 8 25 2 0
BITMAP
FF
FF
FF
1C
1C
1C
1C
1C
1C
1C
1C
FF
FF
FF
1C
1C
1C
1C
1C
1C
1C
1C
FF
FF
FF
ENDCHAR
STARTCHAR 0198
ENCODING 408
SWIDTH 540 0
DWIDTH 21 0
BBX 17 32 2 0
BITMAP
0C0000
3F0000
7F0000
F20000
E00000
E00000
E00000
E01E00
E01C00
E03800
E07800
E07000
E0E000
E1E000
E3C000
E38000
E78000
EF0000
EF0000
FF0000
FF8000
FBC000
F1C000
F0E000
E0F000
E07800
E03800
E01C00
E01E00
E00E00
E00700
E00780
ENDCHAR
STARTCHAR 0199
ENCODING 409
SWIDTH 437 0
DWIDTH 17 0
BBX 13 32 2 0
BITMAP
0C00
3F00
7F00
F200
E000
E000
E000
E000
E000
E000
E000
E000
E000
E000
E000
E1E0
E3C0
E380
E780
EF00
EE00
FC00
FE00
FE00
FF00
F780
E380
E1C0
E1E0
E0E0
E070
E078
ENDCHAR
STARTCHAR 019A
ENCODING 410
SWIDTH 308 0
DWIDTH 12 0
BBX 8 25 2 0
BITMAP
1C
1C
1C
1C
1C
1C
1C
1C
1C
1C
1C
FF
FF
FF
1C
1C
1C
1C
1C
1C
1C
1C
1F
1F
0F
ENDCHAR
STARTCHAR 019B
ENCODING 411
SWIDTH 488 0
DWIDTH 19 0
BBX 15 25 2 0
BITMAP
7C00
7E00
1E70
07F0
1FF0
7F80
7F80
2380
03C0
03C0
07C0
07E0
0EE0
0EE0
0E70
1C70
1C38
1C38
3838
381C
381C
701C
700E
E00E
E00E
ENDCHAR
STARTCHAR 019C
ENCODING 412
SWIDTH 591 0
DWIDTH 23 0
BBX 20 25 2 0
BITMAP
E0E070
E0E070
E0E070
E0E070
E0E070
E0E070
E0E070
E0E070
E0E070
E0E070
E0E070
E0E070
E0E070
E0E070
E0E070
E0E070
E0E070
E0E070
E0E070
E0E0F0
E1F0F0
61F1F0
7FFBF0
7FBFF0
3F1F70
ENDCHAR
STARTCHAR 019D
ENCODING 413
SWIDTH 591 0
DWIDTH 23 0
BBX 26 33 -4 -8
BITMAP
038001C0
03C001C0
03E001C0
03E001C0
03F001C0
03F801C0
03B801C0
039C01C0
039E01C0
038E01C0
038701C0
038781C0
0383C1C0
0381C1C0
0381E1C0
0380F1C0
038071C0
038039C0
03803DC0
03801DC0
03800FC0
03800FC0
038007C0
038003C0
038003C0
03800000
03800000
03800000
03800000
07000000
7F000000
FE000000
7C000000
ENDCHAR
STARTCHAR 019E
ENCODING 414
SWIDTH 462 0
DWIDTH 18 0
BBX 15 26 2 -9
BITMAP
03C0
EFF0
FFF8
FC3C
F81C
F00E
E00E
E00E
E00E
E00E
E00E
E00E
E00E
E00E
E00E
E00E
E00E
E00E
000E
000E
000E
000E
000E
000E
000E
0006
ENDCHAR
STARTCHAR 019F
ENCODING 415
SWIDTH 617 0
DWIDTH 24 0
BBX 21 25 2 0
BITMAP
03FC00
07FF00
0FDF80
1E03C0
3C01E0
3800E0
7000F0
700070
E00070
E00038
E00038
FFFFF8
FFFFF8
FFFFF8
E00038
E00038
E00070
700070
7000F0
3800E0
3C01E0
1E03C0
0FDF80
07FF00
03FC00
ENDCHAR
STARTCHAR 01A0
ENCODING 416
SWIDTH 694 0
DWIDTH 27 0
BBX 26 25 2 0
BITMAP
03FC0700
07FF0F80
0FDF8F80
1E03C6C0
3C01E080
3800E080
7000F180
70007300
E0007600
E0003800
E0003800
E0003800
E0003800
E0003800
E0003800
E0003800
E0007000
70007000
7000F000
3800E000
3C01E000
1E03C000
0FDF8000
07FF0000
03FC0000
ENDCHAR
STARTCHAR 01A1
ENCODING 417
SWIDTH 514 0
DWIDTH 20 0
BBX 19 22 2 0
BITMAP
000180
0003C0
0003E0
0003E0
07C060
0FF060
3FF840
3C78C0
701C80
701F00
E00E00
E00E00
E00E00
E00E00
E00E00
E00E00
E00E00
701C00
783C00
3EF800
1FF000
0FE000
ENDCHAR
STARTCHAR 01A2
ENCODING 418
SWIDTH 694 0
DWIDTH 27 0
BBX 24 33 2 -8
BITMAP
03FDFF
07FFFF
0FDFFF
1E03C7
3C01C7
3801C7
7001C7
7001C7
E001C7
E001C7
E001C7
E001C7
E001C7
E001C7
E001C7
E001C7
E001C7
7001C7
7001C7
3801C7
3C01C7
1E03C7
0FDF87
07FF07
03FC07
000007
000007
000007
000007
000007
000007
000007
000007
ENDCHAR
STARTCHAR 01A3
ENCODING 419
SWIDTH 540 0
DWIDTH 21 0
BBX 18 26 2 -9
BITMAP
07C000
0FFFC0
3FFFC0
3C71C0
7071C0
7071C0
E071C0
E071C0
E071C0
E071C0
E071C0
E071C0
E071C0
7071C0
7871C0
3EF1C0
1FF1C0
0FE1C0
0001C0
0001C0
0001C0
0001C0
0001C0
0001C0
0001C0
0000C0
ENDCHAR
STARTCHAR 01A4
ENCODING 420
SWIDTH 668 0
DWIDTH 26 0
BBX 22 25 2 0
BITMAP
1FFFC0
7FFFF0
7FFFF8
E1C038
E1C01C
E1C01C
E1C00C
E1C00C
41C01C
01C01C
01C03C
01FFF8
01FFF0
01FFC0
01C000
01C000
01C000
01C000
01C000
01C000
01C000
01C000
01C000
01C000
01C000
ENDCHAR
STARTCHAR 01A5
ENCODING 421
SWIDTH 462 0
DWIDTH 18 0
BBX 15 33 2 -9
BITMAP
3F00
7F00
FA00
E000
E000
E000
E000
E7C0
FFF0
FFF8
FC78
F01C
F01C
E00E
E00E
E00E
E00E
E00E
E00E
E00E
F01C
F83C
FEF8
FFF0
EFE0
E000
E000
E000
E000
E000
E000
E000
6000
ENDCHAR
STARTCHAR 01A6
ENCODING 422
SWIDTH 462 0
DWIDTH 18 0
BBX 15 31 2 -6
BITMAP
E000
E000
E000
E000
E000
E000
FFF0
FFF8
E0FC
E01C
E00E
E00E
E00E
E00E
E01C
E03C
FFF8
FFF0
FFE0
E070
E070
E038
E038
E038
E01C
001C
001C
000E
000E
000E
000E
ENDCHAR
STARTCHAR 01A7
ENCODING 423
SWIDTH 462 0
DWIDTH 18 0
BBX 15 25 2 0
BITMAP
0FE0
1FF0
3EF8
783C
701C
701C
001C
001C
003C
0078
01F0
07E0
1FC0
3E00
7C00
F000
E000
E000
E00E
E00E
E01E
703C
7EF8
3FF0
0FE0
ENDCHAR
STARTCHAR 01A8
ENCODING 424
SWIDTH 385 0
DWIDTH 15 0
BBX 11 18 2 0
BITMAP
0600
3F80
7FC0
71E0
E0E0
00E0
01E0
07C0
1F80
7E00
F800
E000
E000
E0E0
E0E0
7BE0
7FC0
3F80
ENDCHAR
STARTCHAR 01A9
ENCODING 425
SWIDTH 488 0
DWIDTH 19 0
BBX 16 25 2 0
BITMAP
FFFF
FFFF
FFFF
F000
7800
3800
3C00
1E00
0E00
0700
0780
0380
01C0
0380
0780
0700
0E00
1E00
3C00
3800
7800
F000
FFFF
FFFF
FFFF
ENDCHAR
STARTCHAR 01AA
ENCODING 426
SWIDTH 360 0
DWIDTH 14 0
BBX 16 33 2 -8
BITMAP
3F00
7F80
FBC0
E1C0
E0E0
E0E0
E1E0
7FE0
7FE0
1FE0
00E0
00E0
00E0
00E0
00E0
00E0
00E0
00E0
00E0
00E0
00E0
00E0
00E0
00E0
00E0
00E0
00E0
00E0
00E0
00E0
00FE
007F
001E
ENDCHAR
STARTCHAR 01AB
ENCODING 427
SWIDTH 334 0
DWIDTH 13 0
BBX 9 30 2 -8
BITMAP
0400
0C00
1C00
1C00
1C00
FF80
FF80
1C00
1C00
1C00
1C00
1C00
1C00
1C00
1C00
1C00
1C00
1C00
1C00
1F80
1F80
0F80
0380
0380
0380
0380
0780
7F00
FE00
7C00
ENDCHAR
STARTCHAR 01AC
ENCODING 428
SWIDTH 565 0
DWIDTH 22 0
BBX 19 25 2 0
BITMAP
1FFFE0
7FFFE0
7FFFE0
E07000
E07000
E07000
E07000
E07000
407000
007000
007000
007000
007000
007000
007000
007000
007000
007000
007000
007000
007000
007000
007000
007000
007000
ENDCHAR
STARTCHAR 01AD
ENCODING 429
SWIDTH 334 0
DWIDTH 13 0
BBX 12 25 2 0
BITMAP
03F0
0FF0
0F60
1E00
1C00
1C00
1C00
1C00
FF80
FF80
1C00
1C00
1C00
1C00
1C00
1C00
1C00
1C00
1C00
1C00
1C00
1C00
1F80
1F80
0F80
ENDCHAR
STARTCHAR 01AE
ENCODING 430
SWIDTH 488 0
DWIDTH 19 0
BBX 16 33 2 -8
BITMAP
FFFF
FFFF
FFFF
0380
0380
0380
0380
0380
0380
0380
0380
0380
0380
0380
0380
0380
0380
0380
0380
0380
0380
0380
0380
0380
0380
0380
0380
0380
0180
01C0
01FC
00FE
007C
ENDCHAR
STARTCHAR 01AF
ENCODING 431
SWIDTH 668 0
DWIDTH 26 0
BBX 25 25 2 0
BITMAP
E000EE00
E000FF00
E000EF00
E000ED80
E000E100
E000E100
E000E300
E000E600
E000EC00
E000F000
E000E000
E000E000
E000E000
E000E000
E000E000
E000E000
E000E000
E000E000
E000E000
7001C000
7803C000
3C078000
1FBF0000
0FFE0000
07F80000
ENDCHAR
STARTCHAR 01B0
ENCODING 432
SWIDTH 565 0
DWIDTH 22 0
BBX 20 22 2 0
BITMAP
000040
0001E0
0001F0
0001F0
000010
E00E10
E00E10
E00E20
E00E60
E00F80
E00E00
E00E00
E00E00
E00E00
E00E00
E00E00
E01E00
701E00
703E00
3FFE00
3FFE00
1FCE00
ENDCHAR
STARTCHAR 01B1
ENCODING 433
SWIDTH 617 0
DWIDTH 24 0
BBX 21 25 2 0
BITMAP
FF0FF8
FF0FF8
FF0FF8
1E03C0
3C01E0
7800E0
7000F0
700070
E00070
E00038
E00038
E00038
E00038
E00038
E00038
E00038
E00070
700070
7000F0
3800E0
3C01E0
1E03C0
0FDF80
07FF00
03FC00
ENDCHAR
STARTCHAR 01B2
ENCODING 434
SWIDTH 565 0
DWIDTH 22 0
BBX 19 25 2 0
BITMAP
E00F80
F00FC0
7003C0
7000E0
3800E0
3800E0
3800E0
1C01C0
1C01C0
1C01C0
0E0380
0E0380
0F0380
070700
070700
038700
038E00
038E00
01DC00
01DC00
01DC00
00F800
00F800
00F800
007000
ENDCHAR
STARTCHAR 01B3
ENCODING 435
SWIDTH 617 0
DWIDTH 24 0
BBX 26 25 2 0
BITMAP
F0007F00
7000FF80
3800F780
3C01C1C0
1E03C000
0E038000
07070000
078F0000
039E0000
01DC0000
01FC0000
00F80000
00700000
00700000
00700000
00700000
00700000
00700000
00700000
00700000
00700000
00700000
00700000
00700000
00700000
ENDCHAR
STARTCHAR 01B4
ENCODING 436
SWIDTH 617 0
DWIDTH 24 0
BBX 21 26 2 -8
BITMAP
0001C0
E007F0
700FF8
701E30
701C00
381C00
383800
383800
1C3800
1C7000
0E7000
0E7000
0EE000
07E000
07E000
07C000
03C000
038000
038000
038000
070000
070000
0F0000
3E0000
7C0000
780000
ENDCHAR
STARTCHAR 01B5
ENCODING 437
SWIDTH 514 0
DWIDTH 20 0
BBX 17 25 2 0
BITMAP
FFFF80
FFFF80
FFFF80
000700
000F00
000E00
001C00
003C00
007800
007000
00F000
3FFE00
3FFE00
3FFE00
078000
070000
0E0000
1E0000
3C0000
380000
780000
F00000
FFFF80
FFFF80
FFFF80
ENDCHAR
STARTCHAR 01B6
ENCODING 438
SWIDTH 385 0
DWIDTH 15 0
BBX 12 17 2 0
BITMAP
FFF0
FFF0
00F0
01E0
01C0
0380
0780
7FE0
7FE0
7FE0
3C00
3800
7800
F000
FFF0
FFF0
FFF0
ENDCHAR
STARTCHAR 01B7
ENCODING 439
SWIDTH 514 0
DWIDTH 20 0
BBX 17 25 2 0
BITMAP
FFFF80
FFFF80
FFFF80
000700
000F00
000E00
001C00
003C00
007800
007000
00F800
01FE00
001E00
000700
000780
000380
000380
000380
600380
E00380
700700
780F00
3F7E00
1FFC00
0FF000
ENDCHAR
STARTCHAR 01B8
ENCODING 440
SWIDTH 514 0
DWIDTH 20 0
BBX 17 25 2 0
BITMAP
FFFF80
FFFF80
FFFF80
F00000
780000
380000
1C0000
1E0000
0E0000
070000
0F8000
3FC000
7C0000
700000
F00000
E00000
E00000
E00000
E00300
E00380
700700
780F00
3F7E00
1FFC00
0FF000
ENDCHAR
STARTCHAR 01B9
ENCODING 441
SWIDTH 437 0
DWIDTH 17 0
BBX 13 25 2 -8
BITMAP
FFF8
FFF8
E000
7000
7800
3C00
1C00
1E00
0F00
1F00
3F80
7800
7000
E000
E000
E000
E000
E000
E000
E000
7000
7830
3FF8
1FF0
07C0
ENDCHAR
STARTCHAR 01BA
ENCODING 442
SWIDTH 385 0
DWIDTH 15 0
BBX 12 25 2 -8
BITMAP
FFF0
FFF0
00F0
01E0
01C0
0380
0780
0700
0FC0
1FC0
00E0
00E0
00E0
03E0
0FC0
3F00
7C00
F000
E000
E060
E0E0
70E0
7FC0
3FC0
1F00
ENDCHAR
STARTCHAR 01BB
ENCODING 443
SWIDTH 437 0
DWIDTH 17 0
BBX 13 25 2 0
BITMAP
1FC0
3FE0
7DF0
F078
E038
E038
0038
0038
0038
0070
00F0
FFF8
FFF8
FFF8
0F00
1E00
3C00
7800
7000
E000
E000
E000
FFF8
FFF8
FFF8
ENDCHAR
STARTCHAR 01BC
ENCODING 444
SWIDTH 462 0
DWIDTH 18 0
BBX 14 25 2 0
BITMAP
FFF8
FFF8
FFF8
7000
7000
7000
7000
6F80
FFE0
FFF0
F8F0
F038
603C
001C
001C
001C
001C
001C
001C
001C
E038
F078
7DF0
3FE0
1FC0
ENDCHAR
STARTCHAR 01BD
ENCODING 445
SWIDTH 385 0
DWIDTH 15 0
BBX 11 17 2 0
BITMAP
FFE0
FFE0
3800
7000
7F00
7F80
7FC0
71E0
20E0
00E0
0060
6060
E0E0
70E0
7FC0
3FC0
1F80
ENDCHAR
STARTCHAR 01BE
ENCODING 446
SWIDTH 462 0
DWIDTH 18 0
BBX 14 22 2 0
BITMAP
0400
0C00
1C00
1C00
1C00
FF80
FF80
1C00
1C00
1C00
0E00
0F80
07F0
01F8
003C
001C
001C
1C1C
1C1C
0F78
0FF8
07F0
ENDCHAR
STARTCHAR 01BF
ENCODING 447
SWIDTH 437 0
DWIDTH 17 0
BBX 13 26 2 -9
BITMAP
0F00
FFE0
FFF0
F8F0
F038
E038
E038
E038
E038
E038
E070
E0F0
E1E0
E3C0
E780
FF00
FC00
F800
F000
F000
E000
E000
E000
E000
E000
6000
ENDCHAR
STARTCHAR 01C0
ENCODING 448
SWIDTH 154 0
DWIDTH 6 0
BBX 3 33 2 -9
BITMAP
E0
E0
E0
E0
E0
E0
E0
E0
E0
E0
E0
E0
E0
E0
E0
E0
E0
E0
E0
E0
E0
E0
E0
E0
E0
E0
E0
E0
E0
E0
E0
E0
60
ENDCHAR
STARTCHAR 01C1
ENCODING 449
SWIDTH 308 0
DWIDTH 12 0
BBX 8 33 2 -9
BITMAP
E3
E3
E3
E3
E3
E3
E3
E3
E3
E3
E3
E3
E3
E3
E3
E3
E3
E3
E3
E3
E3
E3
E3
E3
E3
E3
E3
E3
E3
E3
E3
E3
61
ENDCHAR
STARTCHAR 01C2
ENCODING 450
SWIDTH 437 0
DWIDTH 17 0
BBX 13 25 2 0
BITMAP
0700
0700
0700
0700
0700
0700
0700
0700
FFF8
FFF8
0700
0700
0700
0700
FFF8
FFF8
FFF8
0700
0700
0700
0700
0700
0700
0700
0700
ENDCHAR
STARTCHAR 01C3
ENCODING 451
SWIDTH 154 0
DWIDTH 6 0
BBX 4 25 1 0
BITMAP
70
70
70
70
70
70
70
70
70
70
70
70
70
70
70
70
70
00
00
00
00
60
F0
F0
70
ENDCHAR
STARTCHAR 01C4
ENCODING 452
SWIDTH 1157 0
DWIDTH 45 0
BBX 42 33 2 0
BITMAP
000000080400
000000040800
000000061800
000000033000
00000003F000
00000001E000
000000000000
000000000000
FFFC007FFFC0
FFFE007FFFC0
FFFF807FFFC0
1C07C0000380
1C03C0000700
1C01E0000F00
1C00F0000E00
1C0070001C00
1C0070003C00
1C0030007800
1C0038007000
1C003800F000
1C003801E000
1C003801C000
1C0038038000
1C0030078000
1C0070070000
1C00700E0000
1C00F01E0000
1C01E03C0000
1C03C0380000
1C07C0780000
FFFF807FFFC0
FFFE007FFFC0
FFF8007FFFC0
ENDCHAR
STARTCHAR 01C5
ENCODING 453
SWIDTH 1028 0
DWIDTH 40 0
BBX 36 25 2 0
BITMAP
FFFC002020
FFFE003040
FFFF8018C0
1C07C00D80
1C03C00F80
1C01E00700
1C00F00000
1C00700000
1C00707FF0
1C00307FF0
1C00380070
1C003800F0
1C003801E0
1C003801C0
1C00380380
1C00300780
1C00700700
1C00700E00
1C00F01E00
1C01E03C00
1C03C03800
1C07C07800
FFFF807FF0
FFFE007FF0
FFF8007FF0
ENDCHAR
STARTCHAR 01C6
ENCODING 454
SWIDTH 874 0
DWIDTH 34 0
BBX 31 25 2 0
BITMAP
000E0808
000E0418
000E0630
000E0370
000E03E0
000E01E0
000E0000
078E0000
0FEE1FFE
3FFE1FFE
3C7E001E
701E003C
701E0038
E00E0070
E00E00F0
E00E00E0
E00E01C0
E00E03C0
E00E0780
E00E0700
701E0F00
783E1E00
3EFE1FFE
1FFE1FFE
0FEE1FFE
ENDCHAR
STARTCHAR 01C7
ENCODING 455
SWIDTH 874 0
DWIDTH 34 0
BBX 30 25 2 0
BITMAP
E000001C
E000001C
E000001C
E000001C
E000001C
E000001C
E000001C
E000001C
E000001C
E000001C
E000001C
E000001C
E000001C
E000001C
E000001C
E000001C
E000001C
E000001C
E000001C
E000001C
E0000E1C
E0000E1C
FFFF0FFC
FFFF07F8
FFFF03F0
ENDCHAR
STARTCHAR 01C8
ENCODING 456
SWIDTH 694 0
DWIDTH 27 0
BBX 24 33 2 -8
BITMAP
E00000
E0000E
E0001F
E0001E
E0000E
E00000
E00000
E00000
E0000E
E0000E
E0000E
E0000E
E0000E
E0000E
E0000E
E0000E
E0000E
E0000E
E0000E
E0000E
E0000E
E0000E
FFFF0E
FFFF0E
FFFF0E
00000E
00000E
00000E
00000E
00001E
0001FC
0003F8
0001F0
ENDCHAR
STARTCHAR 01C9
ENCODING 457
SWIDTH 411 0
DWIDTH 16 0
BBX 13 33 2 -8
BITMAP
E000
E070
E078
E078
E030
E000
E000
E000
E070
E070
E070
E070
E070
E070
E070
E070
E070
E070
E070
E070
E070
E070
FC70
FC70
7C70
0070
0070
0070
0070
0070
0FE0
0FE0
0780
ENDCHAR
STARTCHAR 01CA
ENCODING 458
SWIDTH 977 0
DWIDTH 38 0
BBX 34 25 2 0
BITMAP
E0007001C0
F0007001C0
F8007001C0
F8007001C0
FC007001C0
FE007001C0
EE007001C0
E7007001C0
E7807001C0
E3807001C0
E1C07001C0
E1E07001C0
E0F07001C0
E0707001C0
E0787001C0
E03C7001C0
E01C7001C0
E00E7001C0
E00F7001C0
E0077001C0
E003F1C1C0
E003F0E1C0
E001F0FFC0
E000F07F80
E000F03F00
ENDCHAR
STARTCHAR 01CB
ENCODING 459
SWIDTH 797 0
DWIDTH 31 0
BBX 27 33 2 -8
BITMAP
E0007000
F00070E0
F80071E0
F80071E0
FC0070E0
FE007000
EE007000
E7007000
E78070E0
E38070E0
E1C070E0
E1E070E0
E0F070E0
E07070E0
E07870E0
E03C70E0
E01C70E0
E00E70E0
E00F70E0
E00770E0
E003F0E0
E003F0E0
E001F0E0
E000F0E0
E000F0E0
000000E0
000000E0
000000E0
000000E0
000001E0
00001FC0
00003F80
00001F00
ENDCHAR
STARTCHAR 01CC
ENCODING 460
SWIDTH 668 0
DWIDTH 26 0
BBX 23 32 2 -8
BITMAP
00001C
00003E
00001C
00001C
000000
000000
03C000
EFF01C
FFF81C
FC3C1C
F81C1C
F00E1C
E00E1C
E00E1C
E00E1C
E00E1C
E00E1C
E00E1C
E00E1C
E00E1C
E00E1C
E00E1C
E00E1C
E00E1C
00001C
00001C
00001C
00001C
00003C
0003F8
0007F0
0003E0
ENDCHAR
STARTCHAR 01CD
ENCODING 461
SWIDTH 642 0
DWIDTH 25 0
BBX 21 33 2 0
BITMAP
020200
030600
018C00
01DC00
00F800
00F800
000000
000000
007000
00F800
00F800
00F800
01DC00
01DC00
01DC00
038E00
038E00
038700
070700
070700
0F0380
0FFF80
0FFF80
1FFFC0
1C01C0
1C01C0
3800E0
3800E0
380070
700070
700070
F00038
E00038
ENDCHAR
STARTCHAR 01CE
ENCODING 462
SWIDTH 385 0
DWIDTH 15 0
BBX 12 25 2 0
BITMAP
4040
30C0
3980
1F80
1F00
0F00
0000
0600
3FC0
7FE0
38F0
0070
0070
0070
0670
3FF0
7FF0
F0F0
E070
E070
E070
E0F0
7FF0
7FF0
1FF0
ENDCHAR
STARTCHAR 01CF
ENCODING 463
SWIDTH 308 0
DWIDTH 12 0
BBX 10 33 1 0
BITMAP
8040
4080
6180
3300
1F00
1E00
0000
0000
7F80
7F80
7F80
0E00
0E00
0E00
0E00
0E00
0E00
0E00
0E00
0E00
0E00
0E00
0E00
0E00
0E00
0E00
0E00
0E00
0E00
0E00
7F80
7F80
7F80
ENDCHAR
STARTCHAR 01D0
ENCODING 464
SWIDTH 154 0
DWIDTH 6 0
BBX 9 25 -1 0
BITMAP
8080
C100
6300
7600
3E00
3C00
0000
0000
1C00
1C00
1C00
1C00
1C00
1C00
1C00
1C00
1C00
1C00
1C00
1C00
1C00
1C00
1C00
1C00
1C00
ENDCHAR
STARTCHAR 01D1
ENCODING 465
SWIDTH 617 0
DWIDTH 24 0
BBX 21 33 2 0
BITMAP
020200
030600
018C00
01DC00
00F800
00F000
000000
000000
03FC00
07FF00
0FDF80
1E03C0
3C01E0
3800E0
7000F0
700070
E00070
E00038
E00038
E00038
E00038
E00038
E00038
E00038
E00070
700070
7000F0
3800E0
3C01E0
1E03C0
0FDF80
07FF00
03FC00
ENDCHAR
STARTCHAR 01D2
ENCODING 466
SWIDTH 462 0
DWIDTH 18 0
BBX 15 25 2 0
BITMAP
1010
0820
0C60
06C0
07C0
0380
0000
07C0
0FF0
3FF8
3C78
701C
701C
E00E
E00E
E00E
E00E
E00E
E00E
E00E
701C
783C
3EF8
1FF0
0FE0
ENDCHAR
STARTCHAR 01D3
ENCODING 467
SWIDTH 565 0
DWIDTH 22 0
BBX 19 33 2 0
BITMAP
040400
060C00
031800
03B800
01F000
01F000
000000
000000
E000E0
E000E0
E000E0
E000E0
E000E0
E000E0
E000E0
E000E0
E000E0
E000E0
E000E0
E000E0
E000E0
E000E0
E000E0
E000E0
E000E0
E000E0
E000E0
7001C0
7803C0
3C0780
1FBF00
0FFE00
07F800
ENDCHAR
STARTCHAR 01D4
ENCODING 468
SWIDTH 462 0
DWIDTH 18 0
BBX 15 25 2 0
BITMAP
1010
0820
0C60
06C0
07C0
0380
0000
0000
E00E
E00E
E00E
E00E
E00E
E00E
E00E
E00E
E00E
E00E
E00E
E01E
701E
703E
3FFE
3FFE
1FCE
ENDCHAR
STARTCHAR 01D5
ENCODING 469
SWIDTH 565 0
DWIDTH 22 0
BBX 19 33 2 0
BITMAP
07FC00
07FC00
07FC00
000000
0F1C00
0F1E00
0F1E00
060C00
E000E0
E000E0
E000E0
E000E0
E000E0
E000E0
E000E0
E000E0
E000E0
E000E0
E000E0
E000E0
E000E0
E000E0
E000E0
E000E0
E000E0
E000E0
E000E0
7001C0
7803C0
3C0780
1FBF00
0FFE00
07F800
ENDCHAR
STARTCHAR 01D6
ENCODING 470
SWIDTH 462 0
DWIDTH 18 0
BBX 15 30 2 0
BITMAP
1FF0
1FF0
1FF0
0000
0000
0000
1C70
3C78
3C78
1830
0000
0000
0000
E00E
E00E
E00E
E00E
E00E
E00E
E00E
E00E
E00E
E00E
E00E
E01E
701E
703E
3FFE
3FFE
1FCE
ENDCHAR
STARTCHAR 01D7
ENCODING 471
SWIDTH 565 0
DWIDTH 22 0
BBX 19 33 2 0
BITMAP
001C00
003800
003000
006000
035800
07BC00
031800
000000
E000E0
E000E0
E000E0
E000E0
E000E0
E000E0
E000E0
E000E0
E000E0
E000E0
E000E0
E000E0
E000E0
E000E0
E000E0
E000E0
E000E0
E000E0
E000E0
7001C0
7803C0
3C0780
1FBF00
0FFE00
07F800
ENDCHAR
STARTCHAR 01D8
ENCODING 472
SWIDTH 462 0
DWIDTH 18 0
BBX 15 31 2 0
BITMAP
00E0
01C0
0180
0300
0200
0000
0000
1C70
3C78
3C78
1830
0000
0000
0000
E00E
E00E
E00E
E00E
E00E
E00E
E00E
E00E
E00E
E00E
E00E
E01E
701E
703E
3FFE
3FFE
1FCE
ENDCHAR
STARTCHAR 01D9
ENCODING 473
SWIDTH 565 0
DWIDTH 22 0
BBX 19 33 2 0
BITMAP
000800
021800
013000
01F000
03F800
073C00
073C00
000000
E000E0
E000E0
E000E0
E000E0
E000E0
E000E0
E000E0
E000E0
E000E0
E000E0
E000E0
E000E0
E000E0
E000E0
E000E0
E000E0
E000E0
E000E0
E000E0
7001C0
7803C0
3C0780
1FBF00
0FFE00
07F800
ENDCHAR
STARTCHAR 01DA
ENCODING 474
SWIDTH 462 0
DWIDTH 18 0
BBX 15 31 2 0
BITMAP
1010
0C60
0EE0
07C0
07C0
0000
0000
1C70
3C78
3C78
1830
0000
0000
0000
E00E
E00E
E00E
E00E
E00E
E00E
E00E
E00E
E00E
E00E
E00E
E01E
701E
703E
3FFE
3FFE
1FCE
ENDCHAR
STARTCHAR 01DB
ENCODING 475
SWIDTH 565 0
DWIDTH 22 0
BBX 19 33 2 0
BITMAP
070000
030000
018000
008000
075800
073C00
071800
000000
E000E0
E000E0
E000E0
E000E0
E000E0
E000E0
E000E0
E000E0
E000E0
E000E0
E000E0
E000E0
E000E0
E000E0
E000E0
E000E0
E000E0
E000E0
E000E0
7001C0
7803C0
3C0780
1FBF00
0FFE00
07F800
ENDCHAR
STARTCHAR 01DC
ENCODING 476
SWIDTH 462 0
DWIDTH 18 0
BBX 15 31 2 0
BITMAP
0E00
0700
0300
0180
0080
0000
0000
1C70
3C78
3C78
1830
0000
0000
0000
E00E
E00E
E00E
E00E
E00E
E00E
E00E
E00E
E00E
E00E
E00E
E01E
701E
703E
3FFE
3FFE
1FCE
ENDCHAR
STARTCHAR 01DD
ENCODING 477
SWIDTH 462 0
DWIDTH 18 0
BBX 15 18 2 0
BITMAP
07C0
0FF0
3FF8
3C78
701C
301C
000E
000E
000E
FFFE
FFFE
FFFE
E00E
701C
783C
3EF8
1FF0
0FE0
ENDCHAR
STARTCHAR 01DE
ENCODING 478
SWIDTH 642 0
DWIDTH 25 0
BBX 21 33 2 0
BITMAP
03FE00
03FE00
03FE00
000000
038E00
078F00
078F00
030600
007000
00F800
00F800
00F800
01DC00
01DC00
01DC00
038E00
038E00
038700
070700
070700
0F0380
0FFF80
0FFF80
1FFFC0
1C01C0
1C01C0
3800E0
3800E0
380070
700070
700070
F00038
E00038
ENDCHAR
STARTCHAR 01DF
ENCODING 479
SWIDTH 385 0
DWIDTH 15 0
BBX 12 30 2 0
BITMAP
7FE0
7FE0
7FE0
0000
0000
0000
71E0
79E0
79E0
30C0
0000
0000
0600
3FC0
7FE0
38F0
0070
0070
0070
0670
3FF0
7FF0
F0F0
E070
E070
E070
E0F0
7FF0
7FF0
1FF0
ENDCHAR
STARTCHAR 01E0
ENCODING 480
SWIDTH 642 0
DWIDTH 25 0
BBX 21 33 2 0
BITMAP
03FE00
03FE00
03FE00
007000
007800
00F800
007000
000000
007000
00F800
00F800
00F800
01DC00
01DC00
01DC00
038E00
038E00
038700
070700
070700
0F0380
0FFF80
0FFF80
1FFFC0
1C01C0
1C01C0
3800E0
3800E0
380070
700070
700070
F00038
E00038
ENDCHAR
STARTCHAR 01E1
ENCODING 481
SWIDTH 385 0
DWIDTH 15 0
BBX 12 30 2 0
BITMAP
7FE0
7FE0
7FE0
0000
0000
0000
0F00
0F00
0F00
0600
0000
0000
0600
3FC0
7FE0
38F0
0070
0070
0070
0670
3FF0
7FF0
F0F0
E070
E070
E070
E0F0
7FF0
7FF0
1FF0
ENDCHAR
STARTCHAR 01E2
ENCODING 482
SWIDTH 720 0
DWIDTH 28 0
BBX 25 31 2 0
BITMAP
001FF800
001FF800
001FF800
00000000
00000000
00000000
007FFF80
00FFFF80
00FFFF80
00EE0000
01CE0000
01CE0000
01CE0000
038E0000
038E0000
038E0000
070E0000
07FFFC00
0FFFFC00
0FFFFC00
0E0E0000
1C0E0000
1C0E0000
1C0E0000
380E0000
380E0000
380E0000
700E0000
700FFF80
F00FFF80
E00FFF80
ENDCHAR
STARTCHAR 01E3
ENCODING 483
SWIDTH 720 0
DWIDTH 28 0
BBX 24 23 2 0
BITMAP
01FF80
01FF80
01FF80
000000
000000
0603E0
3FC7F8
7FFFFC
38FE3E
007C0E
00780F
007007
067FFF
3FFFFF
7FFFFF
F0F000
E07000
E07804
E0780E
E0FC1E
7FFF7C
7FCFF8
1F87F0
ENDCHAR
STARTCHAR 01E4
ENCODING 484
SWIDTH 642 0
DWIDTH 25 0
BBX 22 25 2 0
BITMAP
03FC00
07FF00
0FDF80
1E03C0
3C01E0
7800E0
700080
700000
E00000
E00000
E00000
E00000
E07FE0
E07FE0
E07FE0
E000E0
E000E0
7007FC
7007FC
3800E0
3C01E0
1E03C0
0FDF80
07FF00
03FC00
ENDCHAR
STARTCHAR 01E5
ENCODING 485
SWIDTH 488 0
DWIDTH 19 0
BBX 20 26 0 -8
BITMAP
01F040
07FCF0
0FFFE0
1E0FC0
3C0780
380380
380380
380380
380380
1C0700
1FBF00
1FFE00
1FF800
380000
3C0000
1F8000
0FFC00
01FF00
000F80
FFFFF0
FFFFF0
FFFFF0
3C0780
1FFF00
0FFE00
03F800
ENDCHAR
STARTCHAR 01E6
ENCODING 486
SWIDTH 591 0
DWIDTH 23 0
BBX 19 33 2 0
BITMAP
040400
060C00
031800
03B800
01F000
01F000
000000
000000
03FC00
07FF00
0FDF80
1E03C0
3C01E0
7800E0
700080
700000
E00000
E00000
E00000
E00000
E07FE0
E07FE0
E07FE0
E000E0
E000E0
7000E0
7000E0
3800E0
3C01E0
1E03C0
0FDF80
07FF00
03FC00
ENDCHAR
STARTCHAR 01E7
ENCODING 487
SWIDTH 488 0
DWIDTH 19 0
BBX 18 33 2 -8
BITMAP
101000
182000
0C6000
0EC000
07C000
078000
000000
07C100
1FF3C0
3FFF80
783F00
F01E00
E00E00
E00E00
E00E00
E00E00
701C00
7EFC00
7FF800
7FE000
E00000
F00000
7E0000
3FF000
07FC00
003E00
000E00
E00E00
E00E00
F01E00
7FFC00
3FF800
0FE000
ENDCHAR
STARTCHAR 01E8
ENCODING 488
SWIDTH 540 0
DWIDTH 21 0
BBX 17 33 2 0
BITMAP
080800
0C1800
063000
077000
03E000
03E000
000000
000000
E01E00
E01C00
E03800
E07800
E07000
E0E000
E1E000
E3C000
E38000
E78000
EF0000
EF0000
FF0000
FF8000
FBC000
F1C000
F0E000
E0F000
E07800
E03800
E01C00
E01E00
E00E00
E00700
E00780
ENDCHAR
STARTCHAR 01E9
ENCODING 489
SWIDTH 437 0
DWIDTH 17 0
BBX 13 32 2 0
BITMAP
2020
1040
18C0
0D80
0F80
0000
0000
E000
E000
E000
E000
E000
E000
E000
E000
E1E0
E3C0
E380
E780
EF00
EE00
FC00
FE00
FE00
FF00
F780
E380
E1C0
E1E0
E0E0
E070
E078
ENDCHAR
STARTCHAR 01EA
ENCODING 490
SWIDTH 617 0
DWIDTH 24 0
BBX 21 32 2 -7
BITMAP
03FC00
07FF00
0FDF80
1E03C0
3C01E0
3800E0
7000F0
700070
E00070
E00038
E00038
E00038
E00038
E00038
E00038
E00038
E00070
700070
7000F0
3800E0
3C01E0
1E03C0
0FDF80
07FF00
03FC00
002000
006000
006000
007000
007800
003F80
001E00
ENDCHAR
STARTCHAR 01EB
ENCODING 491
SWIDTH 462 0
DWIDTH 18 0
BBX 15 25 2 -7
BITMAP
07C0
0FF0
3FF8
3C78
701C
701C
E00E
E00E
E00E
E00E
E00E
E00E
E00E
701C
783C
3EF8
1FF0
0FE0
0100
0300
0300
0380
03C0
01FC
00F0
ENDCHAR
STARTCHAR 01EC
ENCODING 492
SWIDTH 617 0
DWIDTH 24 0
BBX 21 38 2 -7
BITMAP
03FE00
03FE00
03FE00
000000
000000
000000
03FC00
07FF00
0FDF80
1E03C0
3C01E0
3800E0
7000F0
700070
E00070
E00038
E00038
E00038
E00038
E00038
E00038
E00038
E00070
700070
7000F0
3800E0
3C01E0
1E03C0
0FDF80
07FF00
03FC00
002000
006000
006000
007000
007800
003F80
001E00
ENDCHAR
STARTCHAR 01ED
ENCODING 493
SWIDTH 462 0
DWIDTH 18 0
BBX 15 30 2 -7
BITMAP
1FF0
1FF0
1FF0
0000
0000
07C0
0FF0
3FF8
3C78
701C
701C
E00E
E00E
E00E
E00E
E00E
E00E
E00E
701C
783C
3EF8
1FF0
0FE0
0100
0300
0300
0380
03C0
01FC
00F0
ENDCHAR
STARTCHAR 01EE
ENCODING 494
SWIDTH 514 0
DWIDTH 20 0
BBX 17 33 2 0
BITMAP
080800
0C1800
063000
077000
03E000
03E000
000000
000000
FFFF80
FFFF80
FFFF80
000700
000F00
000E00
001C00
003C00
007800
007000
00F800
01FE00
001E00
000700
000780
000380
000380
000380
600380
E00380
700700
780F00
3F7E00
1FFC00
0FF000
ENDCHAR
STARTCHAR 01EF
ENCODING 495
SWIDTH 437 0
DWIDTH 17 0
BBX 13 33 2 -8
BITMAP
2020
1060
18C0
0DC0
0F80
0780
0000
0000
FFF8
FFF8
0038
0070
00F0
01E0
01C0
03C0
0780
07C0
0FE0
00F0
0070
0038
0038
0038
0038
0038
0038
0038
0070
60F0
FFE0
7FC0
1F00
ENDCHAR
STARTCHAR 01F0
ENCODING 496
SWIDTH 154 0
DWIDTH 6 0
BBX 12 33 -4 -8
BITMAP
1010
1820
0C60
0EC0
07C0
0780
0000
0000
0380
0380
0380
0380
0380
0380
0380
0380
0380
0380
0380
0380
0380
0380
0380
0380
0380
0380
0380
0380
0380
0700
7F00
FE00
7C00
ENDCHAR
STARTCHAR 01F1
ENCODING 497
SWIDTH 1157 0
DWIDTH 45 0
BBX 42 25 2 0
BITMAP
FFFC007FFFC0
FFFE007FFFC0
FFFF807FFFC0
1C07C0000380
1C03C0000700
1C01E0000F00
1C00F0000E00
1C0070001C00
1C0070003C00
1C0030007800
1C0038007000
1C003800F000
1C003801E000
1C003801C000
1C0038038000
1C0030078000
1C0070070000
1C00700E0000
1C00F01E0000
1C01E03C0000
1C03C0380000
1C07C0780000
FFFF807FFFC0
FFFE007FFFC0
FFF8007FFFC0
ENDCHAR
STARTCHAR 01F2
ENCODING 498
SWIDTH 1028 0
DWIDTH 40 0
BBX 36 25 2 0
BITMAP
FFFC000000
FFFE000000
FFFF800000
1C07C00000
1C03C00000
1C01E00000
1C00F00000
1C00700000
1C00707FF0
1C00307FF0
1C00380070
1C003800F0
1C003801E0
1C003801C0
1C00380380
1C00300780
1C00700700
1C00700E00
1C00F01E00
1C01E03C00
1C03C03800
1C07C07800
FFFF807FF0
FFFE007FF0
FFF8007FF0
ENDCHAR
STARTCHAR 01F3
ENCODING 499
SWIDTH 874 0
DWIDTH 34 0
BBX 31 25 2 0
BITMAP
000E0000
000E0000
000E0000
000E0000
000E0000
000E0000
000E0000
078E0000
0FEE1FFE
3FFE1FFE
3C7E001E
701E003C
701E0038
E00E0070
E00E00F0
E00E00E0
E00E01C0
E00E03C0
E00E0780
E00E0700
701E0F00
783E1E00
3EFE1FFE
1FFE1FFE
0FEE1FFE
ENDCHAR
STARTCHAR 01F4
ENCODING 500
SWIDTH 591 0
DWIDTH 23 0
BBX 19 33 2 0
BITMAP
003C00
003800
007000
006000
00C000
008000
000000
000000
03FC00
07FF00
0FDF80
1E03C0
3C01E0
7800E0
700080
700000
E00000
E00000
E00000
E00000
E07FE0
E07FE0
E07FE0
E000E0
E000E0
7000E0
7000E0
3800E0
3C01E0
1E03C0
0FDF80
07FF00
03FC00
ENDCHAR
STARTCHAR 01F5
ENCODING 501
SWIDTH 488 0
DWIDTH 19 0
BBX 18 33 2 -8
BITMAP
00E000
01C000
018000
030000
020000
040000
000000
07C100
1FF3C0
3FFF80
783F00
F01E00
E00E00
E00E00
E00E00
E00E00
701C00
7EFC00
7FF800
7FE000
E00000
F00000
7E0000
3FF000
07FC00
003E00
000E00
E00E00
E00E00
F01E00
7FFC00
3FF800
0FE000
ENDCHAR
STARTCHAR 01F6
ENCODING 502
SWIDTH 822 0
DWIDTH 32 0
BBX 28 25 2 0
BITMAP
E0070000
E0070000
E0070000
E0070000
E0070000
E0070000
E0070000
E0070000
E0070070
E0070070
E0070070
FFFF0070
FFFF0070
FFFF0070
E0070070
E0070070
E0070070
E0070070
E0070070
E0070070
E00380F0
E003C1E0
E001F7C0
E000FFC0
E0007F00
ENDCHAR
STARTCHAR 01F7
ENCODING 503
SWIDTH 437 0
DWIDTH 17 0
BBX 13 33 2 -8
BITMAP
FFC0
FFE0
FDF0
F078
E038
E038
E038
E038
E038
E070
E0F0
E1E0
E3C0
E780
EF00
FE00
FC00
F800
F000
E000
E000
E000
E000
E000
E000
E000
E000
E000
E000
E000
E000
E000
E000
ENDCHAR
STARTCHAR 01F8
ENCODING 504
SWIDTH 591 0
DWIDTH 23 0
BBX 20 33 2 0
BITMAP
038000
01C000
00C000
006000
002000
001000
000000
000000
E00070
F00070
F80070
F80070
FC0070
FE0070
EE0070
E70070
E78070
E38070
E1C070
E1E070
E0F070
E07070
E07870
E03C70
E01C70
E00E70
E00F70
E00770
E003F0
E003F0
E001F0
E000F0
E000F0
ENDCHAR
STARTCHAR 01F9
ENCODING 505
SWIDTH 462 0
DWIDTH 18 0
BBX 15 25 2 0
BITMAP
0E00
0700
0300
0180
0080
0040
0000
03C0
EFF0
FFF8
FC3C
F81C
F00E
E00E
E00E
E00E
E00E
E00E
E00E
E00E
E00E
E00E
E00E
E00E
E00E
ENDCHAR
STARTCHAR 01FA
ENCODING 506
SWIDTH 642 0
DWIDTH 25 0
BBX 21 33 2 0
BITMAP
001C00
003800
003000
006000
004000
007000
00F800
018C00
018C00
01DC00
00F800
00F800
01DC00
01DC00
01DC00
038E00
038E00
038700
070700
070700
0F0380
0FFF80
0FFF80
1FFFC0
1C01C0
1C01C0
3800E0
3800E0
380070
700070
700070
F00038
E00038
ENDCHAR
STARTCHAR 01FB
ENCODING 507
SWIDTH 385 0
DWIDTH 15 0
BBX 12 32 2 0
BITMAP
01E0
01C0
0380
0300
0600
0400
0200
0F80
1D80
18C0
18C0
1F80
0F00
0000
0600
3FC0
7FE0
38F0
0070
0070
0070
0670
3FF0
7FF0
F0F0
E070
E070
E070
E0F0
7FF0
7FF0
1FF0
ENDCHAR
STARTCHAR 01FC
ENCODING 508
SWIDTH 720 0
DWIDTH 28 0
BBX 25 33 2 0
BITMAP
0001C000
00038000
00030000
00060000
00040000
00080000
00000000
00000000
007FFF80
00FFFF80
00FFFF80
00EE0000
01CE0000
01CE0000
01CE0000
038E0000
038E0000
038E0000
070E0000
07FFFC00
0FFFFC00
0FFFFC00
0E0E0000
1C0E0000
1C0E0000
1C0E0000
380E0000
380E0000
380E0000
700E0000
700FFF80
F00FFF80
E00FFF80
ENDCHAR
STARTCHAR 01FD
ENCODING 509
SWIDTH 720 0
DWIDTH 28 0
BBX 24 25 2 0
BITMAP
000F00
000E00
001C00
001800
003000
002000
000000
0603E0
3FC7F8
7FFFFC
38FE3E
007C0E
00780F
007007
067FFF
3FFFFF
7FFFFF
F0F000
E07000
E07804
E0780E
E0FC1E
7FFF7C
7FCFF8
1F87F0
ENDCHAR
STARTCHAR 01FE
ENCODING 510
SWIDTH 617 0
DWIDTH 24 0
BBX 21 34 2 -2
BITMAP
001E00
003C00
003800
007000
006000
00C000
000020
000030
03FC70
07FFF0
0FDFE0
1E03C0
3C03E0
3807E0
7007F0
700F70
E01E70
E01C38
E03838
E07838
E07038
E0E038
E1E038
E3C038
E38070
778070
7F00F0
3E00E0
3C01E0
3E03C0
3FDF80
77FF00
F3FC00
E00000
ENDCHAR
STARTCHAR 01FF
ENCODING 511
SWIDTH 462 0
DWIDTH 18 0
BBX 16 27 1 -2
BITMAP
0070
00E0
00C0
0180
0100
0202
0003
03E7
07FF
1FFE
1E3C
383E
387E
7077
70E7
71E7
71C7
7387
7787
7F07
3E0E
3E1E
3F7C
3FF8
77F0
F000
6000
ENDCHAR
STARTCHAR 0200
ENCODING 512
SWIDTH 642 0
DWIDTH 25 0
BBX 21 33 2 0
BITMAP
3CE000
1C7000
0E3000
061800
030800
010400
000000
000000
007000
00F800
00F800
00F800
01DC00
01DC00
01DC00
038E00
038E00
038700
070700
070700
0F0380
0FFF80
0FFF80
1FFFC0
1C01C0
1C01C0
3800E0
3800E0
380070
700070
700070
F00038
E00038
ENDCHAR
STARTCHAR 0201
ENCODING 513
SWIDTH 385 0
DWIDTH 15 0
BBX 13 25 1 0
BITMAP
E780
7380
31C0
1840
0820
0400
0000
0300
1FE0
3FF0
1C78
0038
0038
0038
0338
1FF8
3FF8
7878
7038
7038
7038
7078
3FF8
3FF8
0FF8
ENDCHAR
STARTCHAR 0202
ENCODING 514
SWIDTH 642 0
DWIDTH 25 0
BBX 21 33 2 0
BITMAP
002000
01FC00
03FE00
030600
070700
070300
000000
000000
007000
00F800
00F800
00F800
01DC00
01DC00
01DC00
038E00
038E00
038700
070700
070700
0F0380
0FFF80
0FFF80
1FFFC0
1C01C0
1C01C0
3800E0
3800E0
380070
700070
700070
F00038
E00038
ENDCHAR
STARTCHAR 0203
ENCODING 515
SWIDTH 385 0
DWIDTH 15 0
BBX 12 25 2 0
BITMAP
1F00
3FC0
71C0
60E0
6060
0000
0000
0600
3FC0
7FE0
38F0
0070
0070
0070
0670
3FF0
7FF0
F0F0
E070
E070
E070
E0F0
7FF0
7FF0
1FF0
ENDCHAR
STARTCHAR 0204
ENCODING 516
SWIDTH 488 0
DWIDTH 19 0
BBX 16 33 2 0
BITMAP
F380
71C0
38C0
1860
0C20
0410
0000
0000
FFFF
FFFF
FFFF
E000
E000
E000
E000
E000
E000
E000
E000
FFFC
FFFC
FFFC
E000
E000
E000
E000
E000
E000
E000
E000
FFFF
FFFF
FFFF
ENDCHAR
STARTCHAR 0205
ENCODING 517
SWIDTH 462 0
DWIDTH 18 0
BBX 15 25 2 0
BITMAP
39E0
1CE0
0C70
0630
0218
0100
0000
07C0
0FF0
3FF8
3C78
701C
701C
E00E
FFFE
FFFE
FFFE
E000
E000
E000
701C
783C
3EF8
1FF0
0FE0
ENDCHAR
STARTCHAR 0206
ENCODING 518
SWIDTH 488 0
DWIDTH 19 0
BBX 16 33 2 0
BITMAP
0180
07E0
0FF0
1C38
1818
1818
0000
0000
FFFF
FFFF
FFFF
E000
E000
E000
E000
E000
E000
E000
E000
FFFC
FFFC
FFFC
E000
E000
E000
E000
E000
E000
E000
E000
FFFF
FFFF
FFFF
ENDCHAR
STARTCHAR 0207
ENCODING 519
SWIDTH 462 0
DWIDTH 18 0
BBX 15 25 2 0
BITMAP
07C0
0FE0
1C70
3838
3838
0000
0000
07C0
0FF0
3FF8
3C78
701C
701C
E00E
FFFE
FFFE
FFFE
E000
E000
E000
701C
783C
3EF8
1FF0
0FE0
ENDCHAR
STARTCHAR 0208
ENCODING 520
SWIDTH 308 0
DWIDTH 12 0
BBX 12 33 -2 0
BITMAP
F3C0
79C0
38E0
1C60
0430
0210
0000
0000
0FF0
0FF0
0FF0
01C0
01C0
01C0
01C0
01C0
01C0
01C0
01C0
01C0
01C0
01C0
01C0
01C0
01C0
01C0
01C0
01C0
01C0
01C0
0FF0
0FF0
0FF0
ENDCHAR
STARTCHAR 0209
ENCODING 521
SWIDTH 154 0
DWIDTH 6 0
BBX 12 25 -4 0
BITMAP
E780
7180
30C0
1840
0820
0410
0000
0000
0380
0380
0380
0380
0380
0380
0380
0380
0380
0380
0380
0380
0380
0380
0380
0380
0380
ENDCHAR
STARTCHAR 020A
ENCODING 522
SWIDTH 308 0
DWIDTH 12 0
BBX 10 33 1 0
BITMAP
0C00
3F00
7F80
E1C0
C0C0
C0C0
0000
0000
7F80
7F80
7F80
0E00
0E00
0E00
0E00
0E00
0E00
0E00
0E00
0E00
0E00
0E00
0E00
0E00
0E00
0E00
0E00
0E00
0E00
0E00
7F80
7F80
7F80
ENDCHAR
STARTCHAR 020B
ENCODING 523
SWIDTH 154 0
DWIDTH 6 0
BBX 11 25 -2 0
BITMAP
1F00
3F80
71C0
E0C0
C0E0
0000
0000
0000
0E00
0E00
0E00
0E00
0E00
0E00
0E00
0E00
0E00
0E00
0E00
0E00
0E00
0E00
0E00
0E00
0E00
ENDCHAR
STARTCHAR 020C
ENCODING 524
SWIDTH 617 0
DWIDTH 24 0
BBX 21 33 2 0
BITMAP
3CE000
1C7000
0E3000
061800
030800
010400
000000
000000
03FC00
07FF00
0FDF80
1E03C0
3C01E0
3800E0
7000F0
700070
E00070
E00038
E00038
E00038
E00038
E00038
E00038
E00038
E00070
700070
7000F0
3800E0
3C01E0
1E03C0
0FDF80
07FF00
03FC00
ENDCHAR
STARTCHAR 020D
ENCODING 525
SWIDTH 462 0
DWIDTH 18 0
BBX 15 25 2 0
BITMAP
F380
71C0
38E0
1860
0C30
0410
0000
07C0
0FF0
3FF8
3C78
701C
701C
E00E
E00E
E00E
E00E
E00E
E00E
E00E
701C
783C
3EF8
1FF0
0FE0
ENDCHAR
STARTCHAR 020E
ENCODING 526
SWIDTH 617 0
DWIDTH 24 0
BBX 21 33 2 0
BITMAP
002000
01FC00
03FE00
070600
070700
060700
000000
000000
03FC00
07FF00
0FDF80
1E03C0
3C01E0
3800E0
7000F0
700070
E00070
E00038
E00038
E00038
E00038
E00038
E00038
E00038
E00070
700070
7000F0
3800E0
3C01E0
1E03C0
0FDF80
07FF00
03FC00
ENDCHAR
STARTCHAR 020F
ENCODING 527
SWIDTH 462 0
DWIDTH 18 0
BBX 15 25 2 0
BITMAP
07C0
0FE0
1C70
3838
3838
0000
0000
07C0
0FF0
3FF8
3C78
701C
701C
E00E
E00E
E00E
E00E
E00E
E00E
E00E
701C
783C
3EF8
1FF0
0FE0
ENDCHAR
STARTCHAR 0210
ENCODING 528
SWIDTH 514 0
DWIDTH 20 0
BBX 18 33 1 0
BITMAP
F38000
71C000
38C000
186000
0C2000
041000
000000
000000
7FE000
7FF800
7FFC00
701E00
700E00
700700
700700
700700
700700
700E00
701E00
7FFC00
7FF800
7FF000
707000
707000
703800
703C00
701C00
700E00
700E00
700700
700780
700380
7003C0
ENDCHAR
STARTCHAR 0211
ENCODING 529
SWIDTH 334 0
DWIDTH 13 0
BBX 12 25 -1 0
BITMAP
F380
71C0
38C0
1860
0C20
0410
0000
0070
1DF0
1FF0
1F80
1F00
1E00
1C00
1C00
1C00
1C00
1C00
1C00
1C00
1C00
1C00
1C00
1C00
1C00
ENDCHAR
STARTCHAR 0212
ENCODING 530
SWIDTH 514 0
DWIDTH 20 0
BBX 17 33 2 0
BITMAP
020000
1FC000
3FE000
306000
707000
703000
000000
000000
FFC000
FFF000
FFF800
E03C00
E01C00
E00E00
E00E00
E00E00
E00E00
E01C00
E03C00
FFF800
FFF000
FFE000
E0E000
E0E000
E07000
E07800
E03800
E01C00
E01C00
E00E00
E00F00
E00700
E00780
ENDCHAR
STARTCHAR 0213
ENCODING 531
SWIDTH 334 0
DWIDTH 13 0
BBX 11 25 1 0
BITMAP
1F00
3F80
71C0
60E0
E060
0000
0000
01C0
77C0
7FC0
7E00
7C00
7800
7000
7000
7000
7000
7000
7000
7000
7000
7000
7000
7000
7000
ENDCHAR
STARTCHAR 0214
ENCODING 532
SWIDTH 565 0
DWIDTH 22 0
BBX 19 33 2 0
BITMAP
38E000
1C7000
0E3000
061800
030800
010400
000000
000000
E000E0
E000E0
E000E0
E000E0
E000E0
E000E0
E000E0
E000E0
E000E0
E000E0
E000E0
E000E0
E000E0
E000E0
E000E0
E000E0
E000E0
E000E0
E000E0
7001C0
7803C0
3C0780
1FBF00
0FFE00
07F800
ENDCHAR
STARTCHAR 0215
ENCODING 533
SWIDTH 462 0
DWIDTH 18 0
BBX 15 25 2 0
BITMAP
F380
71C0
38E0
1860
0C30
0410
0000
0000
E00E
E00E
E00E
E00E
E00E
E00E
E00E
E00E
E00E
E00E
E00E
E01E
701E
703E
3FFE
3FFE
1FCE
ENDCHAR
STARTCHAR 0216
ENCODING 534
SWIDTH 565 0
DWIDTH 22 0
BBX 19 33 2 0
BITMAP
004000
03F800
07FC00
0E0C00
0E0E00
0C0E00
000000
000000
E000E0
E000E0
E000E0
E000E0
E000E0
E000E0
E000E0
E000E0
E000E0
E000E0
E000E0
E000E0
E000E0
E000E0
E000E0
E000E0
E000E0
E000E0
E000E0
7001C0
7803C0
3C0780
1FBF00
0FFE00
07F800
ENDCHAR
STARTCHAR 0217
ENCODING 535
SWIDTH 462 0
DWIDTH 18 0
BBX 15 25 2 0
BITMAP
07C0
0FE0
1C70
3838
3838
0000
0000
0000
E00E
E00E
E00E
E00E
E00E
E00E
E00E
E00E
E00E
E00E
E00E
E01E
701E
703E
3FFE
3FFE
1FCE
ENDCHAR
STARTCHAR 0218
ENCODING 536
SWIDTH 462 0
DWIDTH 18 0
BBX 15 37 2 -12
BITMAP
0FE0
1FF0
3EF8
783C
701C
701C
7000
7000
7800
3C00
1F00
0FC0
07F0
00F8
007C
001C
000E
000E
E00E
E00E
F00E
781C
3EFC
3FF8
0FE0
0000
0000
0380
07C0
07C0
03C0
0040
0040
00C0
0080
0300
0600
ENDCHAR
STARTCHAR 0219
ENCODING 537
SWIDTH 385 0
DWIDTH 15 0
BBX 11 30 2 -12
BITMAP
0F00
3F80
7FC0
71E0
E0E0
E000
7800
7C00
1F80
07C0
01E0
00E0
00E0
E0E0
E0E0
7BE0
7FC0
1F80
0000
0000
0E00
1F00
1F00
0F00
0100
0100
0300
0200
0400
1800
ENDCHAR
STARTCHAR 021A
ENCODING 538
SWIDTH 488 0
DWIDTH 19 0
BBX 16 37 2 -12
BITMAP
FFFF
FFFF
FFFF
0380
0380
0380
0380
0380
0380
0380
0380
0380
0380
0380
0380
0380
0380
0380
0380
0380
0380
0380
0380
0380
0380
0000
0000
0380
03C0
03E0
03E0
0060
0040
0040
0080
0100
0600
ENDCHAR
STARTCHAR 021B
ENCODING 539
SWIDTH 334 0
DWIDTH 13 0
BBX 9 34 2 -12
BITMAP
0400
0C00
1C00
1C00
1C00
FF80
FF80
1C00
1C00
1C00
1C00
1C00
1C00
1C00
1C00
1C00
1C00
1C00
1C00
1F80
0F80
0F80
0000
0000
1C00
3E00
3E00
1E00
0200
0200
0600
0400
0800
3000
ENDCHAR
STARTCHAR 021C
ENCODING 540
SWIDTH 462 0
DWIDTH 18 0
BBX 15 25 2 0
BITMAP
1FE0
3FF8
7CFC
F01C
601E
000E
000E
000E
000E
001C
003C
00F8
1FFC
7FDC
7F0E
400E
000E
000E
001E
001C
003C
00F8
3FF0
7FC0
7F00
ENDCHAR
STARTCHAR 021D
ENCODING 541
SWIDTH 462 0
DWIDTH 18 0
BBX 15 26 2 -8
BITMAP
0780
3FF0
7FF8
F83C
E01C
000E
000E
000E
000E
001C
003C
0078
01F8
7FFC
7F9C
7E0E
000E
000E
000E
001C
003C
0078
03F0
7FE0
7F80
7C00
ENDCHAR
STARTCHAR 021E
ENCODING 542
SWIDTH 488 0
DWIDTH 19 0
BBX 16 33 2 0
BITMAP
1008
0810
0C30
0660
07E0
03C0
0000
0000
E007
E007
E007
E007
E007
E007
E007
E007
E007
E007
E007
FFFF
FFFF
FFFF
E007
E007
E007
E007
E007
E007
E007
E007
E007
E007
E007
ENDCHAR
STARTCHAR 021F
ENCODING 543
SWIDTH 462 0
DWIDTH 18 0
BBX 15 33 2 0
BITMAP
1010
1830
0C60
0EE0
07C0
07C0
0000
0000
E000
E000
E000
E000
E000
E000
E000
E3C0
EFF0
FFF8
FC3C
F81C
F00E
E00E
E00E
E00E
E00E
E00E
E00E
E00E
E00E
E00E
E00E
E00E
E00E
ENDCHAR
STARTCHAR 0220
ENCODING 544
SWIDTH 565 0
DWIDTH 22 0
BBX 19 33 2 -8
BITMAP
E7FC00
EFFE00
FFBF00
FC0780
F803C0
F001C0
E000E0
E000E0
E000E0
E000E0
E000E0
E000E0
E000E0
E000E0
E000E0
E000E0
E000E0
E000E0
E000E0
E000E0
E000E0
E000E0
E000E0
E000E0
E000E0
0000E0
0000E0
0000E0
0000E0
0000E0
0000E0
0000E0
0000E0
ENDCHAR
STARTCHAR 0221
ENCODING 545
SWIDTH 694 0
DWIDTH 27 0
BBX 23 33 2 -8
BITMAP
000E00
000E00
000E00
000E00
000E00
000E00
000E00
078E00
0FEE00
3FFE00
3C7E00
701E00
701E00
E00E00
E00E00
E00E00
E00E00
E00E06
E00E0A
E00E12
701E12
783E36
3EFE3C
1FF7F8
0FE3E0
000020
000020
000060
000060
001C40
001C40
000C80
000700
ENDCHAR
STARTCHAR 0222
ENCODING 546
SWIDTH 462 0
DWIDTH 18 0
BBX 15 25 2 0
BITMAP
E00E
E00E
E00E
E00E
F01E
701C
783C
3FF8
1FF0
3FF8
3C78
701C
701C
E00E
E00E
E00E
E00E
E00E
E00E
E00E
701C
783C
3EF8
1FF0
0FE0
ENDCHAR
STARTCHAR 0223
ENCODING 547
SWIDTH 437 0
DWIDTH 17 0
BBX 13 25 2 0
BITMAP
F038
E038
E038
E038
E038
E038
E038
7070
78F0
3FE0
1FC0
3FE0
78F0
7070
E038
E038
E038
E038
E038
E038
F038
7070
7DF0
3FE0
1FC0
ENDCHAR
STARTCHAR 0224
ENCODING 548
SWIDTH 514 0
DWIDTH 20 0
BBX 17 33 2 -8
BITMAP
FFFF80
FFFF80
FFFF80
000700
000F00
000E00
001C00
003C00
007800
007000
00F000
01E000
01C000
038000
078000
070000
0E0000
1E0000
3C0000
380000
780000
F00000
FFFF80
FFFF80
FFFF80
000380
000380
000380
000380
000780
007F00
00FE00
007C00
ENDCHAR
STARTCHAR 0225
ENCODING 549
SWIDTH 385 0
DWIDTH 15 0
BBX 12 25 2 -8
BITMAP
FFF0
FFF0
00F0
01E0
01C0
0380
0780
0700
0E00
1E00
3C00
3800
7800
F000
FFF0
FFF0
FFF0
0070
0070
0070
0070
00E0
0FE0
1FC0
0F80
ENDCHAR
STARTCHAR 0226
ENCODING 550
SWIDTH 642 0
DWIDTH 25 0
BBX 21 32 2 0
BITMAP
007000
007800
00F800
007000
000000
000000
000000
007000
00F800
00F800
00F800
01DC00
01DC00
01DC00
038E00
038E00
038700
070700
070700
0F0380
0FFF80
0FFF80
1FFFC0
1C01C0
1C01C0
3800E0
3800E0
380070
700070
700070
F00038
E00038
ENDCHAR
STARTCHAR 0227
ENCODING 551
SWIDTH 385 0
DWIDTH 15 0
BBX 12 24 2 0
BITMAP
0F00
0F00
0F00
0600
0000
0000
0600
3FC0
7FE0
38F0
0070
0070
0070
0670
3FF0
7FF0
F0F0
E070
E070
E070
E0F0
7FF0
7FF0
1FF0
ENDCHAR
STARTCHAR 0228
ENCODING 552
SWIDTH 488 0
DWIDTH 19 0
BBX 16 33 2 -8
BITMAP
FFFF
FFFF
FFFF
E000
E000
E000
E000
E000
E000
E000
E000
FFFC
FFFC
FFFC
E000
E000
E000
E000
E000
E000
E000
E000
FFFF
FFFF
FFFF
0180
01C0
03F0
0030
0030
0030
07E0
07C0
ENDCHAR
STARTCHAR 0229
ENCODING 553
SWIDTH 462 0
DWIDTH 18 0
BBX 15 26 2 -8
BITMAP
07C0
0FF0
3FF8
3C78
701C
701C
E00E
FFFE
FFFE
FFFE
E000
E000
E000
701C
783C
3EF8
1FF0
0FE0
0300
0380
03E0
0060
0030
0060
0FE0
0F80
ENDCHAR
STARTCHAR 022A
ENCODING 554
SWIDTH 617 0
DWIDTH 24 0
BBX 21 33 2 0
BITMAP
03FE00
03FE00
03FE00
000000
078E00
079F00
078E00
030600
03FC00
07FF00
0FDF80
1E03C0
3C01E0
3800E0
7000F0
700070
E00070
E00038
E00038
E00038
E00038
E00038
E00038
E00038
E00070
700070
7000F0
3800E0
3C01E0
1E03C0
0FDF80
07FF00
03FC00
ENDCHAR
STARTCHAR 022B
ENCODING 555
SWIDTH 462 0
DWIDTH 18 0
BBX 15 30 2 0
BITMAP
1FF0
1FF0
1FF0
0000
0000
0000
1C70
3C78
3C78
1830
0000
0000
07C0
0FF0
3FF8
3C78
701C
701C
E00E
E00E
E00E
E00E
E00E
E00E
E00E
701C
783C
3EF8
1FF0
0FE0
ENDCHAR
STARTCHAR 022C
ENCODING 556
SWIDTH 617 0
DWIDTH 24 0
BBX 21 33 2 0
BITMAP
03FE00
03FE00
03FE00
078180
0FE180
0C7F00
081F00
000000
03FC00
07FF00
0FDF80
1E03C0
3C01E0
3800E0
7000F0
700070
E00070
E00038
E00038
E00038
E00038
E00038
E00038
E00038
E00070
700070
7000F0
3800E0
3C01E0
1E03C0
0FDF80
07FF00
03FC00
ENDCHAR
STARTCHAR 022D
ENCODING 557
SWIDTH 462 0
DWIDTH 18 0
BBX 15 30 2 0
BITMAP
1FF0
1FF0
1FF0
0000
0000
0800
3E0C
7F8C
61F8
60F8
0000
0000
07C0
0FF0
3FF8
3C78
701C
701C
E00E
E00E
E00E
E00E
E00E
E00E
E00E
701C
783C
3EF8
1FF0
0FE0
ENDCHAR
STARTCHAR 022E
ENCODING 558
SWIDTH 617 0
DWIDTH 24 0
BBX 21 32 2 0
BITMAP
007000
00F000
00F000
007000
000000
000000
000000
03FC00
07FF00
0FDF80
1E03C0
3C01E0
3800E0
7000F0
700070
E00070
E00038
E00038
E00038
E00038
E00038
E00038
E00038
E00070
700070
7000F0
3800E0
3C01E0
1E03C0
0FDF80
07FF00
03FC00
ENDCHAR
STARTCHAR 022F
ENCODING 559
SWIDTH 462 0
DWIDTH 18 0
BBX 15 24 2 0
BITMAP
0380
07C0
0380
0380
0000
0000
07C0
0FF0
3FF8
3C78
701C
701C
E00E
E00E
E00E
E00E
E00E
E00E
E00E
701C
783C
3EF8
1FF0
0FE0
ENDCHAR
STARTCHAR 0230
ENCODING 560
SWIDTH 617 0
DWIDTH 24 0
BBX 21 33 2 0
BITMAP
03FE00
03FE00
03FE00
007000
00F000
00F000
007000
000000
03FC00
07FF00
0FDF80
1E03C0
3C01E0
3800E0
7000F0
700070
E00070
E00038
E00038
E00038
E00038
E00038
E00038
E00038
E00070
700070
7000F0
3800E0
3C01E0
1E03C0
0FDF80
07FF00
03FC00
ENDCHAR
STARTCHAR 0231
ENCODING 561
SWIDTH 462 0
DWIDTH 18 0
BBX 15 30 2 0
BITMAP
1FF0
1FF0
1FF0
0000
0000
0000
0380
07C0
0380
0380
0000
0000
07C0
0FF0
3FF8
3C78
701C
701C
E00E
E00E
E00E
E00E
E00E
E00E
E00E
701C
783C
3EF8
1FF0
0FE0
ENDCHAR
STARTCHAR 0232
ENCODING 562
SWIDTH 617 0
DWIDTH 24 0
BBX 21 31 2 0
BITMAP
03FE00
03FE00
03FE00
000000
000000
000000
F00078
7000F0
3800E0
3C01C0
1E03C0
0E0380
070700
078F00
039E00
01DC00
01FC00
00F800
007000
007000
007000
007000
007000
007000
007000
007000
007000
007000
007000
007000
007000
ENDCHAR
STARTCHAR 0233
ENCODING 563
SWIDTH 488 0
DWIDTH 19 0
BBX 15 31 2 -8
BITMAP
1FF8
1FF8
1FF8
0000
0000
0000
E00E
700E
700E
701C
381C
3838
3838
1C38
1C70
0E70
0E70
0EE0
07E0
07E0
07C0
03C0
0380
0380
0380
0700
0700
0F00
3E00
7C00
7800
ENDCHAR
STARTCHAR 0234
ENCODING 564
SWIDTH 360 0
DWIDTH 14 0
BBX 12 33 1 -8
BITMAP
7000
7000
7000
7000
7000
7000
7000
7000
7000
7000
7000
7000
7000
7000
7000
7000
7000
7070
7090
7090
71B0
7120
7160
7FC0
3F00
0300
0300
0300
0200
C200
C600
E400
3800
ENDCHAR
STARTCHAR 0235
ENCODING 565
SWIDTH 694 0
DWIDTH 27 0
BBX 23 26 2 -8
BITMAP
03C000
EFF000
FFF800
FC3C00
F81C00
F00E00
E00E00
E00E00
E00E00
E00E00
E00E06
E00E0A
E00E12
E00E12
E00E36
E00E3C
E007F8
E003E0
000020
000020
000060
000060
001C40
001C40
000C80
000700
ENDCHAR
STARTCHAR 0236
ENCODING 566
SWIDTH 462 0
DWIDTH 18 0
BBX 14 29 2 -8
BITMAP
1C00
1C00
1C00
1C00
FF80
FF80
1C00
1C00
1C00
1C00
1C00
1C00
1C00
1C0C
1C14
1C24
1C24
1C6C
1E78
0FF0
07C0
0040
0040
0040
00C0
3880
3880
1900
0E00
ENDCHAR
STARTCHAR 0237
ENCODING 567
SWIDTH 154 0
DWIDTH 6 0
BBX 9 25 -4 -8
BITMAP
0380
0380
0380
0380
0380
0380
0380
0380
0380
0380
0380
0380
0380
0380
0380
0380
0380
0380
0380
0380
0380
0700
7F00
FE00
7C00
ENDCHAR
STARTCHAR 0238
ENCODING 568
SWIDTH 797 0
DWIDTH 31 0
BBX 27 25 2 0
BITMAP
000E0000
000E0000
000E0000
000E0000
000E0000
000E0000
000E0000
078E3C00
0FEEFF00
3FFFFF80
3C7FC3C0
701F81C0
701F00E0
E00F00E0
E00E00E0
E00E0060
E00E0060
E00E00E0
E00E00E0
E00F00E0
701F01E0
783F83C0
3EFFFF80
1FFFFF80
0FEEFE00
ENDCHAR
STARTCHAR 0239
ENCODING 569
SWIDTH 797 0
DWIDTH 31 0
BBX 27 26 2 -9
BITMAP
07803C00
0FEEFF00
3FFFFF80
3C7FC3C0
701F81C0
701F00E0
E00F00E0
E00E00E0
E00E0060
E00E0060
E00E00E0
E00E00E0
E00F00E0
701F01E0
783F83C0
3EFFFF80
1FFFFF80
0FEEFE00
000E0000
000E0000
000E0000
000E0000
000E0000
000E0000
000E0000
00060000
ENDCHAR
STARTCHAR 023A
ENCODING 570
SWIDTH 642 0
DWIDTH 25 0
BBX 21 27 2 -1
BITMAP
000038
007078
00F8F0
00F8E0
00F9E0
01DFC0
01DF80
01DF00
038F00
038E00
039F00
073F00
077F00
0F7380
0FFF80
0FFF80
1FFFC0
1F81C0
1F81C0
3F00E0
3E00E0
3E0070
7C0070
780070
F80038
F00038
600000
ENDCHAR
STARTCHAR 023B
ENCODING 571
SWIDTH 591 0
DWIDTH 23 0
BBX 20 28 2 -2
BITMAP
000020
000030
03FC70
07FFF0
0FDFE0
1E03C0
3C03E0
7807E0
700780
700F00
E01E00
E01C00
E03800
E07800
E07000
E0E000
E1E000
E3C000
E38000
778000
7F0080
3E00E0
3C01E0
3E03C0
3FDF80
77FF00
F3FC00
E00000
ENDCHAR
STARTCHAR 023C
ENCODING 572
SWIDTH 462 0
DWIDTH 18 0
BBX 16 22 1 -2
BITMAP
0002
0003
03E7
07FF
1FFE
1E3C
383E
387C
7070
70E0
71E0
71C0
7380
7780
7F00
3E0E
3E1E
3F7C
3FF8
77F0
F000
6000
ENDCHAR
STARTCHAR 023D
ENCODING 573
SWIDTH 565 0
DWIDTH 22 0
BBX 19 25 2 0
BITMAP
1C0000
1C0000
1C0000
1C0000
1C0000
1C0000
1C0000
1C0000
1C0000
1C0000
1C0000
FF8000
FF8000
FF8000
1C0000
1C0000
1C0000
1C0000
1C0000
1C0000
1C0000
1C0000
1FFFE0
1FFFE0
1FFFE0
ENDCHAR
STARTCHAR 023E
ENCODING 574
SWIDTH 488 0
DWIDTH 19 0
BBX 20 28 0 -1
BITMAP
000070
3FFFF0
3FFFE0
3FFFE0
00E3C0
00E380
00E780
00EF00
00EE00
00FC00
00FC00
00F800
00F000
00F000
01E000
01E000
03E000
07E000
07E000
0EE000
1EE000
1CE000
38E000
78E000
F0E000
E0E000
E00000
400000
ENDCHAR
STARTCHAR 023F
ENCODING 575
SWIDTH 385 0
DWIDTH 15 0
BBX 19 27 2 -9
BITMAP
060000
3F8000
7FC000
71E000
E0E000
E00000
700000
7C0000
3F8000
0FC000
01E000
00E000
00E000
E0E000
E0E000
7BE000
7FC000
1FC000
03C000
00E000
00E000
007000
007000
0078C0
003FE0
001FC0
000F80
ENDCHAR
STARTCHAR 0240
ENCODING 576
SWIDTH 385 0
DWIDTH 15 0
BBX 18 26 2 -9
BITMAP
FFF000
FFF000
00F000
01E000
01C000
038000
078000
070000
0E0000
1E0000
3C0000
380000
780000
F00000
FC0000
FF0000
FF8000
038000
03C000
01C000
01E000
00E000
00F380
007FC0
003F80
000E00
ENDCHAR
STARTCHAR 0241
ENCODING 577
SWIDTH 462 0
DWIDTH 18 0
BBX 15 25 2 0
BITMAP
0FE0
1FF0
3EF8
783C
701C
E00E
E00E
E00E
E00E
000E
000E
000E
001C
001C
0078
03F8
03E0
0380
0380
0380
0380
0380
0380
0380
0380
ENDCHAR
STARTCHAR 0242
ENCODING 578
SWIDTH 360 0
DWIDTH 14 0
BBX 10 18 2 0
BITMAP
0C00
3F80
7FC0
F3C0
E1C0
01C0
01C0
01C0
03C0
0780
0700
0E00
0E00
0E00
0E00
0E00
0E00
0E00
ENDCHAR
STARTCHAR 0243
ENCODING 579
SWIDTH 565 0
DWIDTH 22 0
BBX 19 25 2 0
BITMAP
1FFC00
1FFE00
1FFF00
1C0780
1C0380
1C01C0
1C01C0
1C01C0
1C0380
1C0780
1FFF00
1FFE00
1FFF80
1C0780
1C01C0
1C01C0
FF80E0
FF80E0
FF80E0
1C01C0
1C01C0
1C03C0
1FFF80
1FFF00
1FFC00
ENDCHAR
STARTCHAR 0244
ENCODING 580
SWIDTH 668 0
DWIDTH 26 0
BBX 23 25 2 0
BITMAP
380038
380038
380038
380038
380038
380038
380038
380038
380038
380038
380038
FFFFFE
FFFFFE
FFFFFE
380038
380038
380038
380038
380070
3C0070
1E00F0
0F01E0
0FFFC0
03FF80
01FE00
ENDCHAR
STARTCHAR 0245
ENCODING 581
SWIDTH 642 0
DWIDTH 25 0
BBX 21 25 2 0
BITMAP
007000
00F800
00F800
00F800
01DC00
01DC00
01DC00
038E00
038E00
038700
070700
070700
0F0380
0E0380
0E0380
1C01C0
1C01C0
1C01C0
3800E0
3800E0
380070
700070
700070
F00038
E00038
ENDCHAR
STARTCHAR 0246
ENCODING 582
SWIDTH 488 0
DWIDTH 19 0
BBX 20 28 0 -1
BITMAP
000070
3FFFF0
3FFFE0
3FFFE0
3803C0
380380
380780
380F00
380E00
381C00
383C00
383800
3FFF00
3FFF00
3FFF00
39C000
3BC000
3F8000
3F0000
3E0000
3E0000
3C0000
380000
7FFFC0
FFFFC0
FFFFC0
C00000
400000
ENDCHAR
STARTCHAR 0247
ENCODING 583
SWIDTH 462 0
DWIDTH 18 0
BBX 16 22 1 -2
BITMAP
0002
0003
03E7
07FF
1FFE
1E3C
383E
387E
7077
7FFF
7FFF
7FFF
7380
7780
7F00
3E0E
3E1E
3F7C
3FF8
77F0
F000
6000
ENDCHAR
STARTCHAR 0248
ENCODING 584
SWIDTH 437 0
DWIDTH 17 0
BBX 13 25 2 0
BITMAP
00E0
00E0
00E0
00E0
00E0
00E0
00E0
00E0
00E0
00E0
00E0
0FF8
0FF8
0FF8
00E0
00E0
00E0
00E0
00E0
00E0
E0E0
E1C0
FFC0
7F80
3F00
ENDCHAR
STARTCHAR 0249
ENCODING 585
SWIDTH 334 0
DWIDTH 13 0
BBX 11 32 0 -8
BITMAP
0780
0780
0780
0300
0000
0000
0000
0380
0380
0380
0380
0380
0380
0380
3FE0
3FE0
3FE0
0380
0380
0380
0380
0380
0380
0380
0380
0380
0380
0300
0700
7F00
FE00
7800
ENDCHAR
STARTCHAR 024A
ENCODING 586
SWIDTH 617 0
DWIDTH 24 0
BBX 27 33 2 -8
BITMAP
03FC3800
07FF3800
0FDFB800
1E03F800
3C01F800
3800F800
7000F800
70007800
E0007800
E0003800
E0003800
E0003800
E0003800
E0003800
E0003800
E0003800
E0007800
70007800
7000F800
3800F800
3C01F800
1E03F800
0FDFB800
07FF3800
03FC3800
00003800
00003800
00003800
00003800
00003C00
00001FC0
00000FE0
000007C0
ENDCHAR
STARTCHAR 024B
ENCODING 587
SWIDTH 462 0
DWIDTH 18 0
BBX 21 26 2 -8
BITMAP
078000
0FEE00
3FFE00
3C7E00
701E00
701E00
E00E00
E00E00
E00E00
E00E00
E00E00
E00E00
E00E00
701E00
783E00
3EFE00
1FFE00
0FEE00
000E00
000E00
000E00
000E00
000700
0007F0
0003F8
0001F0
ENDCHAR
STARTCHAR 024C
ENCODING 588
SWIDTH 591 0
DWIDTH 23 0
BBX 20 25 2 0
BITMAP
1FF800
1FFE00
1FFF00
1C0780
1C0380
1C01C0
1C01C0
1C01C0
1C01C0
1C0380
1C0780
FFFF00
FFFE00
FFF800
1C1C00
1C1C00
1C0E00
1C0F00
1C0700
1C0780
1C0380
1C01C0
1C01C0
1C00E0
1C00F0
ENDCHAR
STARTCHAR 024D
ENCODING 589
SWIDTH 411 0
DWIDTH 16 0
BBX 12 18 2 0
BITMAP
0070
1DF0
1FF0
1F80
1E00
1E00
1C00
1C00
FF80
FF80
FF80
1C00
1C00
1C00
1C00
1C00
1C00
1C00
ENDCHAR
STARTCHAR 024E
ENCODING 590
SWIDTH 617 0
DWIDTH 24 0
BBX 21 25 2 0
BITMAP
F00078
7000F0
3800E0
3C01C0
FFFFF8
FFFFF8
FFFFF8
078F00
039E00
01DC00
01FC00
00F800
007000
007000
007000
007000
007000
007000
007000
007000
007000
007000
007000
007000
007000
ENDCHAR
STARTCHAR 024F
ENCODING 591
SWIDTH 488 0
DWIDTH 19 0
BBX 16 25 2 -8
BITMAP
E00E
700E
700E
701C
381C
3838
3838
FFFF
FFFF
FFFF
0E70
0EE0
07E0
07E0
07C0
03C0
0380
0380
0380
0700
0700
0F00
3E00
7C00
7800
ENDCHAR
STARTCHAR 0250
ENCODING 592
SWIDTH 385 0
DWIDTH 15 0
BBX 12 18 2 0
BITMAP
0F00
FFC0
FFE0
F0E0
E070
E070
E070
E0F0
FFE0
FFC0
FF80
E000
E000
E000
E080
FFC0
7FC0
1F80
ENDCHAR
STARTCHAR 0251
ENCODING 593
SWIDTH 462 0
DWIDTH 18 0
BBX 15 18 2 0
BITMAP
0780
0FEE
3FFE
3C7E
701E
701E
E00E
E00E
E00E
E00E
E00E
E00E
E00E
701E
783E
3EFE
1FFE
0FEE
ENDCHAR
STARTCHAR 0252
ENCODING 594
SWIDTH 462 0
DWIDTH 18 0
BBX 15 18 2 0
BITMAP
07C0
FFF0
FFF8
FC78
F01C
F01C
E00E
E00E
E00E
E00E
E00E
E00E
E00E
F01C
F83C
FEF8
FFF0
EFE0
ENDCHAR
STARTCHAR 0253
ENCODING 595
SWIDTH 462 0
DWIDTH 18 0
BBX 15 25 2 0
BITMAP
3F00
7F00
FA00
E000
E000
E000
E000
E7C0
FFF0
FFF8
FC78
F01C
F01C
E00E
E00E
E00E
E00E
E00E
E00E
E00E
F01C
F83C
FEF8
FFF0
EFE0
ENDCHAR
STARTCHAR 0254
ENCODING 596
SWIDTH 462 0
DWIDTH 18 0
BBX 14 18 2 0
BITMAP
0F80
1FE0
7FF0
78F0
E038
6038
001C
001C
001C
001C
001C
001C
001C
E038
F078
7DF0
3FE0
1FC0
ENDCHAR
STARTCHAR 0255
ENCODING 597
SWIDTH 462 0
DWIDTH 18 0
BBX 15 26 2 -8
BITMAP
07C0
0FF0
3FF8
3C78
701C
7018
E000
E000
E000
E000
E00E
E012
E024
7024
782C
3EF8
1FF0
0FE0
0060
0040
0040
0040
18C0
3880
1980
0E00
ENDCHAR
STARTCHAR 0256
ENCODING 598
SWIDTH 462 0
DWIDTH 18 0
BBX 21 33 2 -8
BITMAP
000E00
000E00
000E00
000E00
000E00
000E00
000E00
078E00
0FEE00
3FFE00
3C7E00
701E00
701E00
E00E00
E00E00
E00E00
E00E00
E00E00
E00E00
E00E00
701E00
783E00
3EFE00
1FFE00
0FEE00
000E00
000E00
000E00
000E00
000700
0007F0
0003F8
0001F0
ENDCHAR
STARTCHAR 0257
ENCODING 599
SWIDTH 462 0
DWIDTH 18 0
BBX 21 25 2 0
BITMAP
0001F8
0007F0
0007B0
000E00
000E00
000E00
000E00
078E00
0FEE00
3FFE00
3C7E00
701E00
701E00
E00E00
E00E00
E00E00
E00E00
E00E00
E00E00
E00E00
701E00
783E00
3EFE00
1FFE00
0FEE00
ENDCHAR
STARTCHAR 0258
ENCODING 600
SWIDTH 462 0
DWIDTH 18 0
BBX 15 18 2 0
BITMAP
07C0
0FF0
3FF8
3C78
701C
701C
E00E
FFFE
FFFE
FFFE
000E
000E
000E
701C
783C
3EF8
1FF0
0FE0
ENDCHAR
STARTCHAR 0259
ENCODING 601
SWIDTH 462 0
DWIDTH 18 0
BBX 15 18 2 0
BITMAP
07C0
0FF0
3FF8
3C78
701C
301C
000E
000E
000E
FFFE
FFFE
FFFE
E00E
701C
783C
3EF8
1FF0
0FE0
ENDCHAR
STARTCHAR 025A
ENCODING 602
SWIDTH 668 0
DWIDTH 26 0
BBX 23 18 2 0
BITMAP
07C000
0FF000
3FF800
3C7800
701C00
301C00
000E06
000E46
000FC6
FFFFC6
FFFEC6
FFFE7C
E00E38
701C00
783C00
3EF800
1FF000
0FE000
ENDCHAR
STARTCHAR 025B
ENCODING 603
SWIDTH 385 0
DWIDTH 15 0
BBX 11 18 2 0
BITMAP
0E00
3F80
7FC0
71C0
70C0
7000
7000
7E00
3E00
7E00
F000
E000
E000
E0E0
E0E0
7BE0
7FC0
1F80
ENDCHAR
STARTCHAR 025C
ENCODING 604
SWIDTH 385 0
DWIDTH 15 0
BBX 11 18 2 0
BITMAP
0E00
3F80
7FC0
71C0
70C0
01C0
01C0
0FC0
0F80
0FC0
01E0
00E0
00E0
E0E0
E0E0
7BE0
7FC0
3F80
ENDCHAR
STARTCHAR 025D
ENCODING 605
SWIDTH 565 0
DWIDTH 22 0
BBX 18 18 2 0
BITMAP
0E0000
3F8000
7FC0C0
71C8C0
70F8C0
01F8C0
01CCC0
0FCFC0
0F8780
0FC000
01E000
00E000
00E000
E0E000
E0E000
7BE000
7FC000
3F8000
ENDCHAR
STARTCHAR 025E
ENCODING 606
SWIDTH 437 0
DWIDTH 17 0
BBX 13 18 2 0
BITMAP
0780
0FE0
3FF0
3C70
7070
7070
E070
E3F0
E3E0
E3F0
E078
E038
E038
7038
7838
3EF0
1FF0
0FE0
ENDCHAR
STARTCHAR 025F
ENCODING 607
SWIDTH 334 0
DWIDTH 13 0
BBX 12 25 -1 -8
BITMAP
0380
0380
0380
0380
0380
0380
0380
0380
0380
0380
0380
0380
0380
1FF0
1FF0
0380
0380
0380
0380
0380
0380
0780
7F00
FE00
7C00
ENDCHAR
STARTCHAR 0260
ENCODING 608
SWIDTH 462 0
DWIDTH 18 0
BBX 21 33 2 -8
BITMAP
0001F0
0003F8
0007F0
000700
000E00
000E00
000E00
078E00
0FEE00
3FFE00
3C7E00
701E00
701E00
E00E00
E00E00
E00E00
E00E00
E00E00
E00E00
E00E00
701E00
783E00
3EFE00
1FFE00
0FEE00
000E00
000E00
000E00
200E00
783C00
7FFC00
1FF000
0FC000
ENDCHAR
STARTCHAR 0261
ENCODING 609
SWIDTH 462 0
DWIDTH 18 0
BBX 15 26 2 -8
BITMAP
0780
0FEE
3FFE
3C7E
701E
701E
E00E
E00E
E00E
E00E
E00E
E00E
E00E
701E
783E
3EFE
1FFE
0FEE
000E
000E
000E
200E
783C
7FFC
1FF0
0FC0
ENDCHAR
STARTCHAR 0262
ENCODING 610
SWIDTH 462 0
DWIDTH 18 0
BBX 14 18 2 0
BITMAP
07C0
0FF0
3FF8
3C78
701C
7018
E000
E000
E1FC
E1FC
E1FC
E01C
E01C
701C
783C
3EF8
1FF0
0FE0
ENDCHAR
STARTCHAR 0263
ENCODING 611
SWIDTH 488 0
DWIDTH 19 0
BBX 15 25 2 -8
BITMAP
E00E
700E
700E
701C
381C
3838
3838
1C38
1C70
0E70
0E70
0EE0
07E0
07E0
07C0
03C0
0380
03C0
07C0
07E0
0EE0
0EE0
0FE0
07E0
03C0
ENDCHAR
STARTCHAR 0264
ENCODING 612
SWIDTH 617 0
DWIDTH 24 0
BBX 21 18 2 0
BITMAP
1C01C0
7F07F0
FF8FF8
639E30
01DC00
01DC00
00F800
00F800
00F800
007000
00F000
00F800
00F800
01FC00
01DC00
01DC00
01FC00
00F800
ENDCHAR
STARTCHAR 0265
ENCODING 613
SWIDTH 462 0
DWIDTH 18 0
BBX 15 25 2 -9
BITMAP
E00E
E00E
E00E
E00E
E00E
E00E
E00E
E00E
E00E
E00E
E00E
E01E
701E
703E
3FFE
3FFE
1FCE
000E
000E
000E
000E
000E
000E
000E
0006
ENDCHAR
STARTCHAR 0266
ENCODING 614
SWIDTH 462 0
DWIDTH 18 0
BBX 15 25 2 0
BITMAP
3F00
7F00
FA00
E000
E000
E000
E000
E3C0
EFF0
FFF8
FC3C
F81C
F00E
E00E
E00E
E00E
E00E
E00E
E00E
E00E
E00E
E00E
E00E
E00E
E00E
ENDCHAR
STARTCHAR 0267
ENCODING 615
SWIDTH 462 0
DWIDTH 18 0
BBX 15 33 2 -8
BITMAP
3F00
7F00
FA00
E000
E000
E000
E000
E3C0
EFF0
FFF8
FC3C
F81C
F00E
E00E
E00E
E00E
E00E
E00E
E00E
E00E
E00E
E00E
E00E
E00E
E00E
000E
000E
000E
000E
001E
01FC
03F8
01F0
ENDCHAR
STARTCHAR 0268
ENCODING 616
SWIDTH 308 0
DWIDTH 12 0
BBX 8 24 2 0
BITMAP
1C
3C
3C
18
00
00
00
1C
1C
1C
1C
1C
1C
1C
FF
FF
FF
1C
1C
1C
1C
1C
1C
1C
ENDCHAR
STARTCHAR 0269
ENCODING 617
SWIDTH 231 0
DWIDTH 9 0
BBX 6 17 2 0
BITMAP
E0
E0
E0
E0
E0
E0
E0
E0
E0
E0
E0
E0
E0
E0
FC
FC
7C
ENDCHAR
STARTCHAR 026A
ENCODING 618
SWIDTH 308 0
DWIDTH 12 0
BBX 8 17 2 0
BITMAP
FF
FF
1C
1C
1C
1C
1C
1C
1C
1C
1C
1C
1C
1C
FF
FF
FF
ENDCHAR
STARTCHAR 026B
ENCODING 619
SWIDTH 437 0
DWIDTH 17 0
BBX 13 25 2 0
BITMAP
0700
0700
0700
0700
0700
0700
0700
0700
0700
0700
3F08
7F18
EF98
C7F0
C7E0
0700
0700
0700
0700
0700
0700
0700
07E0
07E0
03E0
ENDCHAR
STARTCHAR 026C
ENCODING 620
SWIDTH 437 0
DWIDTH 17 0
BBX 13 25 2 0
BITMAP
0380
0380
0380
0380
0380
0B80
3F80
7F80
F780
E380
E3B8
E3B8
F3F8
7FF0
7FE0
1FC0
0380
0380
0380
0380
0380
0380
03E0
03E0
01E0
ENDCHAR
STARTCHAR 026D
ENCODING 621
SWIDTH 154 0
DWIDTH 6 0
BBX 9 33 2 -8
BITMAP
E000
E000
E000
E000
E000
E000
E000
E000
E000
E000
E000
E000
E000
E000
E000
E000
E000
E000
E000
E000
E000
E000
E000
E000
E000
E000
E000
E000
E000
F000
7F00
3F80
1F00
ENDCHAR
STARTCHAR 026E
ENCODING 622
SWIDTH 462 0
DWIDTH 18 0
BBX 15 33 2 -8
BITMAP
E000
E000
E000
E000
E000
E000
E000
E000
FFFE
FFFE
E01E
E01C
E03C
E078
E070
E0E0
E1E0
E1F0
E3F8
E03C
E01C
E00E
E00E
E00E
E00E
000E
000E
001E
001C
183C
3FF8
1FF0
07C0
ENDCHAR
STARTCHAR 026F
ENCODING 623
SWIDTH 591 0
DWIDTH 23 0
BBX 20 17 2 0
BITMAP
E0E070
E0E070
E0E070
E0E070
E0E070
E0E070
E0E070
E0E070
E0E070
E0E070
E0E070
E0E0F0
E1F0F0
61F1F0
7FFBF0
7FBFF0
3F1F70
ENDCHAR
STARTCHAR 0270
ENCODING 624
SWIDTH 591 0
DWIDTH 23 0
BBX 20 25 2 -9
BITMAP
E0E070
E0E070
E0E070
E0E070
E0E070
E0E070
E0E070
E0E070
E0E070
E0E070
E0E070
E0E0F0
E1F0F0
61F1F0
7FFBF0
7FBFF0
3F1F70
000070
000070
000070
000070
000070
000070
000070
000030
ENDCHAR
STARTCHAR 0271
ENCODING 625
SWIDTH 591 0
DWIDTH 23 0
BBX 20 26 2 -8
BITMAP
070700
FF8FC0
FFDFC0
F9FCE0
F0F860
E0F060
E0F070
E0E070
E0E070
E0E070
E0E070
E0E070
E0E070
E0E070
E0E070
E0E070
E0E070
E0E070
000070
000070
000070
000070
0000F0
000FE0
001FC0
000F80
ENDCHAR
STARTCHAR 0272
ENCODING 626
SWIDTH 462 0
DWIDTH 18 0
BBX 21 26 -4 -8
BITMAP
000F00
03BFC0
03FFE0
03F0F0
03E070
03C038
038038
038038
038038
038038
038038
038038
038038
038038
038038
038038
038038
038038
038000
038000
038000
038000
070000
7F0000
FE0000
7C0000
ENDCHAR
STARTCHAR 0273
ENCODING 627
SWIDTH 462 0
DWIDTH 18 0
BBX 21 26 2 -8
BITMAP
03C000
EFF000
FFF800
FC3C00
F81C00
F00E00
E00E00
E00E00
E00E00
E00E00
E00E00
E00E00
E00E00
E00E00
E00E00
E00E00
E00E00
E00E00
000E00
000E00
000E00
000E00
000700
0007F0
0003F8
0001F0
ENDCHAR
STARTCHAR 0274
ENCODING 628
SWIDTH 462 0
DWIDTH 18 0
BBX 14 17 2 0
BITMAP
E00C
F00C
F80C
FC0C
FC0C
FE0C
EF0C
E70C
E38C
E3CC
E1CC
E0EC
E0FC
E07C
E03C
E03C
E01C
ENDCHAR
STARTCHAR 0275
ENCODING 629
SWIDTH 462 0
DWIDTH 18 0
BBX 15 18 2 0
BITMAP
07C0
0FF0
3FF8
3C78
701C
701C
E00E
E00E
FFFE
FFFE
FFFE
E00E
E00E
701C
783C
3EF8
1FF0
0FE0
ENDCHAR
STARTCHAR 0276
ENCODING 630
SWIDTH 720 0
DWIDTH 28 0
BBX 24 18 2 0
BITMAP
078000
0FEFFF
3FFFFF
3C7E00
701E00
701E00
E00E00
E00E00
E00FFC
E00FFC
E00FFC
E00E00
E00E00
701E00
783E00
3EFFFF
1FFFFF
0FEFFF
ENDCHAR
STARTCHAR 0277
ENCODING 631
SWIDTH 591 0
DWIDTH 23 0
BBX 20 18 2 0
BITMAP
07FE00
1FFF80
3FFFC0
7801E0
7000E0
E000E0
E00070
E00070
E00070
E0E070
E0E070
E0E070
E0F060
70F0E0
71F8E0
7FFFC0
3F9FC0
1F0F80
ENDCHAR
STARTCHAR 0278
ENCODING 632
SWIDTH 462 0
DWIDTH 18 0
BBX 15 33 2 -9
BITMAP
0380
0380
0380
0380
0380
0380
0380
07C0
1FF0
3FF8
3FF8
739C
739C
E38E
E38E
E38E
E38E
E38E
E38E
E38E
739C
7BBC
3FF8
1FF0
0FE0
0380
0380
0380
0380
0380
0380
0380
0180
ENDCHAR
STARTCHAR 0279
ENCODING 633
SWIDTH 334 0
DWIDTH 13 0
BBX 9 17 2 0
BITMAP
0180
0180
0180
0180
0180
0180
0180
0180
0180
0380
0380
0380
0780
0F80
3F80
FD80
F980
ENDCHAR
STARTCHAR 027A
ENCODING 634
SWIDTH 334 0
DWIDTH 13 0
BBX 9 25 2 0
BITMAP
0180
0180
0180
0180
0180
0180
0180
0180
0180
0180
0180
0180
0180
0180
0180
0180
0180
0380
0380
0380
0780
0F80
3F80
FD80
F980
ENDCHAR
STARTCHAR 027B
ENCODING 635
SWIDTH 334 0
DWIDTH 13 0
BBX 15 25 2 -8
BITMAP
0180
0180
0180
0180
0180
0180
0180
0180
0180
0380
0380
0380
0780
0F80
3F80
FD80
F980
0180
0180
0180
01C0
01C0
01FC
00FE
003C
ENDCHAR
STARTCHAR 027C
ENCODING 636
SWIDTH 334 0
DWIDTH 13 0
BBX 9 26 2 -9
BITMAP
0380
EF80
FF80
FC00
F800
F000
E000
E000
E000
E000
E000
E000
E000
E000
E000
E000
E000
E000
E000
E000
E000
E000
E000
E000
E000
6000
ENDCHAR
STARTCHAR 027D
ENCODING 637
SWIDTH 334 0
DWIDTH 13 0
BBX 9 26 2 -8
BITMAP
0380
EF80
FF80
FC00
F800
F000
E000
E000
E000
E000
E000
E000
E000
E000
E000
E000
E000
E000
E000
E000
E000
E000
F000
7F00
3F80
1F00
ENDCHAR
STARTCHAR 027E
ENCODING 638
SWIDTH 308 0
DWIDTH 12 0
BBX 9 18 2 0
BITMAP
1E00
3F80
7F00
F000
E000
E000
E000
E000
E000
E000
E000
E000
E000
E000
E000
E000
E000
E000
ENDCHAR
STARTCHAR 027F
ENCODING 639
SWIDTH 308 0
DWIDTH 12 0
BBX 9 26 2 -9
BITMAP
7800
FE00
7F00
0700
0380
0380
0380
0380
0380
0380
0380
0380
0380
0380
0380
0380
0380
0380
0380
0380
0380
0380
0380
0380
0380
0180
ENDCHAR
STARTCHAR 0280
ENCODING 640
SWIDTH 411 0
DWIDTH 16 0
BBX 12 17 2 0
BITMAP
FF00
FF80
E3C0
E1C0
E1C0
E1C0
E1C0
FFC0
FF80
FF00
E780
E380
E3C0
E1C0
E1E0
E0E0
E070
ENDCHAR
STARTCHAR 0281
ENCODING 641
SWIDTH 411 0
DWIDTH 16 0
BBX 12 17 2 0
BITMAP
E0F0
E0E0
E1E0
E1C0
E380
E780
FF00
FF00
FF80
E3C0
E1C0
E1C0
E1C0
E1C0
FFC0
FF80
FE00
ENDCHAR
STARTCHAR 0282
ENCODING 642
SWIDTH 385 0
DWIDTH 15 0
BBX 11 26 2 -8
BITMAP
0600
3F80
7FC0
71E0
E0E0
E000
7000
7C00
3F80
0FC0
01E0
00E0
00E0
E0E0
E0E0
FBE0
FFC0
FF80
E000
E000
E000
E000
F000
7F00
3F80
1F00
ENDCHAR
STARTCHAR 0283
ENCODING 643
SWIDTH 154 0
DWIDTH 6 0
BBX 14 33 -4 -8
BITMAP
00FC
01FC
03E8
0380
0380
0380
0380
0380
0380
0380
0380
0380
0380
0380
0380
0380
0380
0380
0380
0380
0380
0380
0380
0380
0380
0380
0380
0380
0380
0700
7F00
FE00
7C00
ENDCHAR
STARTCHAR 0284
ENCODING 644
SWIDTH 154 0
DWIDTH 6 0
BBX 14 33 -4 -8
BITMAP
00FC
01FC
03E8
0380
0380
0380
0380
0380
0380
0380
0380
0380
0380
0380
0380
0380
0380
0380
0380
0380
0380
0380
3FF8
3FF8
3FF8
0380
0380
0380
0380
0700
7F00
FE00
7C00
ENDCHAR
STARTCHAR 0285
ENCODING 645
SWIDTH 308 0
DWIDTH 12 0
BBX 15 26 2 -8
BITMAP
7800
FE00
7F00
0700
0380
0380
0380
0380
0380
0380
0380
0380
0380
0380
0380
0380
0380
0380
0380
0380
0380
0380
03C0
01FC
01FE
0078
ENDCHAR
STARTCHAR 0286
ENCODING 646
SWIDTH 437 0
DWIDTH 17 0
BBX 14 33 1 -8
BITMAP
00FC
01FC
03E8
0380
0380
0380
0380
0380
0380
0380
0380
0380
0380
0380
0380
0380
0380
0380
0380
0380
0380
0380
0F80
3FE0
7FF0
F3F0
E3B8
E3B8
E3B8
E700
7F00
7E00
3C00
ENDCHAR
STARTCHAR 0287
ENCODING 647
SWIDTH 334 0
DWIDTH 13 0
BBX 9 22 2 -5
BITMAP
F800
FC00
1C00
1C00
1C00
1C00
1C00
1C00
1C00
1C00
1C00
1C00
1C00
1C00
FF80
FF80
FF80
1C00
1C00
1C00
1800
1000
ENDCHAR
STARTCHAR 0288
ENCODING 648
SWIDTH 334 0
DWIDTH 13 0
BBX 12 29 2 -8
BITMAP
1C00
1C00
1C00
1C00
FF80
FF80
1C00
1C00
1C00
1C00
1C00
1C00
1C00
1C00
1C00
1C00
1C00
1C00
1C00
1C00
1C00
1C00
1C00
1C00
1C00
0E00
0FE0
07F0
03E0
ENDCHAR
STARTCHAR 0289
ENCODING 649
SWIDTH 617 0
DWIDTH 24 0
BBX 21 17 2 0
BITMAP
1C01C0
1C01C0
1C01C0
1C01C0
1C01C0
1C01C0
1C01C0
FFFFF8
FFFFF8
FFFFF8
1C01C0
1C03C0
1E07C0
0E0FC0
0FBFC0
07FFC0
03F9C0
ENDCHAR
STARTCHAR 028A
ENCODING 650
SWIDTH 462 0
DWIDTH 18 0
BBX 15 17 2 0
BITMAP
FC7E
FC7E
3C78
701C
701C
E00E
E00E
E00E
E00E
E00E
E00E
E00E
701C
783C
3EF8
1FF0
0FE0
ENDCHAR
STARTCHAR 028B
ENCODING 651
SWIDTH 437 0
DWIDTH 17 0
BBX 14 18 2 0
BITMAP
03C0
E1F0
71F8
7038
7038
381C
3838
3838
1C38
1C70
0E70
0E70
0EE0
07E0
07E0
07C0
03C0
03C0
ENDCHAR
STARTCHAR 028C
ENCODING 652
SWIDTH 488 0
DWIDTH 19 0
BBX 15 17 2 0
BITMAP
03C0
03C0
07C0
07E0
0EE0
0EE0
0E70
1C70
1C38
1C38
3838
381C
381C
701C
700E
E00E
E00E
ENDCHAR
STARTCHAR 028D
ENCODING 653
SWIDTH 642 0
DWIDTH 25 0
BBX 21 17 2 0
BITMAP
0F0380
0F0780
0F07C0
0F87C0
1F87C0
1F8EE0
1F8EE0
39CEE0
39CEE0
39DC70
38FC70
70FC70
70F870
70F838
707838
E07838
E07018
ENDCHAR
STARTCHAR 028E
ENCODING 654
SWIDTH 488 0
DWIDTH 19 0
BBX 15 25 2 0
BITMAP
003C
007C
00FC
00E0
01C0
01C0
01C0
0380
03C0
03C0
07C0
07E0
0EE0
0EE0
0E70
1C70
1C38
1C38
3838
381C
381C
701C
700E
E00E
E00E
ENDCHAR
STARTCHAR 028F
ENCODING 655
SWIDTH 488 0
DWIDTH 19 0
BBX 15 17 2 0
BITMAP
F01E
781C
383C
1C78
1E70
0FE0
07E0
07C0
0380
0380
0380
0380
0380
0380
0380
0380
0380
ENDCHAR
STARTCHAR 0290
ENCODING 656
SWIDTH 385 0
DWIDTH 15 0
BBX 17 25 2 -8
BITMAP
FFF000
FFF000
00F000
01E000
01C000
038000
078000
070000
0E0000
1E0000
3C0000
380000
780000
F00000
FFF000
FFF000
FFF000
007000
007000
007000
007000
007000
003F80
003F80
000F00
ENDCHAR
STARTCHAR 0291
ENCODING 657
SWIDTH 437 0
DWIDTH 17 0
BBX 13 25 2 -8
BITMAP
FFF0
FFF0
00F0
01E0
01C0
0380
0780
0700
0E00
1E18
3C28
3848
78C8
F0D0
FFB0
FFE0
FF80
0080
0180
0180
0100
6100
7100
7200
1C00
ENDCHAR
STARTCHAR 0292
ENCODING 658
SWIDTH 437 0
DWIDTH 17 0
BBX 13 25 2 -8
BITMAP
FFF8
FFF8
0038
0070
00F0
01E0
01C0
03C0
0780
07C0
0FE0
00F0
0070
0038
0038
0038
0038
0038
0038
0038
0070
60F0
FFE0
7FC0
1F00
ENDCHAR
STARTCHAR 0293
ENCODING 659
SWIDTH 437 0
DWIDTH 17 0
BBX 15 32 0 -15
BITMAP
3FFE
3FFE
000E
001C
003C
0078
0070
00F0
01E0
01F0
03F8
003C
001C
000E
000E
000E
C00E
A00E
900E
C80E
481C
6C3C
3FF8
1FF0
0FC0
0C00
0C00
0400
0430
0430
0230
01E0
ENDCHAR
STARTCHAR 0294
ENCODING 660
SWIDTH 437 0
DWIDTH 17 0
BBX 13 25 2 0
BITMAP
1FC0
3FE0
7DF0
F078
E038
E038
0038
0038
0038
0078
0070
00F0
01E0
03C0
0380
0700
0700
0700
0700
0700
0700
0700
0700
0700
0700
ENDCHAR
STARTCHAR 0295
ENCODING 661
SWIDTH 437 0
DWIDTH 17 0
BBX 13 25 2 0
BITMAP
1FC0
3FE0
7DF0
F078
E038
E038
E000
E000
E000
F000
7000
7800
3C00
1E00
0E00
0700
0700
0700
0700
0700
0700
0700
0700
0700
0700
ENDCHAR
STARTCHAR 0296
ENCODING 662
SWIDTH 437 0
DWIDTH 17 0
BBX 13 25 2 0
BITMAP
0700
0700
0700
0700
0700
0700
0700
0700
0700
0780
0380
03C0
01E0
00F0
0070
0038
0038
0038
0038
E038
E038
F078
7DF0
3FE0
1FC0
ENDCHAR
STARTCHAR 0297
ENCODING 663
SWIDTH 462 0
DWIDTH 18 0
BBX 14 26 2 -8
BITMAP
03C0
0FF0
1FF8
3C78
381C
7018
7000
7000
E000
E000
E000
E000
E000
E000
E000
E000
E000
E000
6000
7000
7018
381C
3C38
1FF8
0FF0
07C0
ENDCHAR
STARTCHAR 0298
ENCODING 664
SWIDTH 462 0
DWIDTH 18 0
BBX 15 25 2 0
BITMAP
07C0
1FF0
1EF0
3838
7838
701C
701C
E00E
E00E
E00E
E10E
E38E
E7CE
E38E
E10E
E00E
E00E
E00E
701C
701C
3838
3838
1EF0
1FE0
07C0
ENDCHAR
STARTCHAR 0299
ENCODING 665
SWIDTH 411 0
DWIDTH 16 0
BBX 12 17 2 0
BITMAP
FFC0
FFE0
E1E0
E0E0
E0E0
E0E0
FFE0
FFE0
FFE0
E0F0
E070
E070
E070
E0F0
FFE0
FFE0
FF80
ENDCHAR
STARTCHAR 029A
ENCODING 666
SWIDTH 437 0
DWIDTH 17 0
BBX 13 18 2 0
BITMAP
0F00
3FC0
7FE0
71E0
7070
7078
7038
7E38
3E38
7E38
F038
E038
E038
E070
E0F0
7BE0
7FC0
1F80
ENDCHAR
STARTCHAR 029B
ENCODING 667
SWIDTH 462 0
DWIDTH 18 0
BBX 20 25 2 0
BITMAP
0003F0
000FF0
000F60
001E00
001C00
001C00
001C00
07DC00
0FFC00
3FFC00
3C7C00
701C00
701C00
E00000
E00000
E1FC00
E1FC00
E1FC00
E01C00
E01C00
701C00
783C00
3EF800
1FF000
0FE000
ENDCHAR
STARTCHAR 029C
ENCODING 668
SWIDTH 437 0
DWIDTH 17 0
BBX 13 17 2 0
BITMAP
E038
E038
E038
E038
E038
E038
E038
FFF8
FFF8
FFF8
E038
E038
E038
E038
E038
E038
E038
ENDCHAR
STARTCHAR 029D
ENCODING 669
SWIDTH 437 0
DWIDTH 17 0
BBX 13 32 2 -8
BITMAP
0380
0780
0780
0300
0000
0000
0000
0380
0380
0380
0380
0380
0380
0380
0380
0380
0380
0380
0380
0380
0380
0F80
3FE0
7FF0
F3F0
E3B8
E3B8
E3B8
E700
FF00
7E00
3C00
ENDCHAR
STARTCHAR 029E
ENCODING 670
SWIDTH 437 0
DWIDTH 17 0
BBX 13 25 2 -8
BITMAP
F038
7838
3838
1C38
1E38
0F38
0778
07F8
03F8
01F8
03F8
03B8
0738
0F38
0E38
1C38
3C38
0038
0038
0038
0038
0038
0038
0038
0038
ENDCHAR
STARTCHAR 029F
ENCODING 671
SWIDTH 360 0
DWIDTH 14 0
BBX 10 17 2 0
BITMAP
E000
E000
E000
E000
E000
E000
E000
E000
E000
E000
E000
E000
E000
E000
FFC0
FFC0
FFC0
ENDCHAR
STARTCHAR 02A0
ENCODING 672
SWIDTH 462 0
DWIDTH 18 0
BBX 21 33 2 -9
BITMAP
0001F0
0003F8
0007F0
000700
000E00
000E00
000E00
078E00
0FEE00
3FFE00
3C7E00
701E00
701E00
E00E00
E00E00
E00E00
E00E00
E00E00
E00E00
E00E00
701E00
783E00
3EFE00
1FFE00
0FEE00
000E00
000E00
000E00
000E00
000E00
000E00
000E00
000600
ENDCHAR
STARTCHAR 02A1
ENCODING 673
SWIDTH 437 0
DWIDTH 17 0
BBX 13 25 2 0
BITMAP
1FC0
3FE0
7DF0
F078
E038
E038
0038
0038
0038
0078
0070
00F0
01E0
03C0
0380
3FE0
3FE0
3FE0
0700
0700
0700
0700
0700
0700
0700
ENDCHAR
STARTCHAR 02A2
ENCODING 674
SWIDTH 437 0
DWIDTH 17 0
BBX 13 25 2 0
BITMAP
1FC0
3FE0
7DF0
F078
E038
E038
E000
E000
E000
F000
7000
7800
3C00
1E00
0E00
3FE0
3FE0
3FE0
0700
0700
0700
0700
0700
0700
0700
ENDCHAR
STARTCHAR 02A3
ENCODING 675
SWIDTH 771 0
DWIDTH 30 0
BBX 27 25 2 0
BITMAP
000E0000
000E0000
000E0000
000E0000
000E0000
000E0000
000E0000
078E0000
0FEFFFE0
3FFFFFE0
3C7E01E0
701E01C0
701E0380
E00E0780
E00E0F00
E00E0E00
E00E1E00
E00E3C00
E00E3800
E00E7000
701EF000
783EE000
3EFFFFE0
1FFFFFE0
0FEFFFE0
ENDCHAR
STARTCHAR 02A4
ENCODING 676
SWIDTH 771 0
DWIDTH 30 0
BBX 26 33 2 -8
BITMAP
000E0000
000E0000
000E0000
000E0000
000E0000
000E0000
000E0000
078E0000
0FEFFFC0
3FFFFFC0
3C7E01C0
701E03C0
701E0780
E00E0700
E00E0F00
E00E1E00
E00E1C00
E00E3E00
E00E3F00
E00E0780
701E03C0
783E01C0
3EFE01C0
1FFE00C0
0FEE00C0
000000C0
000001C0
000001C0
000103C0
00038780
0003FF00
0001FE00
0000FC00
ENDCHAR
STARTCHAR 02A5
ENCODING 677
SWIDTH 822 0
DWIDTH 32 0
BBX 28 33 2 -8
BITMAP
000E0000
000E0000
000E0000
000E0000
000E0000
000E0000
000E0000
078E0000
0FEFFFE0
3FFFFFE0
3C7E01E0
701E01C0
701E0380
E00E0780
E00E0F00
E00E0E00
E00E1E00
E00E3C30
E00E3850
E00E7090
701EF090
783EE1B0
3EFFFFE0
1FFFFFC0
0FEFFF00
00000100
00000100
00000100
00000300
0000E200
0000E200
00006400
00003800
ENDCHAR
STARTCHAR 02A6
ENCODING 678
SWIDTH 617 0
DWIDTH 24 0
BBX 21 22 2 0
BITMAP
040000
0C0000
1C0000
1C0000
1C0300
FF8FE0
FF9FE0
1C3CF0
1C3870
1C3800
1C3C00
1C1F00
1C0FC0
1C03E0
1C00F0
1C0078
1C0038
1C0038
1C0070
1FFFF0
1FFFE0
0FFFC0
ENDCHAR
STARTCHAR 02A7
ENCODING 679
SWIDTH 462 0
DWIDTH 18 0
BBX 20 33 2 -8
BITMAP
0003F0
000FF0
000F60
041E00
0C1C00
1C1C00
1C1C00
1C1C00
FF9C00
FF9C00
1C1C00
1C1C00
1C1C00
1C1C00
1C1C00
1C1C00
1C1C00
1C1C00
1C1C00
1C1C00
1C1C00
1C1C00
1FFC00
1FFC00
0FFC00
001C00
001C00
001C00
001C00
003C00
03F800
07F800
01E000
ENDCHAR
STARTCHAR 02A8
ENCODING 680
SWIDTH 694 0
DWIDTH 27 0
BBX 24 30 2 -8
BITMAP
040000
0C0000
1C0000
1C0000
1C01E0
FF87F8
FF8FFC
1C1E1E
1C3C0E
1C3806
1C3800
1C7000
1C7000
1C7000
1C7003
1C3805
1C3809
1C3819
1C1C12
1FFFF6
1FFFFC
0FFFF8
000030
000030
000030
000020
000C20
000C20
000E40
000780
ENDCHAR
STARTCHAR 02A9
ENCODING 681
SWIDTH 720 0
DWIDTH 28 0
BBX 25 33 2 -8
BITMAP
03F00000
0FF00000
0F600000
1E000000
1C000000
1C000000
1C000000
1C00F000
1C77FC00
FFFFFE00
FFFF0E00
FFFC0700
1C7C0700
1C780700
1C780300
1C700380
1C700380
1C700380
1C700380
1C700380
1C700380
1C700380
1C700380
1C700380
1C700380
00000380
00000380
00000380
00000380
00000700
00007F00
0000FE00
00007C00
ENDCHAR
STARTCHAR 02AA
ENCODING 682
SWIDTH 462 0
DWIDTH 18 0
BBX 15 25 2 0
BITMAP
E000
E000
E000
E000
E000
E000
E000
E040
E3F8
E7FC
EF1C
EE0E
EE00
EF00
E7C0
E3F0
E0FC
E03E
E00E
E00E
E00E
E01E
FFFC
FFF8
7FF0
ENDCHAR
STARTCHAR 02AB
ENCODING 683
SWIDTH 514 0
DWIDTH 20 0
BBX 17 25 2 0
BITMAP
E00000
E00000
E00000
E00000
E00000
E00000
E00000
E00000
E7FF80
E7FF80
E00780
E00700
E00F00
E01E00
E01C00
E03800
E07800
E0F000
E0E000
E1E000
E3C000
E38000
FFFF80
FFFF80
7FFF80
ENDCHAR
STARTCHAR 02AC
ENCODING 684
SWIDTH 385 0
DWIDTH 15 0
BBX 11 19 2 0
BITMAP
C660
CE60
6E60
6F60
6FC0
7BC0
3BC0
39C0
3980
0000
CE60
CE60
6E60
6FC0
7FC0
7BC0
3BC0
3980
3180
ENDCHAR
STARTCHAR 02AD
ENCODING 685
SWIDTH 437 0
DWIDTH 17 0
BBX 13 17 2 0
BITMAP
FFF8
FFF8
E038
E038
E038
0000
0000
0000
0000
0000
0000
FFF8
FFF8
FFF8
E038
E038
E038
ENDCHAR
STARTCHAR 02AE
ENCODING 686
SWIDTH 617 0
DWIDTH 24 0
BBX 21 26 2 -9
BITMAP
780000
FE0038
7F0038
070038
038038
038038
038038
038038
038038
038038
038038
038038
038078
01C078
01C1F8
01FFF8
00FFF8
007F38
000038
000038
000038
000038
000038
000038
000038
000018
ENDCHAR
STARTCHAR 02AF
ENCODING 687
SWIDTH 617 0
DWIDTH 24 0
BBX 27 26 2 -8
BITMAP
78000000
FE003800
7F003800
07003800
03803800
03803800
03803800
03803800
03803800
03803800
03803800
03803800
03807800
01C07800
01C1F800
01FFF800
00FFF800
007F3800
00003800
00003800
00003800
00003800
00001C00
00001FC0
00000FE0
000007C0
ENDCHAR
STARTCHAR 02B0
ENCODING 688
SWIDTH 282 0
DWIDTH 11 0
BBX 8 13 2 17
BITMAP
C0
C0
C0
D8
FE
F7
C3
C3
C3
C3
C3
C3
C3
ENDCHAR
STARTCHAR 02B1
ENCODING 689
SWIDTH 282 0
DWIDTH 11 0
BBX 8 13 2 17
BITMAP
78
F0
C0
D8
FE
F7
C3
C3
C3
C3
C3
C3
C3
ENDCHAR
STARTCHAR 02B2
ENCODING 690
SWIDTH 231 0
DWIDTH 9 0
BBX 5 17 2 13
BITMAP
18
18
18
00
18
18
18
18
18
18
18
18
18
18
18
F0
60
ENDCHAR
STARTCHAR 02B3
ENCODING 691
SWIDTH 231 0
DWIDTH 9 0
BBX 5 10 2 17
BITMAP
18
F8
E0
C0
C0
C0
C0
C0
C0
C0
ENDCHAR
STARTCHAR 02B4
ENCODING 692
SWIDTH 231 0
DWIDTH 9 0
BBX 5 9 2 17
BITMAP
18
18
18
18
18
18
38
F8
F8
ENDCHAR
STARTCHAR 02B5
ENCODING 693
SWIDTH 308 0
DWIDTH 12 0
BBX 8 13 2 13
BITMAP
18
18
18
18
18
18
38
F8
F8
18
1C
0F
06
ENDCHAR
STARTCHAR 02B6
ENCODING 694
SWIDTH 257 0
DWIDTH 10 0
BBX 6 9 2 17
BITMAP
CC
DC
D8
F8
F8
DC
CC
F8
F0
ENDCHAR
STARTCHAR 02B7
ENCODING 695
SWIDTH 385 0
DWIDTH 15 0
BBX 11 9 2 17
BITMAP
CE60
EE60
6E60
6FC0
7BC0
3BC0
3BC0
3980
3180
ENDCHAR
STARTCHAR 02B8
ENCODING 696
SWIDTH 308 0
DWIDTH 12 0
BBX 8 13 2 13
BITMAP
C3
63
67
66
36
3C
3C
1C
18
18
38
70
E0
ENDCHAR
STARTCHAR 02B9
ENCODING 697
SWIDTH 231 0
DWIDTH 9 0
BBX 5 11 2 16
BITMAP
78
78
78
70
70
60
60
C0
C0
C0
80
ENDCHAR
STARTCHAR 02BA
ENCODING 698
SWIDTH 385 0
DWIDTH 15 0
BBX 11 11 2 16
BITMAP
79E0
79E0
79C0
71C0
7180
6380
6380
C300
C300
C200
8200
ENDCHAR
STARTCHAR 02BB
ENCODING 699
SWIDTH 180 0
DWIDTH 7 0
BBX 6 10 1 15
BITMAP
0C
30
60
40
C0
C0
F8
F8
78
30
ENDCHAR
STARTCHAR 02BC
ENCODING 700
SWIDTH 180 0
DWIDTH 7 0
BBX 6 10 1 15
BITMAP
78
7C
7C
3C
0C
0C
08
10
20
C0
ENDCHAR
STARTCHAR 02BD
ENCODING 701
SWIDTH 180 0
DWIDTH 7 0
BBX 6 10 1 15
BITMAP
78
F8
F8
F0
C0
C0
40
20
10
0C
ENDCHAR
STARTCHAR 02BE
ENCODING 702
SWIDTH 180 0
DWIDTH 7 0
BBX 3 7 2 19
BITMAP
80
C0
E0
60
60
E0
C0
ENDCHAR
STARTCHAR 02BF
ENCODING 703
SWIDTH 180 0
DWIDTH 7 0
BBX 3 6 2 20
BITMAP
60
E0
C0
C0
E0
60
ENDCHAR
STARTCHAR 02C0
ENCODING 704
SWIDTH 282 0
DWIDTH 11 0
BBX 7 13 2 17
BITMAP
7C
FE
C6
06
06
0E
1C
18
18
18
18
18
18
ENDCHAR
STARTCHAR 02C1
ENCODING 705
SWIDTH 282 0
DWIDTH 11 0
BBX 7 13 2 17
BITMAP
7C
FE
C6
C0
C0
E0
70
30
30
18
18
18
18
ENDCHAR
STARTCHAR 02C2
ENCODING 706
SWIDTH 385 0
DWIDTH 15 0
BBX 11 15 2 5
BITMAP
0020
0040
01C0
0380
0F80
1F00
7F00
FF00
7F00
1F80
0F80
03C0
01C0
0060
0020
ENDCHAR
STARTCHAR 02C3
ENCODING 707
SWIDTH 385 0
DWIDTH 15 0
BBX 11 15 2 5
BITMAP
8000
4000
7000
3800
3E00
1F00
1FC0
0FE0
1FC0
1F00
3E00
3800
7000
4000
8000
ENDCHAR
STARTCHAR 02C4
ENCODING 708
SWIDTH 462 0
DWIDTH 18 0
BBX 15 11 2 7
BITMAP
0100
0380
0380
07C0
0FE0
0FE0
1FF0
3EF8
3838
600C
8002
ENDCHAR
STARTCHAR 02C5
ENCODING 709
SWIDTH 462 0
DWIDTH 18 0
BBX 15 11 2 7
BITMAP
8002
600C
3838
3EF8
1FF0
0FE0
0FE0
07C0
0380
0380
0100
ENDCHAR
STARTCHAR 02C6
ENCODING 710
SWIDTH 334 0
DWIDTH 13 0
BBX 9 6 2 19
BITMAP
1E00
3E00
3700
6300
C080
8000
ENDCHAR
STARTCHAR 02C7
ENCODING 711
SWIDTH 334 0
DWIDTH 13 0
BBX 9 6 2 19
BITMAP
8080
4180
6300
3700
3E00
1E00
ENDCHAR
STARTCHAR 02C8
ENCODING 712
SWIDTH 128 0
DWIDTH 5 0
BBX 2 10 2 19
BITMAP
C0
C0
C0
C0
C0
C0
C0
C0
C0
C0
ENDCHAR
STARTCHAR 02C9
ENCODING 713
SWIDTH 334 0
DWIDTH 13 0
BBX 9 3 2 20
BITMAP
FF80
FF80
FF80
ENDCHAR
STARTCHAR 02CA
ENCODING 714
SWIDTH 257 0
DWIDTH 10 0
BBX 6 6 2 19
BITMAP
1C
38
30
60
C0
80
ENDCHAR
STARTCHAR 02CB
ENCODING 715
SWIDTH 257 0
DWIDTH 10 0
BBX 6 5 2 19
BITMAP
F0
70
18
08
04
ENDCHAR
STARTCHAR 02CC
ENCODING 716
SWIDTH 128 0
DWIDTH 5 0
BBX 2 9 2 -11
BITMAP
C0
C0
C0
C0
C0
C0
C0
C0
C0
ENDCHAR
STARTCHAR 02CD
ENCODING 717
SWIDTH 334 0
DWIDTH 13 0
BBX 9 3 2 -7
BITMAP
FF80
FF80
FF80
ENDCHAR
STARTCHAR 02CE
ENCODING 718
SWIDTH 257 0
DWIDTH 10 0
BBX 7 6 2 -8
BITMAP
F0
30
18
08
04
02
ENDCHAR
STARTCHAR 02CF
ENCODING 719
SWIDTH 257 0
DWIDTH 10 0
BBX 6 6 2 -8
BITMAP
1C
38
70
60
C0
80
ENDCHAR
STARTCHAR 02D0
ENCODING 720
SWIDTH 231 0
DWIDTH 9 0
BBX 5 17 2 0
BITMAP
F8
78
70
30
20
00
00
00
00
00
00
00
20
30
70
78
F8
ENDCHAR
STARTCHAR 02D1
ENCODING 721
SWIDTH 231 0
DWIDTH 9 0
BBX 5 5 2 12
BITMAP
F8
78
70
30
20
ENDCHAR
STARTCHAR 02D2
ENCODING 722
SWIDTH 180 0
DWIDTH 7 0
BBX 3 7 2 9
BITMAP
80
E0
60
60
60
E0
80
ENDCHAR
STARTCHAR 02D3
ENCODING 723
SWIDTH 180 0
DWIDTH 7 0
BBX 3 7 2 9
BITMAP
20
60
C0
C0
C0
60
20
ENDCHAR
STARTCHAR 02D4
ENCODING 724
SWIDTH 437 0
DWIDTH 17 0
BBX 13 8 2 11
BITMAP
0700
0700
0700
0700
0700
FFF8
FFF8
FFF8
ENDCHAR
STARTCHAR 02D5
ENCODING 725
SWIDTH 437 0
DWIDTH 17 0
BBX 13 8 2 6
BITMAP
FFF8
FFF8
FFF8
0700
0700
0700
0700
0700
ENDCHAR
STARTCHAR 02D6
ENCODING 726
SWIDTH 437 0
DWIDTH 17 0
BBX 13 13 2 6
BITMAP
0700
0700
0700
0700
0700
FFF8
FFF8
FFF8
0700
0700
0700
0700
0700
ENDCHAR
STARTCHAR 02D7
ENCODING 727
SWIDTH 437 0
DWIDTH 17 0
BBX 13 3 2 11
BITMAP
FFF8
FFF8
FFF8
ENDCHAR
STARTCHAR 02D8
ENCODING 728
SWIDTH 360 0
DWIDTH 14 0
BBX 11 5 2 20
BITMAP
C0E0
E0C0
61C0
7F80
3F00
ENDCHAR
STARTCHAR 02D9
ENCODING 729
SWIDTH 180 0
DWIDTH 7 0
BBX 4 4 2 20
BITMAP
F0
F0
F0
60
ENDCHAR
STARTCHAR 02DA
ENCODING 730
SWIDTH 257 0
DWIDTH 10 0
BBX 7 6 2 20
BITMAP
7C
EC
C6
CC
FC
78
ENDCHAR
STARTCHAR 02DB
ENCODING 731
SWIDTH 308 0
DWIDTH 12 0
BBX 8 8 2 -7
BITMAP
40
C0
C0
C0
E0
F0
7F
3C
ENDCHAR
STARTCHAR 02DC
ENCODING 732
SWIDTH 437 0
DWIDTH 17 0
BBX 13 4 2 21
BITMAP
7C18
FF18
C3F0
C1F0
ENDCHAR
STARTCHAR 02DD
ENCODING 733
SWIDTH 411 0
DWIDTH 16 0
BBX 12 6 2 19
BITMAP
1CF0
38E0
31C0
6180
C300
8200
ENDCHAR
STARTCHAR 02DE
ENCODING 734
SWIDTH 257 0
DWIDTH 10 0
BBX 8 7 0 6
BITMAP
03
23
E3
E3
33
3E
1C
ENDCHAR
STARTCHAR 02DF
ENCODING 735
SWIDTH 334 0
DWIDTH 13 0
BBX 8 8 3 18
BITMAP
C2
E6
7C
38
3C
6E
C7
02
ENDCHAR
STARTCHAR 02E0
ENCODING 736
SWIDTH 308 0
DWIDTH 12 0
BBX 8 13 2 13
BITMAP
C3
63
67
66
36
3C
3C
1C
1C
3C
3C
3C
18
ENDCHAR
STARTCHAR 02E1
ENCODING 737
SWIDTH 180 0
DWIDTH 7 0
BBX 3 13 2 17
BITMAP
C0
C0
C0
C0
C0
C0
C0
C0
C0
C0
C0
E0
60
ENDCHAR
STARTCHAR 02E2
ENCODING 738
SWIDTH 257 0
DWIDTH 10 0
BBX 6 9 2 18
BITMAP
78
FC
C0
78
3C
0C
CC
FC
78
ENDCHAR
STARTCHAR 02E3
ENCODING 739
SWIDTH 308 0
DWIDTH 12 0
BBX 9 9 2 17
BITMAP
E300
7600
3E00
1C00
1C00
3E00
3600
6300
E380
ENDCHAR
STARTCHAR 02E4
ENCODING 740
SWIDTH 282 0
DWIDTH 11 0
BBX 7 13 2 17
BITMAP
7C
FE
C6
C0
C0
E0
70
30
30
18
18
18
18
ENDCHAR
STARTCHAR 02E5
ENCODING 741
SWIDTH 334 0
DWIDTH 13 0
BBX 9 25 2 0
BITMAP
FF80
FF80
FF80
0180
0180
0180
0180
0180
0180
0180
0180
0180
0180
0180
0180
0180
0180
0180
0180
0180
0180
0180
0180
0180
0180
ENDCHAR
STARTCHAR 02E6
ENCODING 742
SWIDTH 334 0
DWIDTH 13 0
BBX 9 25 2 0
BITMAP
0180
0180
0180
0180
0180
7F80
FF80
FF80
0180
0180
0180
0180
0180
0180
0180
0180
0180
0180
0180
0180
0180
0180
0180
0180
0180
ENDCHAR
STARTCHAR 02E7
ENCODING 743
SWIDTH 334 0
DWIDTH 13 0
BBX 9 25 2 0
BITMAP
0180
0180
0180
0180
0180
0180
0180
0180
0180
0180
0180
FF80
FF80
FF80
0180
0180
0180
0180
0180
0180
0180
0180
0180
0180
0180
ENDCHAR
STARTCHAR 02E8
ENCODING 744
SWIDTH 334 0
DWIDTH 13 0
BBX 9 25 2 0
BITMAP
0180
0180
0180
0180
0180
0180
0180
0180
0180
0180
0180
0180
0180
0180
0180
0180
0180
FF80
FF80
0180
0180
0180
0180
0180
0180
ENDCHAR
STARTCHAR 02E9
ENCODING 745
SWIDTH 334 0
DWIDTH 13 0
BBX 9 25 2 0
BITMAP
0180
0180
0180
0180
0180
0180
0180
0180
0180
0180
0180
0180
0180
0180
0180
0180
0180
0180
0180
0180
0180
0180
FF80
FF80
FF80
ENDCHAR
STARTCHAR 02EA
ENCODING 746
SWIDTH 308 0
DWIDTH 12 0
BBX 8 17 2 0
BITMAP
E0
E0
E0
E0
E0
E0
E0
E0
E0
E0
E0
E0
E0
E0
FF
FF
FF
ENDCHAR
STARTCHAR 02EB
ENCODING 747
SWIDTH 308 0
DWIDTH 12 0
BBX 8 17 2 0
BITMAP
E0
E0
E0
E0
E0
E0
E0
FF
FF
FF
E0
E0
E0
E0
E0
E0
E0
ENDCHAR
STARTCHAR 02EC
ENCODING 748
SWIDTH 334 0
DWIDTH 13 0
BBX 9 6 2 -8
BITMAP
8080
4180
6300
3700
3E00
1E00
ENDCHAR
STARTCHAR 02ED
ENCODING 749
SWIDTH 308 0
DWIDTH 12 0
BBX 9 5 2 21
BITMAP
FF80
FF80
0000
FF80
FF80
ENDCHAR
STARTCHAR 02EE
ENCODING 750
SWIDTH 360 0
DWIDTH 14 0
BBX 12 10 1 15
BITMAP
79E0
7DF0
7DF0
3CF0
0C10
0C30
0820
1060
2080
C100
ENDCHAR
STARTCHAR 02EF
ENCODING 751
SWIDTH 282 0
DWIDTH 11 0
BBX 7 5 2 -8
BITMAP
82
6C
3C
38
10
ENDCHAR
STARTCHAR 02F0
ENCODING 752
SWIDTH 282 0
DWIDTH 11 0
BBX 7 6 2 -8
BITMAP
10
18
38
7C
46
80
ENDCHAR
STARTCHAR 02F1
ENCODING 753
SWIDTH 231 0
DWIDTH 9 0
BBX 5 7 2 -10
BITMAP
08
18
30
F0
70
18
08
ENDCHAR
STARTCHAR 02F2
ENCODING 754
SWIDTH 231 0
DWIDTH 9 0
BBX 5 7 2 -10
BITMAP
80
40
70
38
70
60
80
ENDCHAR
STARTCHAR 02F3
ENCODING 755
SWIDTH 257 0
DWIDTH 10 0
BBX 7 7 2 -8
BITMAP
30
7C
EC
C6
CC
FC
78
ENDCHAR
STARTCHAR 02F4
ENCODING 756
SWIDTH 257 0
DWIDTH 10 0
BBX 6 5 2 10
BITMAP
F0
38
18
0C
04
ENDCHAR
STARTCHAR 02F5
ENCODING 757
SWIDTH 411 0
DWIDTH 16 0
BBX 12 5 2 10
BITMAP
F3C0
38C0
1860
0C20
0410
ENDCHAR
STARTCHAR 02F6
ENCODING 758
SWIDTH 411 0
DWIDTH 16 0
BBX 12 5 2 10
BITMAP
3CF0
38C0
7180
6100
C200
ENDCHAR
STARTCHAR 02F7
ENCODING 759
SWIDTH 437 0
DWIDTH 17 0
BBX 13 5 2 -7
BITMAP
1008
7C18
FF18
C3F0
C0F0
ENDCHAR
STARTCHAR 02F8
ENCODING 760
SWIDTH 180 0
DWIDTH 7 0
BBX 4 18 2 7
BITMAP
F0
F0
F0
60
00
00
00
00
00
00
00
00
00
00
F0
F0
F0
60
ENDCHAR
STARTCHAR 02F9
ENCODING 761
SWIDTH 308 0
DWIDTH 12 0
BBX 8 11 2 14
BITMAP
FF
FF
FF
E0
E0
E0
E0
E0
E0
E0
E0
ENDCHAR
STARTCHAR 02FA
ENCODING 762
SWIDTH 308 0
DWIDTH 12 0
BBX 8 11 2 14
BITMAP
FF
FF
FF
03
03
03
03
03
03
03
03
ENDCHAR
STARTCHAR 02FB
ENCODING 763
SWIDTH 308 0
DWIDTH 12 0
BBX 8 11 2 0
BITMAP
E0
E0
E0
E0
E0
E0
E0
E0
FF
FF
FF
ENDCHAR
STARTCHAR 02FC
ENCODING 764
SWIDTH 308 0
DWIDTH 12 0
BBX 8 11 2 0
BITMAP
03
03
03
03
03
03
03
03
FF
FF
FF
ENDCHAR
STARTCHAR 02FD
ENCODING 765
SWIDTH 334 0
DWIDTH 13 0
BBX 9 5 2 -6
BITMAP
C180
C180
C180
FF80
FF80
ENDCHAR
STARTCHAR 02FE
ENCODING 766
SWIDTH 334 0
DWIDTH 13 0
BBX 9 5 2 -6
BITMAP
C000
C000
C000
FF80
FF80
ENDCHAR
STARTCHAR 02FF
ENCODING 767
SWIDTH 462 0
DWIDTH 18 0
BBX 15 7 2 -8
BITMAP
0400
0800
3800
7FFE
FFFE
3000
1800
ENDCHAR
STARTCHAR 0300
ENCODING 768
SWIDTH 0 0
DWIDTH 0 0
BBX 6 6 -4 19
BITMAP
F0
70
38
18
0C
04
ENDCHAR
STARTCHAR 0301
ENCODING 769
SWIDTH 0 0
DWIDTH 0 0
BBX 6 6 -2 19
BITMAP
3C
38
70
60
C0
80
ENDCHAR
STARTCHAR 0302
ENCODING 770
SWIDTH 0 0
DWIDTH 0 0
BBX 10 6 -5 19
BITMAP
1E00
3F00
3300
6180
4080
8040
ENDCHAR
STARTCHAR 0303
ENCODING 771
SWIDTH 0 0
DWIDTH 0 0
BBX 14 5 -7 20
BITMAP
1000
7E0C
7F18
C3F8
C0F0
ENDCHAR
STARTCHAR 0304
ENCODING 772
SWIDTH 0 0
DWIDTH 0 0
BBX 10 3 -5 20
BITMAP
FFC0
FFC0
FFC0
ENDCHAR
STARTCHAR 0306
ENCODING 774
SWIDTH 0 0
DWIDTH 0 0
BBX 10 5 -5 20
BITMAP
C0C0
C0C0
E1C0
7F80
3F00
ENDCHAR
STARTCHAR 0307
ENCODING 775
SWIDTH 0 0
DWIDTH 0 0
BBX 4 4 -2 20
BITMAP
F0
F0
F0
60
ENDCHAR
STARTCHAR 0308
ENCODING 776
SWIDTH 0 0
DWIDTH 0 0
BBX 10 4 -5 20
BITMAP
E1C0
F3C0
F3C0
6180
ENDCHAR
STARTCHAR 0309
ENCODING 777
SWIDTH 0 0
DWIDTH 0 0
BBX 8 9 -4 19
BITMAP
10
6E
C7
E7
06
04
0C
08
10
ENDCHAR
STARTCHAR 030A
ENCODING 778
SWIDTH 0 0
DWIDTH 0 0
BBX 6 7 -3 19
BITMAP
20
78
FC
CC
CC
FC
78
ENDCHAR
STARTCHAR 030B
ENCODING 779
SWIDTH 0 0
DWIDTH 0 0
BBX 12 6 -4 19
BITMAP
3CF0
38C0
7180
6100
C200
8400
ENDCHAR
STARTCHAR 030C
ENCODING 780
SWIDTH 0 0
DWIDTH 0 0
BBX 10 6 -5 19
BITMAP
C0C0
6180
3300
3F00
1E00
1E00
ENDCHAR
STARTCHAR 030D
ENCODING 781
SWIDTH 0 0
DWIDTH 0 0
BBX 2 10 -1 19
BITMAP
C0
C0
C0
C0
C0
C0
C0
C0
C0
C0
ENDCHAR
STARTCHAR 030E
ENCODING 782
SWIDTH 0 0
DWIDTH 0 0
BBX 6 10 -3 19
BITMAP
CC
CC
CC
CC
CC
CC
CC
CC
CC
CC
ENDCHAR
STARTCHAR 030F
ENCODING 783
SWIDTH 0 0
DWIDTH 0 0
BBX 12 6 -8 19
BITMAP
F3C0
31C0
18E0
0860
0430
0210
ENDCHAR
STARTCHAR 0310
ENCODING 784
SWIDTH 0 0
DWIDTH 0 0
BBX 10 7 -5 20
BITMAP
1E00
1E00
DEC0
CCC0
E1C0
7F80
3F00
ENDCHAR
STARTCHAR 0311
ENCODING 785
SWIDTH 0 0
DWIDTH 0 0
BBX 10 5 -5 20
BITMAP
1E00
7F80
F3C0
C0C0
C0C0
ENDCHAR
STARTCHAR 0312
ENCODING 786
SWIDTH 0 0
DWIDTH 0 0
BBX 6 10 -3 19
BITMAP
0C
10
20
40
C0
C0
F8
F8
78
38
ENDCHAR
STARTCHAR 0313
ENCODING 787
SWIDTH 0 0
DWIDTH 0 0
BBX 4 8 -2 18
BITMAP
E0
F0
70
10
10
20
40
80
ENDCHAR
STARTCHAR 0314
ENCODING 788
SWIDTH 0 0
DWIDTH 0 0
BBX 4 8 -2 18
BITMAP
70
F0
E0
80
80
40
20
10
ENDCHAR
STARTCHAR 0315
ENCODING 789
SWIDTH 0 0
DWIDTH 0 0
BBX 6 10 3 15
BITMAP
78
78
7C
3C
0C
0C
08
10
60
80
ENDCHAR
STARTCHAR 0316
ENCODING 790
SWIDTH 0 0
DWIDTH 0 0
BBX 6 6 -4 -8
BITMAP
F0
70
38
18
0C
04
ENDCHAR
STARTCHAR 0317
ENCODING 791
SWIDTH 0 0
DWIDTH 0 0
BBX 6 6 -2 -8
BITMAP
3C
38
70
60
C0
80
ENDCHAR
STARTCHAR 0318
ENCODING 792
SWIDTH 0 0
DWIDTH 0 0
BBX 6 9 -5 -11
BITMAP
0C
0C
0C
0C
FC
FC
0C
0C
0C
ENDCHAR
STARTCHAR 0319
ENCODING 793
SWIDTH 0 0
DWIDTH 0 0
BBX 6 9 -1 -11
BITMAP
C0
C0
C0
C0
FC
FC
C0
C0
C0
ENDCHAR
STARTCHAR 031A
ENCODING 794
SWIDTH 0 0
DWIDTH 0 0
BBX 10 8 -5 19
BITMAP
FFC0
FFC0
00C0
00C0
00C0
00C0
00C0
00C0
ENDCHAR
STARTCHAR 031B
ENCODING 795
SWIDTH 0 0
DWIDTH 0 0
BBX 5 10 -2 9
BITMAP
60
F0
F8
F8
08
08
18
10
20
C0
ENDCHAR
STARTCHAR 031C
ENCODING 796
SWIDTH 0 0
DWIDTH 0 0
BBX 4 7 -2 -8
BITMAP
30
70
E0
C0
60
70
10
ENDCHAR
STARTCHAR 031D
ENCODING 797
SWIDTH 0 0
DWIDTH 0 0
BBX 10 6 -5 -8
BITMAP
0C00
0C00
0C00
0C00
FFC0
FFC0
ENDCHAR
STARTCHAR 031E
ENCODING 798
SWIDTH 0 0
DWIDTH 0 0
BBX 10 5 -5 -11
BITMAP
FFC0
FFC0
0C00
0C00
0C00
ENDCHAR
STARTCHAR 031F
ENCODING 799
SWIDTH 0 0
DWIDTH 0 0
BBX 10 9 -5 -11
BITMAP
0C00
0C00
0C00
0C00
FFC0
FFC0
0C00
0C00
0C00
ENDCHAR
STARTCHAR 0320
ENCODING 800
SWIDTH 0 0
DWIDTH 0 0
BBX 10 2 -5 -8
BITMAP
FFC0
FFC0
ENDCHAR
STARTCHAR 0321
ENCODING 801
SWIDTH 0 0
DWIDTH 0 0
BBX 9 13 -11 -8
BITMAP
0380
0380
0380
0380
0380
0380
0380
0380
0380
0780
7F00
FE00
7C00
ENDCHAR
STARTCHAR 0322
ENCODING 802
SWIDTH 0 0
DWIDTH 0 0
BBX 9 13 -5 -8
BITMAP
E000
E000
E000
E000
E000
E000
E000
E000
E000
7000
7F00
3F80
1F00
ENDCHAR
STARTCHAR 0323
ENCODING 803
SWIDTH 0 0
DWIDTH 0 0
BBX 4 4 -2 -7
BITMAP
F0
F0
F0
60
ENDCHAR
STARTCHAR 0324
ENCODING 804
SWIDTH 0 0
DWIDTH 0 0
BBX 10 4 -5 -6
BITMAP
6180
F3C0
F3C0
F3C0
ENDCHAR
STARTCHAR 0325
ENCODING 805
SWIDTH 0 0
DWIDTH 0 0
BBX 6 6 -3 -7
BITMAP
78
FC
CC
CC
FC
78
ENDCHAR
STARTCHAR 0326
ENCODING 806
SWIDTH 0 0
DWIDTH 0 0
BBX 6 10 -3 -12
BITMAP
70
78
7C
7C
0C
0C
08
18
30
C0
ENDCHAR
STARTCHAR 0327
ENCODING 807
SWIDTH 0 0
DWIDTH 0 0
BBX 8 8 -4 -8
BITMAP
18
3C
3E
07
03
07
FE
78
ENDCHAR
STARTCHAR 0328
ENCODING 808
SWIDTH 0 0
DWIDTH 0 0
BBX 7 8 -1 -7
BITMAP
40
80
C0
C0
C0
F0
7E
3C
ENDCHAR
STARTCHAR 0329
ENCODING 809
SWIDTH 0 0
DWIDTH 0 0
BBX 2 9 -1 -11
BITMAP
C0
C0
C0
C0
C0
C0
C0
C0
C0
ENDCHAR
STARTCHAR 032A
ENCODING 810
SWIDTH 0 0
DWIDTH 0 0
BBX 10 5 -5 -7
BITMAP
FFC0
FFC0
C0C0
C0C0
C0C0
ENDCHAR
STARTCHAR 032B
ENCODING 811
SWIDTH 0 0
DWIDTH 0 0
BBX 12 6 -6 -8
BITMAP
4020
C630
C630
C630
7FE0
3080
ENDCHAR
STARTCHAR 032C
ENCODING 812
SWIDTH 0 0
DWIDTH 0 0
BBX 8 6 -4 -8
BITMAP
81
C3
66
7E
3C
3C
ENDCHAR
STARTCHAR 032D
ENCODING 813
SWIDTH 0 0
DWIDTH 0 0
BBX 10 6 -5 -8
BITMAP
1E00
3F00
3300
6180
4080
8040
ENDCHAR
STARTCHAR 032E
ENCODING 814
SWIDTH 0 0
DWIDTH 0 0
BBX 10 5 -5 -7
BITMAP
C0C0
C0C0
E1C0
7F80
3F00
ENDCHAR
STARTCHAR 032F
ENCODING 815
SWIDTH 0 0
DWIDTH 0 0
BBX 10 5 -5 -7
BITMAP
1E00
7F80
F3C0
C0C0
C0C0
ENDCHAR
STARTCHAR 0330
ENCODING 816
SWIDTH 0 0
DWIDTH 0 0
BBX 14 5 -7 -7
BITMAP
100C
7E0C
7F98
C3F8
C0F0
ENDCHAR
STARTCHAR 0331
ENCODING 817
SWIDTH 0 0
DWIDTH 0 0
BBX 10 3 -5 -6
BITMAP
FFC0
FFC0
FFC0
ENDCHAR
STARTCHAR 0334
ENCODING 820
SWIDTH 0 0
DWIDTH 0 0
BBX 14 5 -7 6
BITMAP
3C0C
7F08
67F8
C1F8
C020
ENDCHAR
STARTCHAR 0335
ENCODING 821
SWIDTH 0 0
DWIDTH 0 0
BBX 10 3 -5 7
BITMAP
FFC0
FFC0
FFC0
ENDCHAR
STARTCHAR 0336
ENCODING 822
SWIDTH 0 0
DWIDTH 0 0
BBX 26 3 -13 7
BITMAP
FFFFFFC0
FFFFFFC0
FFFFFFC0
ENDCHAR
STARTCHAR 0337
ENCODING 823
SWIDTH 0 0
DWIDTH 0 0
BBX 16 21 -8 -1
BITMAP
0007
000F
000E
001C
003C
0038
0070
00F0
01E0
01C0
03C0
0780
0700
0E00
1E00
1C00
3800
7800
F000
E000
6000
ENDCHAR
STARTCHAR 0338
ENCODING 824
SWIDTH 0 0
DWIDTH 0 0
BBX 20 28 -10 -5
BITMAP
000020
000070
0000F0
0000E0
0001E0
0003C0
000380
000780
000F00
000E00
001C00
003C00
007800
007000
00F000
01E000
01C000
038000
078000
070000
0E0000
1E0000
3C0000
380000
780000
F00000
E00000
C00000
ENDCHAR
STARTCHAR 0339
ENCODING 825
SWIDTH 0 0
DWIDTH 0 0
BBX 4 7 -2 -8
BITMAP
C0
E0
30
30
60
E0
80
ENDCHAR
STARTCHAR 033A
ENCODING 826
SWIDTH 0 0
DWIDTH 0 0
BBX 10 5 -5 -7
BITMAP
C0C0
C0C0
C0C0
FFC0
FFC0
ENDCHAR
STARTCHAR 033B
ENCODING 827
SWIDTH 0 0
DWIDTH 0 0
BBX 10 7 -5 -9
BITMAP
FFC0
FFC0
C0C0
C0C0
C0C0
FFC0
FFC0
ENDCHAR
STARTCHAR 033C
ENCODING 828
SWIDTH 0 0
DWIDTH 0 0
BBX 14 5 -7 -7
BITMAP
3870
7CF8
4FC8
C78C
8104
ENDCHAR
STARTCHAR 033D
ENCODING 829
SWIDTH 0 0
DWIDTH 0 0
BBX 8 8 -4 18
BITMAP
42
E7
7E
3C
3C
7E
E7
42
ENDCHAR
STARTCHAR 033E
ENCODING 830
SWIDTH 0 0
DWIDTH 0 0
BBX 4 14 -2 19
BITMAP
10
70
C0
C0
C0
C0
60
70
30
30
30
30
E0
80
ENDCHAR
STARTCHAR 0340
ENCODING 832
SWIDTH 0 0
DWIDTH 0 0
BBX 6 6 -4 19
BITMAP
F0
70
38
18
0C
04
ENDCHAR
STARTCHAR 0341
ENCODING 833
SWIDTH 0 0
DWIDTH 0 0
BBX 6 6 -2 19
BITMAP
3C
38
70
60
C0
80
ENDCHAR
STARTCHAR 0342
ENCODING 834
SWIDTH 0 0
DWIDTH 0 0
BBX 14 5 -7 20
BITMAP
1000
7E0C
7F18
C3F8
C0F0
ENDCHAR
STARTCHAR 0343
ENCODING 835
SWIDTH 0 0
DWIDTH 0 0
BBX 4 8 -2 18
BITMAP
E0
F0
70
10
10
20
40
80
ENDCHAR
STARTCHAR 0344
ENCODING 836
SWIDTH 0 0
DWIDTH 0 0
BBX 10 8 -5 20
BITMAP
01C0
0380
0700
0600
EFC0
FBC0
F3C0
6180
ENDCHAR
STARTCHAR 0345
ENCODING 837
SWIDTH 0 0
DWIDTH 0 0
BBX 5 8 -1 -10
BITMAP
C0
C0
C0
C0
C0
F8
F8
38
ENDCHAR
STARTCHAR 0346
ENCODING 838
SWIDTH 0 0
DWIDTH 0 0
BBX 10 5 -5 19
BITMAP
FFC0
FFC0
C0C0
C0C0
C0C0
ENDCHAR
STARTCHAR 0347
ENCODING 839
SWIDTH 0 0
DWIDTH 0 0
BBX 10 6 -5 -10
BITMAP
FFC0
FFC0
0000
0000
FFC0
FFC0
ENDCHAR
STARTCHAR 0348
ENCODING 840
SWIDTH 0 0
DWIDTH 0 0
BBX 6 9 -3 -11
BITMAP
CC
CC
CC
CC
CC
CC
CC
CC
CC
ENDCHAR
STARTCHAR 0349
ENCODING 841
SWIDTH 0 0
DWIDTH 0 0
BBX 10 8 -5 -10
BITMAP
FFC0
FFC0
00C0
00C0
00C0
00C0
00C0
00C0
ENDCHAR
STARTCHAR 034A
ENCODING 842
SWIDTH 0 0
DWIDTH 0 0
BBX 14 9 -7 20
BITMAP
0080
00C0
0180
7F8C
7F18
43F8
C6F0
0E00
0C00
ENDCHAR
STARTCHAR 034B
ENCODING 843
SWIDTH 0 0
DWIDTH 0 0
BBX 14 12 -7 18
BITMAP
0780
0780
0780
130C
7E0C
7F98
C3F8
C0F0
0780
0780
0780
0300
ENDCHAR
STARTCHAR 034C
ENCODING 844
SWIDTH 0 0
DWIDTH 0 0
BBX 14 9 -7 19
BITMAP
3C0C
7F08
43F8
C1F0
100C
7E0C
7F98
C3F8
C0F0
ENDCHAR
STARTCHAR 034D
ENCODING 845
SWIDTH 0 0
DWIDTH 0 0
BBX 14 7 -7 -10
BITMAP
0840
1020
7038
FFFC
7038
3030
0840
ENDCHAR
STARTCHAR 034E
ENCODING 846
SWIDTH 0 0
DWIDTH 0 0
BBX 6 8 -3 -10
BITMAP
20
30
78
78
B4
30
30
30
ENDCHAR
STARTCHAR 034F
ENCODING 847
SWIDTH 0 0
DWIDTH 0 0
BBX 0 0 0 0
BITMAP
ENDCHAR
STARTCHAR 0350
ENCODING 848
SWIDTH 0 0
DWIDTH 0 0
BBX 5 7 -3 19
BITMAP
80
40
70
38
38
60
40
ENDCHAR
STARTCHAR 0351
ENCODING 849
SWIDTH 0 0
DWIDTH 0 0
BBX 4 7 -2 19
BITMAP
10
70
60
C0
C0
70
30
ENDCHAR
STARTCHAR 0352
ENCODING 850
SWIDTH 0 0
DWIDTH 0 0
BBX 10 7 -5 20
BITMAP
3F00
7F80
E1C0
CCC0
DEC0
1E00
1E00
ENDCHAR
STARTCHAR 0353
ENCODING 851
SWIDTH 0 0
DWIDTH 0 0
BBX 8 8 -4 -11
BITMAP
C3
E7
7E
1C
3C
7E
E7
42
ENDCHAR
STARTCHAR 0354
ENCODING 852
SWIDTH 0 0
DWIDTH 0 0
BBX 6 7 -3 -10
BITMAP
04
18
38
F0
70
18
08
ENDCHAR
STARTCHAR 0355
ENCODING 853
SWIDTH 0 0
DWIDTH 0 0
BBX 6 7 -3 -10
BITMAP
80
60
70
3C
38
60
40
ENDCHAR
STARTCHAR 0356
ENCODING 854
SWIDTH 0 0
DWIDTH 0 0
BBX 14 7 -6 -10
BITMAP
8040
6060
30F0
3DF0
3918
6004
4000
ENDCHAR
STARTCHAR 0357
ENCODING 855
SWIDTH 0 0
DWIDTH 0 0
BBX 3 6 -1 20
BITMAP
C0
E0
60
60
E0
C0
ENDCHAR
STARTCHAR 0358
ENCODING 856
SWIDTH 0 0
DWIDTH 0 0
BBX 4 4 3 20
BITMAP
F0
F0
F0
60
ENDCHAR
STARTCHAR 0359
ENCODING 857
SWIDTH 0 0
DWIDTH 0 0
BBX 10 9 -5 -11
BITMAP
0C00
4C80
6D80
FFC0
1E00
7F80
7F80
4C80
0C00
ENDCHAR
STARTCHAR 035A
ENCODING 858
SWIDTH 0 0
DWIDTH 0 0
BBX 10 6 -5 -8
BITMAP
7F80
DEC0
8C40
CCC0
7F80
2100
ENDCHAR
STARTCHAR 035B
ENCODING 859
SWIDTH 0 0
DWIDTH 0 0
BBX 8 10 -4 19
BITMAP
06
0E
1C
38
7F
FE
1C
38
70
60
ENDCHAR
STARTCHAR 035C
ENCODING 860
SWIDTH 0 0
DWIDTH 0 0
BBX 32 6 -16 -14
BITMAP
80000001
E0000007
FE00007F
7FFFFFFE
0FFFFFF0
00FFFF00
ENDCHAR
STARTCHAR 035D
ENCODING 861
SWIDTH 0 0
DWIDTH 0 0
BBX 32 6 -16 26
BITMAP
C0000003
F800001F
FFF007FF
1FFFFFF8
03FFFFC0
0005A000
ENDCHAR
STARTCHAR 035E
ENCODING 862
SWIDTH 0 0
DWIDTH 0 0
BBX 32 3 -16 27
BITMAP
FFFFFFFF
FFFFFFFF
FFFFFFFF
ENDCHAR
STARTCHAR 035F
ENCODING 863
SWIDTH 0 0
DWIDTH 0 0
BBX 32 3 -16 -13
BITMAP
FFFFFFFF
FFFFFFFF
FFFFFFFF
ENDCHAR
STARTCHAR 0360
ENCODING 864
SWIDTH 0 0
DWIDTH 0 0
BBX 32 7 -16 25
BITMAP
1FE00000
7FFE0000
FFFFC007
E01FFC0F
E003FFFE
00007FFE
000003F8
ENDCHAR
STARTCHAR 0361
ENCODING 865
SWIDTH 0 0
DWIDTH 0 0
BBX 32 6 -16 25
BITMAP
000FF000
03FFFFE0
3FFFFFFC
FFC003FF
F800001F
C0000003
ENDCHAR
STARTCHAR 0362
ENCODING 866
SWIDTH 0 0
DWIDTH 0 0
BBX 32 8 -16 -15
BITMAP
00000020
00000030
0000003C
FFFFFFFE
FFFFFFFF
FFFFFFFC
00000038
00000020
ENDCHAR
STARTCHAR 0363
ENCODING 867
SWIDTH 0 0
DWIDTH 0 0
BBX 6 9 -3 19
BITMAP
7C
7C
0C
7C
FC
CC
CC
FC
7C
ENDCHAR
STARTCHAR 0364
ENCODING 868
SWIDTH 0 0
DWIDTH 0 0
BBX 8 9 -4 20
BITMAP
7E
7E
C3
FF
FF
C0
E7
7E
3C
ENDCHAR
STARTCHAR 0365
ENCODING 869
SWIDTH 0 0
DWIDTH 0 0
BBX 2 13 -1 19
BITMAP
C0
C0
C0
00
C0
C0
C0
C0
C0
C0
C0
C0
C0
ENDCHAR
STARTCHAR 0366
ENCODING 870
SWIDTH 0 0
DWIDTH 0 0
BBX 8 9 -4 20
BITMAP
7E
7E
C3
C3
C3
C3
E7
7E
3C
ENDCHAR
STARTCHAR 0367
ENCODING 871
SWIDTH 0 0
DWIDTH 0 0
BBX 8 9 -4 19
BITMAP
C3
C3
C3
C3
C3
C3
C7
7F
3F
ENDCHAR
STARTCHAR 0368
ENCODING 872
SWIDTH 0 0
DWIDTH 0 0
BBX 8 10 -4 19
BITMAP
08
3E
7F
E2
C0
C0
C2
67
7E
3C
ENDCHAR
STARTCHAR 0369
ENCODING 873
SWIDTH 0 0
DWIDTH 0 0
BBX 8 13 -4 19
BITMAP
03
03
03
0B
7F
7F
C3
C3
C3
C3
E7
7F
3F
ENDCHAR
STARTCHAR 036A
ENCODING 874
SWIDTH 0 0
DWIDTH 0 0
BBX 8 13 -4 19
BITMAP
C0
C0
C0
C8
FE
F6
E3
C3
C3
C3
C3
C3
C3
ENDCHAR
STARTCHAR 036B
ENCODING 875
SWIDTH 0 0
DWIDTH 0 0
BBX 10 10 -5 19
BITMAP
1100
FF80
FEC0
CCC0
CCC0
CCC0
CCC0
CCC0
CCC0
CCC0
ENDCHAR
STARTCHAR 036C
ENCODING 876
SWIDTH 0 0
DWIDTH 0 0
BBX 5 10 -3 19
BITMAP
08
F8
F0
E0
C0
C0
C0
C0
C0
C0
ENDCHAR
STARTCHAR 036D
ENCODING 877
SWIDTH 0 0
DWIDTH 0 0
BBX 6 12 -3 19
BITMAP
10
30
30
FC
FC
30
30
30
30
30
38
38
ENDCHAR
STARTCHAR 036E
ENCODING 878
SWIDTH 0 0
DWIDTH 0 0
BBX 8 9 -4 19
BITMAP
C3
C3
66
66
7E
3C
3C
18
18
ENDCHAR
STARTCHAR 036F
ENCODING 879
SWIDTH 0 0
DWIDTH 0 0
BBX 8 9 -4 19
BITMAP
E7
66
3C
3C
18
3C
7E
E7
C3
ENDCHAR
STARTCHAR 0370
ENCODING 880
SWIDTH 411 0
DWIDTH 16 0
BBX 13 25 2 0
BITMAP
E000
E000
E000
E000
E000
E000
E000
E000
E000
E000
E000
FFF8
FFF8
FFF8
E000
E000
E000
E000
E000
E000
E000
E000
E000
E000
E000
ENDCHAR
STARTCHAR 0371
ENCODING 881
SWIDTH 411 0
DWIDTH 16 0
BBX 12 17 2 0
BITMAP
F800
FC00
1C00
1C00
1C00
1C00
1C00
1FF0
1FF0
1FF0
1C00
1C00
1C00
1C00
1C00
1C00
1C00
ENDCHAR
STARTCHAR 0372
ENCODING 882
SWIDTH 642 0
DWIDTH 25 0
BBX 21 25 2 0
BITMAP
FFFFF8
FFFFF8
FFFFF8
E07018
E07018
E07018
E07018
E07018
E07018
E07018
E07018
E07018
E07018
E07018
007000
007000
007000
007000
007000
007000
007000
007000
007000
007000
007000
ENDCHAR
STARTCHAR 0373
ENCODING 883
SWIDTH 514 0
DWIDTH 20 0
BBX 17 18 2 0
BITMAP
03E000
1FF800
3FFE00
7FFE00
71C700
71C700
E1C380
E1C380
E1C380
E1C380
01C000
01C000
01C000
01C000
01C000
01F800
01F800
00F800
ENDCHAR
STARTCHAR 0374
ENCODING 884
SWIDTH 231 0
DWIDTH 9 0
BBX 5 11 2 16
BITMAP
78
78
78
70
70
60
60
C0
C0
C0
80
ENDCHAR
STARTCHAR 0375
ENCODING 885
SWIDTH 231 0
DWIDTH 9 0
BBX 6 12 2 -2
BITMAP
04
08
08
18
18
18
38
38
70
70
F0
F0
ENDCHAR
STARTCHAR 0376
ENCODING 886
SWIDTH 591 0
DWIDTH 23 0
BBX 20 25 2 0
BITMAP
E000F0
E000F0
E001F0
E003F0
E003F0
E00770
E00F70
E00E70
E01C70
E03C70
E07870
E07070
E0F070
E1E070
E1C070
E38070
E78070
E70070
EE0070
FE0070
FC0070
F80070
F80070
F00070
E00070
ENDCHAR
STARTCHAR 0377
ENCODING 887
SWIDTH 540 0
DWIDTH 21 0
BBX 17 17 2 0
BITMAP
E01C00
E03C00
E07C00
E07C00
E0FC00
E1EC00
E1CC00
E38C00
E78C00
E70C00
EE0C00
FE0C00
FC0C00
F80C00
F80F80
F00F80
E00F80
ENDCHAR
STARTCHAR 037A
ENCODING 890
SWIDTH 231 0
DWIDTH 9 0
BBX 6 8 2 -10
BITMAP
E0
E0
E0
E0
E0
FC
FC
3C
ENDCHAR
STARTCHAR 037B
ENCODING 891
SWIDTH 462 0
DWIDTH 18 0
BBX 14 18 2 0
BITMAP
0F80
1FE0
7FF0
78F0
E038
6038
001C
001C
001C
001C
001C
001C
001C
E038
F078
7DF0
3FE0
1FC0
ENDCHAR
STARTCHAR 037C
ENCODING 892
SWIDTH 462 0
DWIDTH 18 0
BBX 14 18 2 0
BITMAP
07C0
0FF0
3FF8
3C78
701C
7018
E000
E380
E380
E7C0
E380
E000
E000
701C
783C
3EF8
1FF0
0FE0
ENDCHAR
STARTCHAR 037D
ENCODING 893
SWIDTH 462 0
DWIDTH 18 0
BBX 14 18 2 0
BITMAP
0F80
1FE0
7FF0
78F0
E038
6038
001C
071C
071C
0F9C
071C
001C
001C
E038
F078
7DF0
3FE0
1FC0
ENDCHAR
STARTCHAR 037E
ENCODING 894
SWIDTH 180 0
DWIDTH 7 0
BBX 5 24 2 -7
BITMAP
60
F0
F0
F0
00
00
00
00
00
00
00
00
00
00
60
F0
F8
F8
18
18
10
30
20
C0
ENDCHAR
STARTCHAR 037F
ENCODING 895
SWIDTH 360 0
DWIDTH 14 0
BBX 11 25 2 0
BITMAP
00E0
00E0
00E0
00E0
00E0
00E0
00E0
00E0
00E0
00E0
00E0
00E0
00E0
00E0
00E0
00E0
00E0
00E0
00E0
00E0
E0E0
E1C0
FFC0
7F80
3F00
ENDCHAR
STARTCHAR 0384
ENCODING 900
SWIDTH 257 0
DWIDTH 10 0
BBX 6 6 2 19
BITMAP
1C
38
30
60
C0
80
ENDCHAR
STARTCHAR 0385
ENCODING 901
SWIDTH 360 0
DWIDTH 14 0
BBX 11 8 2 20
BITMAP
01C0
0380
0300
0600
F5C0
FBE0
F3C0
61C0
ENDCHAR
STARTCHAR 0386
ENCODING 902
SWIDTH 642 0
DWIDTH 25 0
BBX 21 25 2 0
BITMAP
1C7000
38F800
30F800
60F800
C1DC00
81DC00
01DC00
038E00
038E00
038700
070700
070700
0F0380
0FFF80
0FFF80
1FFFC0
1C01C0
1C01C0
3800E0
3800E0
380070
700070
700070
F00038
E00038
ENDCHAR
STARTCHAR 0387
ENCODING 903
SWIDTH 180 0
DWIDTH 7 0
BBX 4 5 2 10
BITMAP
60
F0
F0
F0
20
ENDCHAR
STARTCHAR 0388
ENCODING 904
SWIDTH 720 0
DWIDTH 28 0
BBX 24 25 2 0
BITMAP
1CFFFF
38FFFF
30FFFF
60E000
C0E000
80E000
00E000
00E000
00E000
00E000
00E000
00FFFC
00FFFC
00FFFC
00E000
00E000
00E000
00E000
00E000
00E000
00E000
00E000
00FFFF
00FFFF
00FFFF
ENDCHAR
STARTCHAR 0389
ENCODING 905
SWIDTH 720 0
DWIDTH 28 0
BBX 24 25 2 0
BITMAP
1CE003
38E003
30E003
60E003
C0E003
80E003
00E003
00E003
00E003
00E003
00E003
00FFFF
00FFFF
00FFFF
00E003
00E003
00E003
00E003
00E003
00E003
00E003
00E003
00E003
00E003
00E003
ENDCHAR
STARTCHAR 038A
ENCODING 906
SWIDTH 514 0
DWIDTH 20 0
BBX 17 25 2 0
BITMAP
1CFF80
38FF80
30FF80
601C00
C01C00
801C00
001C00
001C00
001C00
001C00
001C00
001C00
001C00
001C00
001C00
001C00
001C00
001C00
001C00
001C00
001C00
001C00
00FF80
00FF80
00FF80
ENDCHAR
STARTCHAR 038C
ENCODING 908
SWIDTH 720 0
DWIDTH 28 0
BBX 25 25 2 0
BITMAP
1C3FC000
387FF000
31F9F800
61E03C00
C3801C00
87800E00
07000E00
0F000700
0E000700
0E000700
0E000300
0E000380
0E000380
0E000380
0E000300
0E000700
0E000700
0F000700
07000E00
07800E00
03C01C00
01E03C00
00FFF800
007FF000
003FC000
ENDCHAR
STARTCHAR 038E
ENCODING 910
SWIDTH 822 0
DWIDTH 32 0
BBX 28 25 2 0
BITMAP
1CE00070
387000E0
307801E0
603801C0
C01C0380
801E0780
000F0F00
00070E00
00079E00
0003FC00
0001F800
0000F000
0000F000
00006000
00006000
00006000
00006000
00006000
00006000
00006000
00006000
00006000
00006000
00006000
00006000
ENDCHAR
STARTCHAR 038F
ENCODING 911
SWIDTH 745 0
DWIDTH 29 0
BBX 26 25 2 0
BITMAP
1C1FE000
383FF800
30FCFC00
60F01E00
C1C00E00
83C00700
03800700
07000380
07000380
07000380
07000180
07000180
070001C0
07000180
07000180
07000380
07000380
07000380
03800700
03C00700
01C00E00
00F03E00
07F87FC0
07F87FC0
07F87FC0
ENDCHAR
STARTCHAR 0390
ENCODING 912
SWIDTH 231 0
DWIDTH 9 0
BBX 11 28 -2 0
BITMAP
01E0
01C0
0380
0300
77C0
F5E0
F1E0
61C0
0000
0000
0000
0E00
0E00
0E00
0E00
0E00
0E00
0E00
0E00
0E00
0E00
0E00
0E00
0E00
0E00
0FC0
0FC0
07C0
ENDCHAR
STARTCHAR 0391
ENCODING 913
SWIDTH 642 0
DWIDTH 25 0
BBX 21 25 2 0
BITMAP
007000
00F800
00F800
00F800
01DC00
01DC00
01DC00
038E00
038E00
038700
070700
070700
0F0380
0FFF80
0FFF80
1FFFC0
1C01C0
1C01C0
3800E0
3800E0
380070
700070
700070
F00038
E00038
ENDCHAR
STARTCHAR 0392
ENCODING 914
SWIDTH 488 0
DWIDTH 19 0
BBX 16 25 2 0
BITMAP
FFE0
FFF8
FFFC
E03C
E01E
E00E
E00E
E00E
E01E
E03C
FFFC
FFF8
FFFC
E03E
E00E
E00F
E007
E007
E007
E007
E00E
E01E
FFFC
FFF8
FFE0
ENDCHAR
STARTCHAR 0393
ENCODING 915
SWIDTH 488 0
DWIDTH 19 0
BBX 16 25 2 0
BITMAP
FFFF
FFFF
FFFF
E000
E000
E000
E000
E000
E000
E000
E000
E000
E000
E000
E000
E000
E000
E000
E000
E000
E000
E000
E000
E000
E000
ENDCHAR
STARTCHAR 0394
ENCODING 916
SWIDTH 642 0
DWIDTH 25 0
BBX 21 25 2 0
BITMAP
007000
00F800
00F800
00F800
01DC00
01DC00
01DC00
038E00
038E00
038700
070700
070700
0F0380
0E0380
0E0380
1C01C0
1C01C0
1C01C0
3800E0
3800E0
380070
700070
7FFFF0
FFFFF8
FFFFF8
ENDCHAR
STARTCHAR 0395
ENCODING 917
SWIDTH 488 0
DWIDTH 19 0
BBX 16 25 2 0
BITMAP
FFFF
FFFF
FFFF
E000
E000
E000
E000
E000
E000
E000
E000
FFFC
FFFC
FFFC
E000
E000
E000
E000
E000
E000
E000
E000
FFFF
FFFF
FFFF
ENDCHAR
STARTCHAR 0396
ENCODING 918
SWIDTH 514 0
DWIDTH 20 0
BBX 17 25 2 0
BITMAP
FFFF80
FFFF80
FFFF80
000700
000F00
000E00
001C00
003C00
007800
007000
00F000
01E000
01C000
038000
078000
070000
0E0000
1E0000
3C0000
380000
780000
F00000
FFFF80
FFFF80
FFFF80
ENDCHAR
STARTCHAR 0397
ENCODING 919
SWIDTH 488 0
DWIDTH 19 0
BBX 16 25 2 0
BITMAP
E007
E007
E007
E007
E007
E007
E007
E007
E007
E007
E007
FFFF
FFFF
FFFF
E007
E007
E007
E007
E007
E007
E007
E007
E007
E007
E007
ENDCHAR
STARTCHAR 0398
ENCODING 920
SWIDTH 617 0
DWIDTH 24 0
BBX 21 25 2 0
BITMAP
03FC00
07FF00
0FDF80
1E03C0
3C01E0
3800E0
7000F0
700070
E00070
E00038
E00038
E3FE38
E3FE38
E3FE38
E00038
E00038
E00070
700070
7000F0
3800E0
3C01E0
1E03C0
0FDF80
07FF00
03FC00
ENDCHAR
STARTCHAR 0399
ENCODING 921
SWIDTH 308 0
DWIDTH 12 0
BBX 8 25 2 0
BITMAP
FF
FF
FF
1C
1C
1C
1C
1C
1C
1C
1C
1C
1C
1C
1C
1C
1C
1C
1C
1C
1C
1C
FF
FF
FF
ENDCHAR
STARTCHAR 039A
ENCODING 922
SWIDTH 540 0
DWIDTH 21 0
BBX 17 25 2 0
BITMAP
E01E00
E01C00
E03800
E07800
E07000
E0E000
E1E000
E3C000
E38000
E78000
EF0000
EF0000
FF0000
FF8000
FBC000
F1C000
F0E000
E0F000
E07800
E03800
E01C00
E01E00
E00E00
E00700
E00780
ENDCHAR
STARTCHAR 039B
ENCODING 923
SWIDTH 642 0
DWIDTH 25 0
BBX 21 25 2 0
BITMAP
007000
00F800
00F800
00F800
01DC00
01DC00
01DC00
038E00
038E00
038700
070700
070700
0F0380
0E0380
0E0380
1C01C0
1C01C0
1C01C0
3800E0
3800E0
380070
700070
700070
F00038
E00038
ENDCHAR
STARTCHAR 039C
ENCODING 924
SWIDTH 642 0
DWIDTH 25 0
BBX 21 25 2 0
BITMAP
E00038
F00038
F00078
F00078
F800F8
F800F8
F800F8
FC01F8
FC01F8
FC01F8
EE03B8
EE03B8
EF03B8
E70738
E70738
E38F38
E38E38
E38E38
E1DC38
E1DC38
E1DC38
E0F838
E0F838
E0F838
E07038
ENDCHAR
STARTCHAR 039D
ENCODING 925
SWIDTH 591 0
DWIDTH 23 0
BBX 20 25 2 0
BITMAP
E00070
F00070
F80070
F80070
FC0070
FE0070
EE0070
E70070
E78070
E38070
E1C070
E1E070
E0F070
E07070
E07870
E03C70
E01C70
E00E70
E00F70
E00770
E003F0
E003F0
E001F0
E000F0
E000F0
ENDCHAR
STARTCHAR 039E
ENCODING 926
SWIDTH 488 0
DWIDTH 19 0
BBX 16 25 2 0
BITMAP
FFFF
FFFF
FFFF
0000
0000
0000
0000
0000
0000
0000
0000
1FFC
1FFC
1FFC
0000
0000
0000
0000
0000
0000
0000
0000
FFFF
FFFF
FFFF
ENDCHAR
STARTCHAR 039F
ENCODING 927
SWIDTH 617 0
DWIDTH 24 0
BBX 21 25 2 0
BITMAP
03FC00
07FF00
0FDF80
1E03C0
3C01E0
3800E0
7000F0
700070
E00070
E00038
E00038
E00038
E00038
E00038
E00038
E00038
E00070
700070
7000F0
3800E0
3C01E0
1E03C0
0FDF80
07FF00
03FC00
ENDCHAR
STARTCHAR 03A0
ENCODING 928
SWIDTH 488 0
DWIDTH 19 0
BBX 16 25 2 0
BITMAP
FFFF
FFFF
FFFF
E007
E007
E007
E007
E007
E007
E007
E007
E007
E007
E007
E007
E007
E007
E007
E007
E007
E007
E007
E007
E007
E007
ENDCHAR
STARTCHAR 03A1
ENCODING 929
SWIDTH 462 0
DWIDTH 18 0
BBX 15 25 2 0
BITMAP
FFC0
FFF0
FFF8
E03C
E01C
E00E
E00E
E00E
E00E
E01C
E03C
FFF8
FFF0
FFE0
E000
E000
E000
E000
E000
E000
E000
E000
E000
E000
E000
ENDCHAR
STARTCHAR 03A3
ENCODING 931
SWIDTH 488 0
DWIDTH 19 0
BBX 16 25 2 0
BITMAP
FFFF
FFFF
FFFF
F000
7800
3800
3C00
1E00
0E00
0700
0780
0380
01C0
0380
0780
0700
0E00
1E00
3C00
3800
7800
F000
FFFF
FFFF
FFFF
ENDCHAR
STARTCHAR 03A4
ENCODING 932
SWIDTH 488 0
DWIDTH 19 0
BBX 16 25 2 0
BITMAP
FFFF
FFFF
FFFF
0380
0380
0380
0380
0380
0380
0380
0380
0380
0380
0380
0380
0380
0380
0380
0380
0380
0380
0380
0380
0380
0380
ENDCHAR
STARTCHAR 03A5
ENCODING 933
SWIDTH 617 0
DWIDTH 24 0
BBX 21 25 2 0
BITMAP
F00078
7000F0
3800E0
3C01C0
1E03C0
0E0380
070700
078F00
039E00
01DC00
01FC00
00F800
007000
007000
007000
007000
007000
007000
007000
007000
007000
007000
007000
007000
007000
ENDCHAR
STARTCHAR 03A6
ENCODING 934
SWIDTH 565 0
DWIDTH 22 0
BBX 19 25 2 0
BITMAP
07FC00
07FC00
07FC00
00E000
00E000
03F800
0FFE00
3FFF80
7CE7C0
70E1C0
E0E1E0
E0E0E0
E0E0E0
E0E0E0
E0E1E0
70E1C0
7CE780
3FFF80
0FFE00
03F800
00E000
00E000
07FC00
07FC00
07FC00
ENDCHAR
STARTCHAR 03A7
ENCODING 935
SWIDTH 617 0
DWIDTH 24 0
BBX 21 25 2 0
BITMAP
F00078
7000F0
3800E0
3C01C0
1E03C0
0E0380
0F0700
078F00
039E00
01DC00
01FC00
00F800
007000
00F800
01FC00
01DC00
039E00
078F00
0F0700
0E0380
1E03C0
3C01E0
3800E0
7000F0
F00078
ENDCHAR
STARTCHAR 03A8
ENCODING 936
SWIDTH 565 0
DWIDTH 22 0
BBX 19 25 2 0
BITMAP
E0E0E0
E0E0E0
E0E0E0
E0E0E0
E0E0E0
E0E0E0
E0E0E0
E0E1C0
70E1C0
78E380
3EEF80
1FFF00
0FFC00
03F800
00E000
00E000
00E000
00E000
00E000
00E000
00E000
00E000
00E000
00E000
00E000
ENDCHAR
STARTCHAR 03A9
ENCODING 937
SWIDTH 617 0
DWIDTH 24 0
BBX 21 25 2 0
BITMAP
03FC00
07FF00
0FDF80
1E03C0
3C01E0
3800E0
7000F0
700070
E00070
E00038
E00038
E00038
E00038
E00038
E00038
E00038
E00070
700070
7000F0
3800E0
3C01E0
1E03C0
FF0FF8
FF0FF8
FF0FF8
ENDCHAR
STARTCHAR 03AA
ENCODING 938
SWIDTH 308 0
DWIDTH 12 0
BBX 10 32 1 0
BITMAP
E180
F3C0
F3C0
E3C0
0000
0000
0000
7F80
7F80
7F80
1C00
1C00
1C00
1C00
1C00
1C00
1C00
1C00
1C00
1C00
1C00
1C00
1C00
1C00
1C00
1C00
1C00
1C00
1C00
7F80
7F80
7F80
ENDCHAR
STARTCHAR 03AB
ENCODING 939
SWIDTH 617 0
DWIDTH 24 0
BBX 21 32 2 0
BITMAP
030E00
078F00
078F00
038E00
000000
000000
000000
F00078
7000F0
3800E0
3C01C0
1E03C0
0E0380
070700
078F00
039E00
01DC00
01FC00
00F800
007000
007000
007000
007000
007000
007000
007000
007000
007000
007000
007000
007000
007000
ENDCHAR
STARTCHAR 03AC
ENCODING 940
SWIDTH 565 0
DWIDTH 22 0
BBX 19 25 2 0
BITMAP
003800
007000
006000
00C000
008000
010000
000000
07C000
0FF1E0
3FF9C0
3C79C0
701F80
701F80
E00F80
E00F00
E00700
E00700
E00F00
E00F80
E00F80
701F80
783DC0
3EF9C0
1FF1C0
0FE0E0
ENDCHAR
STARTCHAR 03AD
ENCODING 941
SWIDTH 385 0
DWIDTH 15 0
BBX 11 25 2 0
BITMAP
03C0
0700
0600
0C00
0800
1000
0000
0E00
3F80
7FC0
71C0
70C0
7000
7000
7E00
3E00
7E00
F000
E000
E000
E0E0
E0E0
7BE0
7FC0
1F80
ENDCHAR
STARTCHAR 03AE
ENCODING 942
SWIDTH 462 0
DWIDTH 18 0
BBX 15 33 2 -9
BITMAP
00E0
01C0
0180
0300
0200
0400
0000
03C0
EFF0
FFF8
FC3C
F81C
F00E
E00E
E00E
E00E
E00E
E00E
E00E
E00E
E00E
E00E
E00E
E00E
E00E
000E
000E
000E
000E
000E
000E
000E
0006
ENDCHAR
STARTCHAR 03AF
ENCODING 943
SWIDTH 231 0
DWIDTH 9 0
BBX 7 25 1 0
BITMAP
3C
38
70
60
C0
80
00
00
70
70
70
70
70
70
70
70
70
70
70
70
70
70
7E
7E
3E
ENDCHAR
STARTCHAR 03B0
ENCODING 944
SWIDTH 462 0
DWIDTH 18 0
BBX 15 28 2 0
BITMAP
0078
00E0
00C0
0180
3D70
3E78
3C78
1870
0000
0000
0000
E00E
E00E
E00E
E00E
E00E
E00E
E00E
E00E
E00E
E00E
E00E
E00E
F01E
783C
3EF8
1FF0
0FE0
ENDCHAR
STARTCHAR 03B1
ENCODING 945
SWIDTH 565 0
DWIDTH 22 0
BBX 19 18 2 0
BITMAP
07C000
0FF1E0
3FF9C0
3C79C0
701F80
701F80
E00F80
E00F00
E00700
E00700
E00F00
E00F80
E00F80
701F80
783DC0
3EF9C0
1FF1C0
0FE0E0
ENDCHAR
STARTCHAR 03B2
ENCODING 946
SWIDTH 462 0
DWIDTH 18 0
BBX 14 33 2 -9
BITMAP
1FC0
3FE0
7DF0
F078
E038
E038
E038
E038
E038
E070
E1F0
E1E0
E1F0
E078
E038
E01C
E01C
E01C
E01C
E01C
E03C
F038
FDF8
FFF0
FFC0
E000
E000
E000
E000
E000
E000
E000
6000
ENDCHAR
STARTCHAR 03B3
ENCODING 947
SWIDTH 514 0
DWIDTH 20 0
BBX 16 26 2 -8
BITMAP
C000
E007
F007
780E
380E
3C0E
1C1C
1C1C
0E3C
0E38
0E38
0770
0770
0770
03E0
03E0
01E0
01C0
03E0
03E0
03F0
0770
0770
07F0
03E0
01C0
ENDCHAR
STARTCHAR 03B4
ENCODING 948
SWIDTH 462 0
DWIDTH 18 0
BBX 15 25 2 0
BITMAP
01F0
07F8
07FC
0E1C
0E00
0E00
0700
0780
1FC0
3FF0
3CF8
707C
703C
E01E
E00E
E00E
E00E
E00E
E00E
E00E
701C
783C
3EF8
1FF0
0FE0
ENDCHAR
STARTCHAR 03B5
ENCODING 949
SWIDTH 385 0
DWIDTH 15 0
BBX 11 18 2 0
BITMAP
0E00
3F80
7FC0
71C0
70C0
7000
7000
7E00
3E00
7E00
F000
E000
E000
E0E0
E0E0
7BE0
7FC0
1F80
ENDCHAR
STARTCHAR 03B6
ENCODING 950
SWIDTH 411 0
DWIDTH 16 0
BBX 13 33 2 -8
BITMAP
FFE0
FFE0
FFE0
3C00
3800
7000
7000
E000
E000
E000
E000
E000
E000
E000
E000
E000
E000
E000
7000
7000
3800
3C00
1F80
0FE0
07F0
0070
0038
0038
0038
0070
03F0
03E0
0780
ENDCHAR
STARTCHAR 03B7
ENCODING 951
SWIDTH 462 0
DWIDTH 18 0
BBX 15 26 2 -9
BITMAP
03C0
EFF0
FFF8
FC3C
F81C
F00E
E00E
E00E
E00E
E00E
E00E
E00E
E00E
E00E
E00E
E00E
E00E
E00E
000E
000E
000E
000E
000E
000E
000E
0006
ENDCHAR
STARTCHAR 03B8
ENCODING 952
SWIDTH 462 0
DWIDTH 18 0
BBX 15 25 2 0
BITMAP
07C0
1FF0
1EF0
3838
7838
701C
701C
E00E
E00E
E00E
E00E
FFFE
FFFE
FFFE
E00E
E00E
E00E
E00E
701C
701C
3838
3838
1EF0
1FE0
07C0
ENDCHAR
STARTCHAR 03B9
ENCODING 953
SWIDTH 231 0
DWIDTH 9 0
BBX 6 17 2 0
BITMAP
E0
E0
E0
E0
E0
E0
E0
E0
E0
E0
E0
E0
E0
E0
FC
FC
7C
ENDCHAR
STARTCHAR 03BA
ENCODING 954
SWIDTH 437 0
DWIDTH 17 0
BBX 13 17 2 0
BITMAP
E1E0
E3C0
E380
E780
EF00
EE00
FC00
FE00
FE00
FF00
F780
E380
E1C0
E1E0
E0E0
E070
E078
ENDCHAR
STARTCHAR 03BB
ENCODING 955
SWIDTH 488 0
DWIDTH 19 0
BBX 15 25 2 0
BITMAP
7C00
7E00
1E00
0700
0700
0380
0380
0380
03C0
03C0
07C0
07E0
0EE0
0EE0
0E70
1C70
1C38
1C38
3838
381C
381C
701C
700E
E00E
E00E
ENDCHAR
STARTCHAR 03BC
ENCODING 956
SWIDTH 462 0
DWIDTH 18 0
BBX 15 25 2 -9
BITMAP
E00E
E00E
E00E
E00E
E00E
E00E
E00E
E00E
E00E
E00E
E00E
E01E
F01E
F83E
FFFE
FFFE
EFCE
E000
E000
E000
E000
E000
E000
E000
6000
ENDCHAR
STARTCHAR 03BD
ENCODING 957
SWIDTH 437 0
DWIDTH 17 0
BBX 14 18 2 0
BITMAP
03C0
E1F0
71F8
7038
7038
381C
3838
3838
1C38
1C70
0E70
0E70
0EE0
07E0
07E0
07C0
03C0
03C0
ENDCHAR
STARTCHAR 03BE
ENCODING 958
SWIDTH 411 0
DWIDTH 16 0
BBX 13 33 2 -8
BITMAP
FFE0
FFE0
FFE0
3800
7000
7000
7000
7000
7000
3800
3F80
1F80
3F80
7C00
7000
E000
E000
E000
E000
E000
F000
7800
3F80
1FE0
07F0
0070
0038
0038
0038
0070
03F0
03E0
0780
ENDCHAR
STARTCHAR 03BF
ENCODING 959
SWIDTH 462 0
DWIDTH 18 0
BBX 15 18 2 0
BITMAP
07C0
0FF0
3FF8
3C78
701C
701C
E00E
E00E
E00E
E00E
E00E
E00E
E00E
701C
783C
3EF8
1FF0
0FE0
ENDCHAR
STARTCHAR 03C0
ENCODING 960
SWIDTH 462 0
DWIDTH 18 0
BBX 15 17 2 0
BITMAP
FFFE
FFFE
1C38
1C38
1C38
1C38
1C38
1C38
1C38
1C38
1838
3838
3838
7838
F038
E038
C038
ENDCHAR
STARTCHAR 03C1
ENCODING 961
SWIDTH 462 0
DWIDTH 18 0
BBX 15 26 2 -9
BITMAP
07C0
0FF0
3FF8
3C78
701C
701C
E00E
E00E
E00E
E00E
E00E
E00E
E00E
F01C
F83C
FEF8
FFF0
EFE0
E000
E000
E000
E000
E000
E000
E000
6000
ENDCHAR
STARTCHAR 03C2
ENCODING 962
SWIDTH 462 0
DWIDTH 18 0
BBX 14 25 2 -8
BITMAP
0FFC
1FF8
3E00
7800
7000
E000
E000
E000
E000
E000
E000
E000
7000
7800
3F80
1FE0
07F0
0070
0038
0038
0038
0070
03F0
03E0
0780
ENDCHAR
STARTCHAR 03C3
ENCODING 963
SWIDTH 514 0
DWIDTH 20 0
BBX 17 17 2 0
BITMAP
0FFF80
1FFF80
3EF800
783C00
701C00
E00E00
E00E00
E00E00
E00E00
E00E00
E00E00
E00E00
701C00
783C00
3EF800
1FF000
0FE000
ENDCHAR
STARTCHAR 03C4
ENCODING 964
SWIDTH 385 0
DWIDTH 15 0
BBX 11 17 2 0
BITMAP
FFE0
FFE0
0E00
0E00
0E00
0E00
0E00
0E00
0E00
0E00
0E00
0E00
0E00
0E00
0FC0
0FC0
07C0
ENDCHAR
STARTCHAR 03C5
ENCODING 965
SWIDTH 462 0
DWIDTH 18 0
BBX 15 17 2 0
BITMAP
E00E
E00E
E00E
E00E
E00E
E00E
E00E
E00E
E00E
E00E
E00E
E00E
F01E
783C
3EF8
1FF0
0FE0
ENDCHAR
STARTCHAR 03C6
ENCODING 966
SWIDTH 565 0
DWIDTH 22 0
BBX 19 25 2 -9
BITMAP
0C1F00
1C3FC0
3E7BC0
7871E0
70E0E0
E0E0E0
E0E0E0
E0E0E0
E0E0E0
E0E0E0
E0E1C0
F0E1C0
78E3C0
3CE780
3FFF00
0FFE00
07FC00
00E000
00E000
00E000
00E000
00E000
00E000
00E000
006000
ENDCHAR
STARTCHAR 03C7
ENCODING 967
SWIDTH 385 0
DWIDTH 15 0
BBX 12 25 2 -8
BITMAP
E070
70E0
70E0
70E0
39C0
39C0
3BC0
1F80
1F80
0F00
0F00
0F00
0F00
0F00
0F00
1F80
1F80
3FC0
39C0
39C0
70E0
70E0
70E0
E070
E070
ENDCHAR
STARTCHAR 03C8
ENCODING 968
SWIDTH 462 0
DWIDTH 18 0
BBX 15 25 2 -9
BITMAP
E38E
E38E
E38E
E38E
E38E
E38E
E38E
E38E
E38E
E38E
E38E
E38E
F39E
7BBC
3FF8
1FF0
0FE0
0380
0380
0380
0380
0380
0380
0380
0180
ENDCHAR
STARTCHAR 03C9
ENCODING 969
SWIDTH 591 0
DWIDTH 23 0
BBX 20 18 2 0
BITMAP
0C0300
1C0380
3C03C0
7001E0
7000E0
E000E0
E00070
E00070
E00070
E0E070
E0E070
E0E070
E0F060
70F0E0
71F8E0
7FFFC0
3F9FC0
1F0F80
ENDCHAR
STARTCHAR 03CA
ENCODING 970
SWIDTH 231 0
DWIDTH 9 0
BBX 11 24 -2 0
BITMAP
F1C0
F3E0
F3C0
61C0
0000
0000
0000
0E00
0E00
0E00
0E00
0E00
0E00
0E00
0E00
0E00
0E00
0E00
0E00
0E00
0E00
0FC0
0FC0
07C0
ENDCHAR
STARTCHAR 03CB
ENCODING 971
SWIDTH 462 0
DWIDTH 18 0
BBX 15 24 2 0
BITMAP
1C70
3C78
3C78
1830
0000
0000
0000
E00E
E00E
E00E
E00E
E00E
E00E
E00E
E00E
E00E
E00E
E00E
E00E
F01E
783C
3EF8
1FF0
0FE0
ENDCHAR
STARTCHAR 03CC
ENCODING 972
SWIDTH 462 0
DWIDTH 18 0
BBX 15 25 2 0
BITMAP
00E0
01C0
0180
0300
0200
0400
0000
07C0
0FF0
3FF8
3C78
701C
701C
E00E
E00E
E00E
E00E
E00E
E00E
E00E
701C
783C
3EF8
1FF0
0FE0
ENDCHAR
STARTCHAR 03CD
ENCODING 973
SWIDTH 462 0
DWIDTH 18 0
BBX 15 25 2 0
BITMAP
00E0
01C0
0180
0300
0200
0400
0000
0000
E00E
E00E
E00E
E00E
E00E
E00E
E00E
E00E
E00E
E00E
E00E
E00E
F01E
783C
3EF8
1FF0
0FE0
ENDCHAR
STARTCHAR 03CE
ENCODING 974
SWIDTH 591 0
DWIDTH 23 0
BBX 20 25 2 0
BITMAP
003C00
003800
007000
006000
00C000
008000
000000
0C0300
1C0380
3C03C0
7001E0
7000E0
E000E0
E00070
E00070
E00070
E0E070
E0E070
E0E070
E0F060
70F0E0
71F8E0
7FFFC0
3F9FC0
1F0F80
ENDCHAR
STARTCHAR 03CF
ENCODING 975
SWIDTH 540 0
DWIDTH 21 0
BBX 17 31 2 -7
BITMAP
E01E00
E01C00
E03800
E07800
E07000
E0E000
E1E000
E3C000
E38000
E78000
EF0000
EF0000
FF0000
FF8000
FBC000
F1C000
F0E000
E0F000
E07800
E03800
E03C00
E01E00
E00E00
E00700
E00780
001F00
003E00
007C00
01F000
03E000
018000
ENDCHAR
STARTCHAR 03D0
ENCODING 976
SWIDTH 462 0
DWIDTH 18 0
BBX 14 25 2 0
BITMAP
1FC0
3FE0
7DF0
F078
E038
E038
E038
E038
E038
E070
E1F0
E1E0
E1F0
E078
E038
E01C
E01C
E01C
E01C
E01C
E03C
F038
7DF8
3FF0
1FC0
ENDCHAR
STARTCHAR 03D1
ENCODING 977
SWIDTH 642 0
DWIDTH 25 0
BBX 21 25 2 0
BITMAP
007C00
00FE00
01FF00
01C780
01C380
01C380
01C1C0
00E1C0
F8E1F8
FCF0F8
5C7CF8
1C3FF0
1C1FE0
1C07E0
0C00E0
0C00C0
0E01C0
0E01C0
0E01C0
070380
070380
038700
03FF00
01FE00
00FC00
ENDCHAR
STARTCHAR 03D2
ENCODING 978
SWIDTH 540 0
DWIDTH 21 0
BBX 18 25 2 0
BITMAP
F003C0
F80FC0
7E1F80
1E3C00
073800
07F000
03F000
03E000
01E000
01E000
01C000
01C000
01C000
01C000
01C000
01C000
01C000
01C000
01C000
01C000
01C000
01C000
01C000
01C000
01C000
ENDCHAR
STARTCHAR 03D3
ENCODING 979
SWIDTH 771 0
DWIDTH 30 0
BBX 26 25 2 0
BITMAP
1CF003C0
38FC07C0
307E0FC0
600F1E00
C007BC00
8003B800
0001F000
0001F000
0001E000
0000E000
0000E000
0000E000
0000E000
0000E000
0000E000
0000E000
0000E000
0000E000
0000E000
0000E000
0000E000
0000E000
0000E000
0000E000
0000E000
ENDCHAR
STARTCHAR 03D4
ENCODING 980
SWIDTH 540 0
DWIDTH 21 0
BBX 18 32 2 0
BITMAP
061800
0F3C00
0F3C00
0E1C00
000000
000000
000000
F003C0
F80FC0
7E1F80
1E3C00
073800
07F000
03F000
03E000
01E000
01E000
01C000
01C000
01C000
01C000
01C000
01C000
01C000
01C000
01C000
01C000
01C000
01C000
01C000
01C000
01C000
ENDCHAR
STARTCHAR 03D5
ENCODING 981
SWIDTH 462 0
DWIDTH 18 0
BBX 15 33 2 -9
BITMAP
0380
0380
0380
0380
0380
0380
0380
07C0
1FF0
3FF8
3FF8
739C
739C
E38E
E38E
E38E
E38E
E38E
E38E
E38E
739C
7BBC
3FF8
1FF0
0FE0
0380
0380
0380
0380
0380
0380
0380
0180
ENDCHAR
STARTCHAR 03D6
ENCODING 982
SWIDTH 591 0
DWIDTH 23 0
BBX 20 17 2 0
BITMAP
FFFFF0
FFFFF0
7001E0
7000E0
E000E0
E00070
E00070
E00070
E0E070
E0E070
E0E070
E0F060
70F0E0
71F8E0
7FFFC0
3F9FC0
1F0F80
ENDCHAR
STARTCHAR 03D7
ENCODING 983
SWIDTH 642 0
DWIDTH 25 0
BBX 22 26 2 -8
BITMAP
7800F0
FE01FC
7F03F8
070780
038F00
038F00
039F00
03BF00
03BF00
03F700
03F700
03E700
03C700
03C700
078700
6F07F0
FE03F8
FC01FC
00001C
00001C
00001C
00001C
00001C
0000FC
0000F8
0000F0
ENDCHAR
STARTCHAR 03D8
ENCODING 984
SWIDTH 617 0
DWIDTH 24 0
BBX 21 33 2 -8
BITMAP
03FC00
07FF00
0FDF80
1E03C0
3C01E0
3800E0
7000F0
700070
E00070
E00038
E00038
E00038
E00038
E00038
E00038
E00038
E00070
700070
7000F0
3800E0
3C01E0
1E03C0
0FDF80
07FF00
03FC00
007000
007000
007000
007000
007000
007000
007000
007000
ENDCHAR
STARTCHAR 03D9
ENCODING 985
SWIDTH 462 0
DWIDTH 18 0
BBX 15 26 2 -9
BITMAP
07C0
0FF0
3FF8
3C78
701C
701C
E00E
E00E
E00E
E00E
E00E
E00E
E00E
701C
783C
3EF8
1FF0
0FE0
0380
0380
0380
0380
0380
0380
0380
0180
ENDCHAR
STARTCHAR 03DA
ENCODING 986
SWIDTH 591 0
DWIDTH 23 0
BBX 19 33 2 -8
BITMAP
03FC00
0FFF00
1F9F80
3C03C0
3801E0
7000E0
700080
E00000
E00000
E00000
E00000
E00000
E00000
E00000
700000
780000
3C0000
1E0000
0F8000
07F000
01FC00
003E00
000F00
000780
0003C0
1C01C0
1C01C0
1C01C0
1E0380
0F0780
07FF00
03FE00
00F800
ENDCHAR
STARTCHAR 03DB
ENCODING 987
SWIDTH 514 0
DWIDTH 20 0
BBX 14 26 2 -8
BITMAP
07C0
0FF0
3FF8
3C78
701C
7018
E000
E000
E000
E000
E000
E000
E000
7000
7800
3F80
1FE0
07F0
0070
0038
0038
0038
0070
03F0
03E0
0780
ENDCHAR
STARTCHAR 03DC
ENCODING 988
SWIDTH 488 0
DWIDTH 19 0
BBX 16 25 2 0
BITMAP
FFFF
FFFF
FFFF
E000
E000
E000
E000
E000
FFE0
FFE0
E000
E000
E000
E000
E000
E000
E000
E000
E000
E000
E000
E000
E000
E000
E000
ENDCHAR
STARTCHAR 03DD
ENCODING 989
SWIDTH 385 0
DWIDTH 15 0
BBX 11 25 2 -9
BITMAP
FFE0
FFE0
E000
E000
E000
E000
E000
FFE0
FFE0
FFE0
E000
E000
E000
E000
E000
E000
E000
E000
E000
E000
E000
E000
E000
E000
6000
ENDCHAR
STARTCHAR 03DE
ENCODING 990
SWIDTH 462 0
DWIDTH 18 0
BBX 15 25 2 0
BITMAP
F800
7C00
3E00
0E00
0E00
0E00
0E00
1E00
1C00
1C00
3800
3FFC
3FF8
7FF8
0038
0070
0070
00E0
00E0
00E0
00E0
00E0
00FC
007C
003E
ENDCHAR
STARTCHAR 03DF
ENCODING 991
SWIDTH 385 0
DWIDTH 15 0
BBX 11 25 2 0
BITMAP
0700
0E00
0E00
0E00
1C00
1C00
1C00
3800
3800
7800
7000
7FE0
FFE0
FFE0
01C0
01C0
01C0
0380
0380
0780
0700
0700
0E00
0E00
0E00
ENDCHAR
STARTCHAR 03E0
ENCODING 992
SWIDTH 591 0
DWIDTH 23 0
BBX 19 25 2 0
BITMAP
07F800
1FFC00
3F7E00
780F00
F01F80
E03F80
2079C0
00F1C0
01E0E0
07C1E0
0F83E0
1F07E0
3C0FE0
783EE0
F07CE0
60F0E0
01E0E0
03C1C0
0781C0
0F0380
3E0780
3C0F00
107E00
007C00
007800
ENDCHAR
STARTCHAR 03E1
ENCODING 993
SWIDTH 385 0
DWIDTH 15 0
BBX 12 26 2 -8
BITMAP
1C00
7F00
FF80
6380
01C0
01C0
03E0
07E0
0F60
3E70
7C70
7870
20F0
01F0
03F0
07F0
0F70
1E60
1CE0
08E0
00E0
01C0
03C0
0F80
0F00
0C00
ENDCHAR
STARTCHAR 03E2
ENCODING 994
SWIDTH 797 0
DWIDTH 31 0
BBX 27 33 2 -8
BITMAP
E00E0060
E00E0060
E00E0060
E00E0060
E00E0060
E00E0060
E00E0060
E00E0060
E00E0060
E00E0060
E00E0060
E00E0060
E00E0060
E00E0060
E00E0060
E00E0060
E00E0060
E00E00E0
E00E00E0
E00F00E0
701F01E0
783F83E0
3EFBFFE0
1FF1FF60
0FE07E60
000000E0
003800E0
00FE00E0
01FF81C0
01C7C3C0
0383FF80
0000FF00
00003C00
ENDCHAR
STARTCHAR 03E3
ENCODING 995
SWIDTH 591 0
DWIDTH 23 0
BBX 21 25 1 -8
BITMAP
707038
707038
707038
707038
707038
707038
707038
707038
707038
707038
707038
707038
707838
707878
3DFFF8
3FCFF8
0F87F8
000038
1E0038
7F8070
FFC0F0
E3F1E0
E0FFC0
007F80
001F00
ENDCHAR
STARTCHAR 03E4
ENCODING 996
SWIDTH 462 0
DWIDTH 18 0
BBX 14 25 2 0
BITMAP
0F1C
1F1C
3E1C
781C
701C
E01C
E01C
E01C
E01C
E01C
E01C
E01C
701C
703C
3C7C
3FFC
0FFC
039C
001C
001C
001C
001C
001C
001C
001C
ENDCHAR
STARTCHAR 03E5
ENCODING 997
SWIDTH 462 0
DWIDTH 18 0
BBX 14 26 2 -9
BITMAP
0700
0F1C
3F1C
3C1C
701C
701C
E01C
E01C
E01C
E01C
E01C
E01C
E01C
701C
783C
3EFC
1FFC
0FFC
001C
001C
001C
001C
001C
001C
001C
0004
ENDCHAR
STARTCHAR 03E6
ENCODING 998
SWIDTH 462 0
DWIDTH 18 0
BBX 15 25 2 0
BITMAP
E000
E000
E000
E000
E000
E000
E000
E780
FFE0
FFF0
F878
F038
E01C
E01C
E00C
E00E
E00E
000E
001C
001C
003C
0038
01F8
01F0
01C0
ENDCHAR
STARTCHAR 03E7
ENCODING 999
SWIDTH 642 0
DWIDTH 25 0
BBX 21 25 2 0
BITMAP
007C00
00FE00
01FF00
01C780
01C380
01C380
01C1C0
00E1C0
00E1F8
00F0F8
007CF8
003FF0
001FE0
0007E0
0000E0
0000C0
0201C0
0601C0
0E01C0
0F0380
1F0380
3F8700
3BFF00
71FE00
F0FC00
ENDCHAR
STARTCHAR 03E8
ENCODING 1000
SWIDTH 462 0
DWIDTH 18 0
BBX 15 25 2 0
BITMAP
0FE0
1FF0
3EF8
783C
701C
701C
001C
001C
003C
0078
01F0
07E0
1FC0
3E00
7C00
F000
E000
E000
E00E
E00E
E01E
703C
7EF8
3FF0
0FE0
ENDCHAR
STARTCHAR 03E9
ENCODING 1001
SWIDTH 385 0
DWIDTH 15 0
BBX 11 18 2 0
BITMAP
0600
3F80
7FC0
71E0
E0E0
00E0
01E0
07C0
1F80
7E00
F800
E000
E000
E0E0
E0E0
7BE0
7FC0
3F80
ENDCHAR
STARTCHAR 03EA
ENCODING 1002
SWIDTH 720 0
DWIDTH 28 0
BBX 25 25 2 0
BITMAP
0F007000
0700F000
0381E000
03C1C000
01C3C000
00E78000
00F70000
007E0000
003E0000
003C0000
003E0000
007E0000
00FF0000
00E78000
01E38000
03C1C000
0381E000
0700E000
0F007000
0E007800
1C003C00
3C001C00
FFFFFF80
FFFFFF80
FFFFFF80
ENDCHAR
STARTCHAR 03EB
ENCODING 1003
SWIDTH 514 0
DWIDTH 20 0
BBX 17 17 2 0
BITMAP
1E3C00
0E7800
077000
07F000
03E000
01C000
03E000
07F000
077000
0E3800
1E3C00
3C1C00
380E00
780F00
FFFF80
FFFF80
FFFF80
ENDCHAR
STARTCHAR 03EC
ENCODING 1004
SWIDTH 462 0
DWIDTH 18 0
BBX 17 27 2 0
BITMAP
000380
000780
07FF00
1FFE00
3FF800
3C0000
700000
700000
E00000
E7C000
FFF000
FFF800
FC7800
F01C00
F01C00
E00E00
E00E00
E00E00
E00E00
E00E00
E00E00
E00E00
701C00
783C00
3EF800
1FF000
0FE000
ENDCHAR
STARTCHAR 03ED
ENCODING 1005
SWIDTH 462 0
DWIDTH 18 0
BBX 15 25 2 0
BITMAP
001C
003C
03F8
0FF0
1FE0
3C00
7800
77C0
FFF0
FFF8
FC78
F01C
F01C
E00E
E00E
E00E
E00E
E00E
E00E
E00E
701C
783C
3EF8
1FF0
0FE0
ENDCHAR
STARTCHAR 03EE
ENCODING 1006
SWIDTH 488 0
DWIDTH 19 0
BBX 16 25 2 0
BITMAP
0380
0380
0380
0380
FFFF
FFFF
FFFF
0380
0380
0380
0380
0380
0380
0380
0380
0380
0380
0380
0380
0380
0380
0380
0380
0380
0380
ENDCHAR
STARTCHAR 03EF
ENCODING 1007
SWIDTH 385 0
DWIDTH 15 0
BBX 11 25 2 0
BITMAP
0E00
0E00
0E00
0E00
0E00
0E00
0E00
0E00
FFE0
FFE0
0E00
0E00
0E00
0E00
0E00
0E00
0E00
0E00
0E00
0E00
0E00
0E00
0E00
0E00
0E00
ENDCHAR
STARTCHAR 03F0
ENCODING 1008
SWIDTH 642 0
DWIDTH 25 0
BBX 22 18 2 0
BITMAP
7800F0
FE01FC
7F03F8
070780
038F00
038F00
039F00
03BF00
03BF00
03F700
03F700
03E700
03C700
03C700
078700
6F07F0
FE03F8
FC01F8
ENDCHAR
STARTCHAR 03F1
ENCODING 1009
SWIDTH 462 0
DWIDTH 18 0
BBX 15 26 2 -8
BITMAP
07C0
0FF0
3FF8
3C78
701C
701C
E00E
E00E
E00E
E00E
E00E
E00E
E00E
F01C
F83C
FEF8
FFF0
EFE0
E000
E000
E000
E008
783C
7FFC
1FF0
0FC0
ENDCHAR
STARTCHAR 03F2
ENCODING 1010
SWIDTH 462 0
DWIDTH 18 0
BBX 14 18 2 0
BITMAP
07C0
0FF0
3FF8
3C78
701C
7018
E000
E000
E000
E000
E000
E000
E000
701C
783C
3EF8
1FF0
0FE0
ENDCHAR
STARTCHAR 03F3
ENCODING 1011
SWIDTH 154 0
DWIDTH 6 0
BBX 9 32 -4 -8
BITMAP
0380
0780
0780
0300
0000
0000
0000
0380
0380
0380
0380
0380
0380
0380
0380
0380
0380
0380
0380
0380
0380
0380
0380
0380
0380
0380
0380
0380
0700
7F00
FE00
7C00
ENDCHAR
STARTCHAR 03F4
ENCODING 1012
SWIDTH 617 0
DWIDTH 24 0
BBX 21 25 2 0
BITMAP
03FC00
07FF00
0FDF80
1E03C0
3C01E0
3800E0
7000F0
700070
E00070
E00038
E00038
FFFFF8
FFFFF8
FFFFF8
E00038
E00038
E00070
700070
7000F0
3800E0
3C01E0
1E03C0
0FDF80
07FF00
03FC00
ENDCHAR
STARTCHAR 03F5
ENCODING 1013
SWIDTH 462 0
DWIDTH 18 0
BBX 14 18 2 0
BITMAP
07C0
0FF0
3FF8
3C78
701C
7018
E000
E000
FF80
FF80
FF80
E000
E000
701C
783C
3EF8
1FF0
0FE0
ENDCHAR
STARTCHAR 03F6
ENCODING 1014
SWIDTH 462 0
DWIDTH 18 0
BBX 14 18 2 0
BITMAP
0F80
1FE0
7FF0
78F0
F038
603C
001C
001C
07FC
07FC
07FC
001C
001C
E038
F078
7DF0
3FE0
1FC0
ENDCHAR
STARTCHAR 03F7
ENCODING 1015
SWIDTH 462 0
DWIDTH 18 0
BBX 15 25 2 0
BITMAP
E000
E000
E000
E000
E000
E000
FFE0
FFF8
FFFC
E03C
E01E
E00E
E00E
E00E
E01E
E03C
FFF8
FFF8
FFE0
E000
E000
E000
E000
E000
E000
ENDCHAR
STARTCHAR 03F8
ENCODING 1016
SWIDTH 462 0
DWIDTH 18 0
BBX 15 33 2 -9
BITMAP
E000
E000
E000
E000
E000
E000
E000
E7C0
FFF0
FFF8
FC78
F01C
F01C
E00E
E00E
E00E
E00E
E00E
E00E
E00E
F01C
F83C
FEF8
FFF0
EFE0
E000
E000
E000
E000
E000
E000
E000
6000
ENDCHAR
STARTCHAR 03F9
ENCODING 1017
SWIDTH 591 0
DWIDTH 23 0
BBX 19 25 2 0
BITMAP
03FC00
07FF00
0FDF80
1E03C0
3C01E0
7800E0
700080
700000
E00000
E00000
E00000
E00000
E00000
E00000
E00000
E00000
E00000
700000
7000C0
3800E0
3C01E0
1E03C0
0FDF80
07FF00
03FC00
ENDCHAR
STARTCHAR 03FA
ENCODING 1018
SWIDTH 617 0
DWIDTH 24 0
BBX 21 25 2 0
BITMAP
F00078
F000F8
F800F8
FC01F8
FE03F8
EE03B8
E70738
E78F38
E39E38
E1DC38
E1FC38
E0F838
E07038
E06038
E02038
E00038
E00038
E00038
E00038
E00038
E00038
E00038
E00038
E00038
E00038
ENDCHAR
STARTCHAR 03FB
ENCODING 1019
SWIDTH 488 0
DWIDTH 19 0
BBX 16 25 2 -9
BITMAP
E00F
F00F
F00F
F01F
F81F
F83F
F83F
FC3F
FC77
EE77
EE77
EEE7
E7E7
E7E7
E7C7
E3C7
E387
E000
E000
E000
E000
E000
E000
E000
6000
ENDCHAR
STARTCHAR 03FC
ENCODING 1020
SWIDTH 462 0
DWIDTH 18 0
BBX 18 26 -1 -9
BITMAP
00F800
01FE00
07FF00
078F00
0E0380
0E0380
1C01C0
1C01C0
1C01C0
1C01C0
1C01C0
1C01C0
1C01C0
1E0380
1F0780
1FDF00
1FFE00
1DFC00
1C0000
FF8000
FF8000
FF8000
1C0000
1C0000
1C0000
0C0000
ENDCHAR
STARTCHAR 03FD
ENCODING 1021
SWIDTH 591 0
DWIDTH 23 0
BBX 19 25 2 0
BITMAP
07F800
1FFC00
3F7E00
780F00
F00780
E00380
2001C0
0001C0
0000E0
0000E0
0000E0
0000E0
0000E0
0000E0
0000E0
0000E0
0000E0
0001C0
2001C0
E00380
F00780
780F00
3F7E00
1FFC00
07F800
ENDCHAR
STARTCHAR 03FE
ENCODING 1022
SWIDTH 591 0
DWIDTH 23 0
BBX 19 25 2 0
BITMAP
03FC00
07FF00
0FDF80
1E03C0
3C01E0
7800E0
700080
700000
E00000
E00000
E02000
E0F000
E0F000
E07000
E02000
E00000
E00000
700000
7000C0
3800E0
3C01E0
1E03C0
0FDF80
07FF00
03FC00
ENDCHAR
STARTCHAR 03FF
ENCODING 1023
SWIDTH 591 0
DWIDTH 23 0
BBX 19 25 2 0
BITMAP
07F800
1FFC00
3F7E00
780F00
F00780
E00380
2001C0
0001C0
0000E0
0000E0
0080E0
01E0E0
01E0E0
01C0E0
0080E0
0000E0
0000E0
0001C0
2001C0
E00380
F00780
780F00
3F7E00
1FFC00
07F800
ENDCHAR
STARTCHAR 0400
ENCODING 1024
SWIDTH 488 0
DWIDTH 19 0
BBX 16 33 2 0
BITMAP
0E00
0700
0300
0180
0080
0040
0000
0000
FFFF
FFFF
FFFF
E000
E000
E000
E000
E000
E000
E000
E000
FFFC
FFFC
FFFC
E000
E000
E000
E000
E000
E000
E000
E000
FFFF
FFFF
FFFF
ENDCHAR
STARTCHAR 0401
ENCODING 1025
SWIDTH 488 0
DWIDTH 19 0
BBX 16 32 2 0
BITMAP
1C30
1E78
1E78
1C78
0000
0000
0000
FFFF
FFFF
FFFF
E000
E000
E000
E000
E000
E000
E000
E000
FFFC
FFFC
FFFC
E000
E000
E000
E000
E000
E000
E000
E000
FFFF
FFFF
FFFF
ENDCHAR
STARTCHAR 0402
ENCODING 1026
SWIDTH 642 0
DWIDTH 25 0
BBX 21 25 2 0
BITMAP
FFFF00
FFFF00
FFFF00
038000
038000
038000
038000
038F00
03BFC0
03FFE0
03F1E0
03C070
03C070
038038
038038
038038
038038
038038
038038
038038
038070
0380F0
0383E0
0383C0
038380
ENDCHAR
ENDFONT
